<?xml version="1.0" encoding="UTF-8" standalone="no"?>
<!DOCTYPE svg PUBLIC "-//W3C//DTD SVG 1.1//EN" "http://www.w3.org/Graphics/SVG/1.1/DTD/svg11.dtd">
<svg width="100%" height="100%" viewBox="0 0 2948 2400" version="1.1" xmlns="http://www.w3.org/2000/svg" xmlns:xlink="http://www.w3.org/1999/xlink" xml:space="preserve" xmlns:serif="http://www.serif.com/" style="fill-rule:evenodd;clip-rule:evenodd;stroke-linejoin:round;stroke-miterlimit:2;">
    <g transform="matrix(4.16667,0,0,4.16667,-8927,-4166.52)">
        <g>
            <path d="M2362.51,1195.11C2368.29,1196.15 2373.81,1192.3 2374.84,1186.53C2375.87,1180.75 2372.03,1175.23 2366.25,1174.2C2360.48,1173.17 2354.96,1177.01 2353.93,1182.79C2352.89,1188.56 2356.74,1194.08 2362.51,1195.11Z" style="fill:rgb(216,217,218);fill-rule:nonzero;"/>
            <path d="M2329.53,1178.43C2332.96,1159.18 2351.36,1146.36 2370.62,1149.8C2389.86,1153.25 2402.68,1171.64 2399.24,1190.89C2395.79,1210.14 2377.4,1222.96 2358.15,1219.51C2338.9,1216.08 2326.09,1197.68 2329.53,1178.43ZM2315.6,1179.41C2318.35,1179.76 2320.34,1181.92 2320.33,1184.27C2320.33,1184.78 2320.3,1185.29 2320.34,1185.81C2320.38,1188.15 2318.43,1190.36 2315.68,1190.75L2313.08,1191.08C2313.37,1193.46 2313.84,1195.82 2314.46,1198.13L2316.99,1197.44C2319.69,1196.77 2322.35,1198.07 2323.17,1200.27L2323.74,1201.71C2324.65,1203.88 2323.61,1206.64 2321.18,1208L2318.86,1209.24C2320,1211.34 2321.27,1213.38 2322.69,1215.31L2324.81,1213.77C2327.08,1212.17 2330.03,1212.43 2331.59,1214.17C2331.92,1214.57 2332.29,1214.93 2332.64,1215.31C2334.25,1217.01 2334.28,1219.96 2332.52,1222.09L2330.81,1224.1C2332.61,1225.64 2334.53,1227.07 2336.58,1228.37L2337.99,1226.15C2339.53,1223.84 2342.36,1223.02 2344.46,1224.07L2345.84,1224.76C2347.98,1225.74 2349.08,1228.49 2348.2,1231.13L2347.32,1233.61C2349.61,1234.42 2351.93,1235.06 2354.25,1235.53L2354.77,1232.95C2355.37,1230.24 2357.72,1228.46 2360.05,1228.69C2360.56,1228.74 2361.08,1228.79 2361.59,1228.81C2363.92,1228.99 2365.94,1231.14 2366.08,1233.91L2366.16,1236.54C2368.56,1236.47 2370.95,1236.22 2373.3,1235.82L2372.86,1233.23C2372.43,1230.47 2373.97,1227.96 2376.24,1227.33L2377.72,1226.9C2379.96,1226.19 2382.62,1227.48 2383.75,1230.04L2384.78,1232.45C2386.98,1231.52 2389.12,1230.43 2391.18,1229.2L2389.83,1226.94C2388.45,1224.53 2388.98,1221.62 2390.87,1220.24C2391.28,1219.93 2391.68,1219.6 2392.09,1219.29C2393.93,1217.84 2396.87,1218.08 2398.84,1220.04L2400.67,1221.92C2402.38,1220.27 2403.98,1218.49 2405.47,1216.58L2403.39,1214.96C2401.23,1213.22 2400.68,1210.33 2401.92,1208.33C2402.18,1207.89 2402.48,1207.48 2402.72,1207.01C2403.9,1204.99 2406.73,1204.15 2409.28,1205.26L2411.67,1206.36C2412,1205.64 2412.32,1204.9 2412.62,1204.16C2413.23,1202.67 2413.75,1201.16 2414.21,1199.64L2411.7,1198.88C2409.05,1198.03 2407.5,1195.53 2407.94,1193.22C2408.06,1192.72 2408.13,1192.22 2408.21,1191.7C2408.6,1189.4 2410.93,1187.59 2413.7,1187.71L2416.33,1187.88C2416.47,1185.47 2416.46,1183.06 2416.27,1180.7L2413.64,1180.9C2410.87,1181.07 2408.51,1179.3 2408.09,1176.99L2407.8,1175.47C2407.3,1173.18 2408.84,1170.65 2411.47,1169.76L2413.97,1168.96C2413.24,1166.67 2412.36,1164.44 2411.32,1162.29L2408.96,1163.42C2406.42,1164.58 2403.57,1163.79 2402.37,1161.77L2401.54,1160.47C2400.26,1158.5 2400.77,1155.59 2402.91,1153.81L2404.95,1152.17C2403.46,1150.31 2401.83,1148.54 2400.08,1146.89L2398.27,1148.81C2396.34,1150.8 2393.41,1151.08 2391.54,1149.66C2391.13,1149.34 2390.73,1149.03 2390.3,1148.74C2388.41,1147.37 2387.82,1144.48 2389.16,1142.05L2390.47,1139.77C2388.42,1138.59 2386.27,1137.53 2384.02,1136.62L2383.03,1139.05C2381.94,1141.63 2379.3,1142.95 2377.05,1142.28C2376.55,1142.13 2376.05,1142.01 2375.56,1141.88C2373.29,1141.27 2371.71,1138.78 2372.09,1136.04L2372.5,1133.43C2370.11,1133.06 2367.72,1132.86 2365.34,1132.82L2365.3,1135.46C2365.21,1138.22 2363.23,1140.41 2360.9,1140.62C2360.39,1140.68 2359.87,1140.7 2359.37,1140.78C2357.03,1141.05 2354.65,1139.28 2354.01,1136.6L2353.45,1134.03C2351.1,1134.55 2348.8,1135.22 2346.55,1136.05L2347.46,1138.51C2348.39,1141.15 2347.34,1143.9 2345.22,1144.93L2343.84,1145.63C2341.77,1146.73 2338.92,1145.95 2337.34,1143.65L2335.89,1141.46C2333.9,1142.78 2331.99,1144.24 2330.19,1145.83L2331.93,1147.81C2333.73,1149.92 2333.74,1152.86 2332.16,1154.58C2331.79,1154.95 2331.47,1155.35 2331.13,1155.74C2329.58,1157.5 2326.65,1157.81 2324.36,1156.25L2322.21,1154.73C2320.84,1156.67 2319.6,1158.71 2318.48,1160.87L2320.82,1162.08C2323.27,1163.39 2324.36,1166.14 2323.48,1168.33L2322.93,1169.78C2322.13,1171.99 2319.5,1173.33 2316.8,1172.7L2314.25,1172.05C2313.65,1174.4 2313.23,1176.76 2312.97,1179.12L2315.6,1179.41Z" style="fill:rgb(216,217,218);fill-rule:nonzero;"/>
            <path d="M2272.02,1563.83C2271.61,1564.06 2271.18,1564.28 2270.75,1564.48C2262.52,1568.32 2252.7,1564.74 2248.87,1556.51C2245.29,1548.83 2248.23,1539.5 2255.57,1535.29C2255.98,1535.05 2256.41,1534.83 2256.84,1534.63C2260.83,1532.77 2265.3,1532.57 2269.44,1534.08C2273.57,1535.59 2276.87,1538.61 2278.72,1542.6C2282.31,1550.29 2279.36,1559.61 2272.02,1563.83ZM2275.07,1518.61C2266.8,1515.6 2257.86,1515.99 2249.88,1519.7C2249.02,1520.1 2248.17,1520.55 2247.34,1521.02C2232.67,1529.45 2226.78,1548.1 2233.93,1563.47C2241.6,1579.93 2261.24,1587.08 2277.71,1579.42C2278.57,1579.02 2279.42,1578.57 2280.24,1578.1C2294.92,1569.67 2300.81,1551.02 2293.65,1535.65C2289.94,1527.67 2283.34,1521.62 2275.07,1518.61Z" style="fill:rgb(216,217,218);fill-rule:nonzero;"/>
            <path d="M2302.95,1617.53C2300.99,1618.65 2298.96,1619.7 2296.91,1620.66C2257.7,1638.92 2210.95,1621.89 2192.69,1582.69C2175.65,1546.1 2189.67,1501.7 2224.62,1481.62C2226.57,1480.49 2228.61,1479.44 2230.67,1478.48C2249.66,1469.63 2270.96,1468.71 2290.64,1475.88C2310.32,1483.05 2326.03,1497.46 2334.87,1516.45C2351.93,1553.05 2337.9,1597.45 2302.95,1617.53ZM2355.85,1545.54L2354.27,1544.79L2354.15,1543.04C2353.33,1531.52 2350.34,1520.38 2345.25,1509.96L2344.49,1508.39L2345.48,1506.95C2348.79,1502.11 2351.76,1496.92 2354.31,1491.48C2345.94,1478.44 2334.75,1467.25 2321.8,1458.96C2316.36,1461.51 2311.16,1464.49 2306.34,1467.81L2304.9,1468.8L2303.33,1468.04C2295.79,1464.39 2287.77,1461.81 2279.47,1460.35C2276.39,1459.81 2273.27,1459.42 2270.2,1459.2L2268.47,1459.07L2267.72,1457.5C2265.18,1452.17 2262.17,1447 2258.76,1442.1C2243.37,1442.8 2228.08,1446.91 2214.33,1454.04C2213.83,1460.04 2213.81,1466.03 2214.28,1471.86L2214.42,1473.61L2212.97,1474.58C2203.37,1481.08 2195.22,1489.23 2188.74,1498.81L2187.76,1500.25L2186.02,1500.12C2180.21,1499.66 2174.22,1499.69 2168.2,1500.2C2161.15,1513.84 2157.07,1529.13 2156.33,1544.62C2161.26,1548.05 2166.42,1551.06 2171.72,1553.59L2173.29,1554.34L2173.42,1556.08C2174.24,1567.61 2177.23,1578.74 2182.32,1589.18L2183.09,1590.74L2182.09,1592.19C2178.79,1597 2175.82,1602.2 2173.26,1607.65C2181.63,1620.69 2192.82,1631.88 2205.78,1640.17C2211.2,1637.63 2216.41,1634.64 2221.23,1631.31L2222.67,1630.32L2224.25,1631.08C2231.76,1634.73 2239.79,1637.32 2248.1,1638.78C2251.18,1639.32 2254.29,1639.71 2257.35,1639.93L2259.1,1640.05L2259.85,1641.63C2262.37,1646.93 2265.38,1652.11 2268.81,1657.03C2284.2,1656.33 2299.5,1652.21 2313.24,1645.08C2313.74,1639.09 2313.76,1633.11 2313.29,1627.27L2313.15,1625.53L2314.6,1624.55C2324.21,1618.03 2332.37,1609.88 2338.83,1600.32L2339.81,1598.87L2341.56,1599.01C2347.41,1599.47 2353.4,1599.45 2359.37,1598.93C2366.42,1585.29 2370.5,1570 2371.24,1554.52C2366.28,1551.06 2361.11,1548.05 2355.85,1545.54Z" style="fill:rgb(216,217,218);fill-rule:nonzero;"/>
            <path d="M2864.68,1141.28C2858.46,1117.49 2846.94,1094.92 2831.24,1075.7C2821.7,1076.88 2812.33,1078.83 2803.32,1081.49L2800.64,1082.28L2798.63,1080.34C2785.31,1067.5 2769.83,1057.45 2752.6,1050.48L2750.01,1049.43L2749.65,1046.65C2748.43,1037.38 2746.4,1028.02 2743.6,1018.79C2719.69,1012.23 2694.38,1010.89 2670.08,1014.89C2666.34,1023.73 2663.34,1032.86 2661.16,1041.98L2660.52,1044.7L2657.83,1045.48C2644.98,1049.19 2632.65,1054.71 2621.19,1061.86C2616.95,1064.51 2612.83,1067.39 2608.95,1070.41L2606.74,1072.13L2604.16,1071.06C2595.47,1067.44 2586.35,1064.5 2577,1062.31C2559.43,1079.62 2545.62,1100.9 2536.89,1124.1C2542.71,1131.76 2549.1,1138.91 2555.91,1145.36L2557.94,1147.29L2557.27,1150C2552.8,1168.05 2551.82,1186.48 2554.36,1204.79L2554.74,1207.56L2552.52,1209.26C2545.05,1214.98 2537.96,1221.42 2531.4,1228.43C2537.61,1252.22 2549.12,1274.79 2564.82,1294.01C2574.43,1292.81 2583.81,1290.87 2592.75,1288.22L2595.44,1287.43L2597.45,1289.37C2610.76,1302.21 2626.25,1312.26 2643.46,1319.23L2646.05,1320.28L2646.42,1323.05C2647.65,1332.36 2649.68,1341.71 2652.46,1350.92C2676.39,1357.49 2701.69,1358.82 2725.98,1354.82C2729.73,1345.96 2732.73,1336.84 2734.91,1327.73L2735.56,1325.01L2738.24,1324.24C2751.12,1320.51 2763.44,1315 2774.88,1307.85C2779.13,1305.19 2783.25,1302.32 2787.14,1299.3L2789.35,1297.6L2791.92,1298.66C2800.65,1302.29 2809.77,1305.22 2819.07,1307.4C2836.65,1290.09 2850.45,1268.82 2859.18,1245.62C2853.35,1237.94 2846.96,1230.79 2840.16,1224.35L2838.13,1222.42L2838.8,1219.71C2843.27,1201.7 2844.25,1183.26 2841.71,1164.92L2841.33,1162.15L2843.55,1160.45C2850.95,1154.78 2858.05,1148.34 2864.68,1141.28Z" style="fill:rgb(208,16,140);fill-rule:nonzero;"/>
            <path d="M2193.91,1289.21C2200.02,1254.96 2232.75,1232.16 2267.01,1238.28C2301.25,1244.41 2324.06,1277.13 2317.94,1311.38C2311.81,1345.64 2279.08,1368.44 2244.83,1362.31C2210.59,1356.2 2187.79,1323.46 2193.91,1289.21ZM2169.12,1290.95C2174.01,1291.57 2177.55,1295.43 2177.55,1299.6C2177.55,1300.51 2177.5,1301.43 2177.56,1302.35C2177.64,1306.52 2174.17,1310.45 2169.28,1311.13L2164.64,1311.72C2165.16,1315.96 2165.99,1320.15 2167.09,1324.25L2171.6,1323.04C2176.41,1321.84 2181.13,1324.16 2182.6,1328.06L2183.61,1330.63C2185.23,1334.49 2183.38,1339.4 2179.05,1341.82L2174.94,1344.03C2176.95,1347.77 2179.22,1351.39 2181.74,1354.84L2185.52,1352.09C2189.55,1349.25 2194.79,1349.72 2197.58,1352.81C2198.16,1353.52 2198.83,1354.15 2199.45,1354.83C2202.31,1357.86 2202.37,1363.11 2199.23,1366.9L2196.18,1370.47C2199.39,1373.21 2202.81,1375.76 2206.45,1378.07L2208.97,1374.12C2211.7,1370.01 2216.74,1368.54 2220.47,1370.42L2222.94,1371.65C2226.75,1373.39 2228.69,1378.28 2227.13,1382.98L2225.57,1387.39C2229.65,1388.83 2233.76,1389.96 2237.89,1390.8L2238.82,1386.21C2239.89,1381.4 2244.07,1378.23 2248.22,1378.63C2249.13,1378.73 2250.04,1378.81 2250.95,1378.86C2255.11,1379.17 2258.69,1383 2258.94,1387.92L2259.08,1392.6C2263.36,1392.48 2267.61,1392.03 2271.8,1391.32L2271,1386.72C2270.24,1381.81 2272.98,1377.33 2277.02,1376.22L2279.65,1375.46C2283.64,1374.19 2288.37,1376.49 2290.38,1381.03L2292.21,1385.33C2296.13,1383.67 2299.94,1381.73 2303.6,1379.55L2301.21,1375.53C2298.75,1371.25 2299.68,1366.06 2303.04,1363.6C2303.78,1363.05 2304.49,1362.47 2305.22,1361.91C2308.5,1359.33 2313.72,1359.76 2317.23,1363.24L2320.48,1366.59C2323.52,1363.66 2326.38,1360.48 2329.02,1357.1L2325.32,1354.21C2321.48,1351.11 2320.49,1345.96 2322.7,1342.41C2323.17,1341.64 2323.7,1340.89 2324.13,1340.07C2326.24,1336.48 2331.28,1334.97 2335.81,1336.96L2340.05,1338.91C2340.64,1337.62 2341.21,1336.31 2341.75,1335C2342.83,1332.33 2343.77,1329.66 2344.58,1326.95L2340.1,1325.6C2335.4,1324.09 2332.64,1319.64 2333.41,1315.53C2333.63,1314.65 2333.75,1313.74 2333.9,1312.83C2334.59,1308.73 2338.74,1305.52 2343.66,1305.73L2348.35,1306.02C2348.61,1301.73 2348.57,1297.46 2348.24,1293.25L2343.57,1293.6C2338.64,1293.91 2334.43,1290.77 2333.69,1286.65L2333.18,1283.96C2332.28,1279.88 2335.02,1275.37 2339.7,1273.79L2344.15,1272.37C2342.85,1268.3 2341.28,1264.33 2339.44,1260.49L2335.23,1262.5C2330.72,1264.57 2325.64,1263.17 2323.5,1259.57L2322.03,1257.25C2319.75,1253.75 2320.66,1248.58 2324.46,1245.42L2328.1,1242.49C2325.45,1239.18 2322.56,1236.04 2319.43,1233.1L2316.21,1236.52C2312.78,1240.05 2307.56,1240.55 2304.24,1238.03C2303.52,1237.46 2302.79,1236.91 2302.03,1236.39C2298.66,1233.95 2297.62,1228.81 2300.01,1224.49L2302.35,1220.43C2298.7,1218.34 2294.87,1216.45 2290.86,1214.83L2289.1,1219.15C2287.16,1223.74 2282.46,1226.08 2278.46,1224.9C2277.58,1224.62 2276.69,1224.42 2275.8,1224.18C2271.77,1223.1 2268.97,1218.67 2269.64,1213.79L2270.36,1209.15C2266.11,1208.49 2261.86,1208.14 2257.62,1208.07L2257.55,1212.76C2257.39,1217.68 2253.88,1221.58 2249.72,1221.95C2248.81,1222.04 2247.89,1222.09 2246.99,1222.22C2242.84,1222.71 2238.61,1219.57 2237.47,1214.79L2236.46,1210.22C2232.29,1211.14 2228.19,1212.33 2224.2,1213.81L2225.82,1218.19C2227.46,1222.88 2225.59,1227.78 2221.83,1229.6L2219.38,1230.85C2215.68,1232.81 2210.61,1231.42 2207.81,1227.34L2205.23,1223.44C2201.69,1225.79 2198.3,1228.39 2195.09,1231.21L2198.18,1234.74C2201.39,1238.49 2201.39,1243.71 2198.58,1246.79C2197.93,1247.44 2197.36,1248.15 2196.75,1248.84C2194,1251.97 2188.79,1252.52 2184.71,1249.76L2180.88,1247.04C2178.45,1250.49 2176.24,1254.13 2174.25,1257.98L2178.41,1260.12C2182.76,1262.46 2184.71,1267.35 2183.14,1271.25L2182.17,1273.81C2180.75,1277.75 2176.07,1280.13 2171.26,1279.01L2166.72,1277.87C2165.67,1282.04 2164.91,1286.24 2164.45,1290.44L2169.12,1290.95Z" style="fill:rgb(168,192,62);fill-rule:nonzero;"/>
            <path d="M2788.85,1419.75C2790.29,1411.66 2798.02,1406.28 2806.1,1407.73C2814.18,1409.17 2819.56,1416.89 2818.12,1424.98C2816.67,1433.06 2808.95,1438.44 2800.87,1436.99C2792.79,1435.55 2787.41,1427.83 2788.85,1419.75ZM2798.25,1451.62C2814.41,1454.52 2829.86,1443.76 2832.75,1427.59C2835.63,1411.43 2824.87,1395.99 2808.71,1393.1C2792.55,1390.21 2777.1,1400.97 2774.22,1417.13C2771.33,1433.29 2782.09,1448.74 2798.25,1451.62Z" style="fill:rgb(180,29,142);fill-rule:nonzero;"/>
            <path d="M2744.95,1411.9C2750.72,1379.57 2781.62,1358.05 2813.95,1363.83C2846.26,1369.62 2867.78,1400.5 2862.01,1432.83C2856.23,1465.15 2825.34,1486.67 2793.01,1480.88C2760.7,1475.12 2739.18,1444.23 2744.95,1411.9ZM2721.56,1413.54C2726.18,1414.13 2729.52,1417.77 2729.52,1421.71C2729.52,1422.56 2729.47,1423.43 2729.53,1424.3C2729.6,1428.23 2726.33,1431.94 2721.71,1432.59L2717.33,1433.14C2717.83,1437.14 2718.61,1441.09 2719.65,1444.97L2723.9,1443.82C2728.44,1442.7 2732.9,1444.88 2734.28,1448.57L2735.24,1450.99C2736.76,1454.63 2735.01,1459.27 2730.93,1461.55L2727.05,1463.63C2728.95,1467.17 2731.1,1470.58 2733.47,1473.83L2737.04,1471.24C2740.85,1468.56 2745.79,1469 2748.42,1471.92C2748.96,1472.59 2749.6,1473.18 2750.18,1473.82C2752.88,1476.69 2752.94,1481.64 2749.98,1485.22L2747.1,1488.58C2750.13,1491.17 2753.36,1493.58 2756.79,1495.76L2759.17,1492.03C2761.74,1488.16 2766.5,1486.77 2770.03,1488.54L2772.35,1489.7C2775.94,1491.34 2777.79,1495.96 2776.3,1500.4L2774.83,1504.56C2778.68,1505.91 2782.57,1506.98 2786.46,1507.77L2787.34,1503.44C2788.35,1498.9 2792.29,1495.91 2796.21,1496.29C2797.07,1496.38 2797.93,1496.46 2798.79,1496.5C2802.71,1496.8 2806.09,1500.41 2806.33,1505.06L2806.46,1509.47C2810.5,1509.36 2814.51,1508.94 2818.46,1508.26L2817.71,1503.92C2817,1499.29 2819.58,1495.07 2823.39,1494.01L2825.88,1493.3C2829.64,1492.1 2834.1,1494.27 2836,1498.55L2837.73,1502.61C2841.43,1501.04 2845.02,1499.21 2848.48,1497.15L2846.22,1493.36C2843.9,1489.32 2844.78,1484.42 2847.95,1482.1C2848.65,1481.58 2849.31,1481.03 2850,1480.5C2853.1,1478.07 2858.03,1478.48 2861.34,1481.77L2864.41,1484.93C2867.28,1482.16 2869.98,1479.16 2872.47,1475.97L2868.97,1473.24C2865.36,1470.32 2864.42,1465.46 2866.5,1462.11C2866.94,1461.38 2867.45,1460.67 2867.85,1459.9C2869.84,1456.51 2874.59,1455.09 2878.88,1456.96L2882.88,1458.8C2883.43,1457.59 2883.97,1456.35 2884.48,1455.11C2885.5,1452.6 2886.38,1450.07 2887.15,1447.52L2882.93,1446.24C2878.49,1444.82 2875.89,1440.61 2876.61,1436.74C2876.82,1435.9 2876.93,1435.05 2877.07,1434.19C2877.72,1430.32 2881.64,1427.29 2886.29,1427.49L2890.71,1427.76C2890.95,1423.71 2890.92,1419.68 2890.6,1415.71L2886.2,1416.04C2881.54,1416.33 2877.57,1413.37 2876.87,1409.48L2876.39,1406.94C2875.54,1403.09 2878.13,1398.83 2882.54,1397.34L2886.74,1396.01C2885.52,1392.16 2884.03,1388.41 2882.3,1384.79L2878.32,1386.69C2874.08,1388.64 2869.28,1387.32 2867.26,1383.92L2865.87,1381.74C2863.72,1378.43 2864.57,1373.55 2868.17,1370.57L2871.6,1367.8C2869.1,1364.68 2866.37,1361.72 2863.42,1358.95L2860.38,1362.17C2857.14,1365.5 2852.21,1365.98 2849.08,1363.6C2848.4,1363.06 2847.72,1362.54 2847,1362.05C2843.82,1359.75 2842.83,1354.89 2845.09,1350.82L2847.29,1346.99C2843.85,1345.01 2840.24,1343.23 2836.45,1341.7L2834.8,1345.78C2832.96,1350.11 2828.53,1352.32 2824.75,1351.2C2823.92,1350.95 2823.08,1350.75 2822.24,1350.52C2818.44,1349.51 2815.79,1345.33 2816.42,1340.72L2817.11,1336.35C2813.1,1335.72 2809.08,1335.38 2805.08,1335.33L2805.02,1339.74C2804.87,1344.39 2801.55,1348.07 2797.63,1348.42C2796.77,1348.51 2795.9,1348.55 2795.05,1348.67C2791.14,1349.14 2787.14,1346.17 2786.06,1341.66L2785.11,1337.35C2781.18,1338.22 2777.31,1339.35 2773.54,1340.74L2775.07,1344.88C2776.62,1349.3 2774.86,1353.93 2771.3,1355.64L2768.99,1356.82C2765.5,1358.67 2760.72,1357.36 2758.08,1353.5L2755.64,1349.83C2752.3,1352.04 2749.1,1354.5 2746.07,1357.16L2748.99,1360.49C2752.02,1364.03 2752.02,1368.96 2749.37,1371.87C2748.75,1372.48 2748.21,1373.15 2747.64,1373.8C2745.04,1376.75 2740.12,1377.28 2736.28,1374.67L2732.66,1372.1C2730.37,1375.36 2728.28,1378.79 2726.41,1382.42L2730.33,1384.45C2734.44,1386.65 2736.27,1391.27 2734.79,1394.94L2733.88,1397.37C2732.54,1401.09 2728.12,1403.33 2723.58,1402.27L2719.3,1401.2C2718.3,1405.14 2717.59,1409.09 2717.16,1413.06L2721.56,1413.54Z" style="fill:rgb(180,29,142);fill-rule:nonzero;"/>
            <path d="M2729.65,1573.37C2730.67,1567.3 2736.81,1562.56 2744.09,1562.87L2751.01,1563.29C2751.4,1556.95 2751.35,1550.64 2750.85,1544.4L2743.95,1544.93C2736.66,1545.39 2730.44,1540.74 2729.34,1534.65L2728.58,1530.67C2727.25,1524.64 2731.31,1517.97 2738.23,1515.63L2744.81,1513.53C2742.89,1507.51 2740.56,1501.64 2737.84,1495.97L2731.62,1498.95C2724.96,1502 2717.44,1499.92 2714.28,1494.6L2712.09,1491.18C2708.73,1486 2710.07,1478.35 2715.7,1473.68L2721.08,1469.35C2717.16,1464.46 2712.88,1459.81 2708.26,1455.47L2703.5,1460.53C2698.42,1465.74 2690.7,1466.48 2685.79,1462.76C2684.73,1461.91 2683.65,1461.1 2682.53,1460.33C2677.55,1456.73 2676,1449.12 2679.53,1442.73L2682.99,1436.73C2677.59,1433.63 2671.94,1430.85 2666,1428.44L2663.41,1434.84C2660.54,1441.62 2653.59,1445.09 2647.67,1443.34C2646.37,1442.93 2645.05,1442.63 2643.74,1442.27C2637.78,1440.68 2633.63,1434.12 2634.62,1426.91L2635.7,1420.05C2629.41,1419.07 2623.12,1418.55 2616.86,1418.46L2616.75,1425.38C2616.51,1432.66 2611.32,1438.43 2605.17,1438.97C2603.83,1439.12 2602.47,1439.18 2601.14,1439.37C2595.01,1440.11 2588.75,1435.45 2587.05,1428.38L2585.56,1421.63C2579.4,1422.99 2573.33,1424.76 2567.43,1426.94L2569.83,1433.42C2572.25,1440.35 2569.5,1447.6 2563.93,1450.29L2560.31,1452.14C2554.84,1455.04 2547.35,1452.98 2543.2,1446.94L2539.38,1441.18C2534.14,1444.65 2529.13,1448.49 2524.38,1452.67L2528.97,1457.88C2533.71,1463.44 2533.71,1471.16 2529.55,1475.71C2528.59,1476.67 2527.74,1477.72 2526.85,1478.75C2522.78,1483.37 2515.06,1484.19 2509.04,1480.1L2503.37,1476.08C2499.78,1481.19 2496.51,1486.57 2493.58,1492.25L2499.72,1495.42C2506.16,1498.88 2509.04,1506.11 2506.72,1511.87L2505.29,1515.67C2503.18,1521.5 2496.27,1525.01 2489.15,1523.36L2482.44,1521.67C2480.88,1527.84 2479.76,1534.04 2479.08,1540.26L2485.99,1541.01C2493.22,1541.93 2498.46,1547.63 2498.45,1553.8C2498.45,1555.15 2498.37,1556.5 2498.47,1557.87C2498.58,1564.03 2493.45,1569.84 2486.22,1570.85L2479.36,1571.72C2480.14,1577.99 2481.35,1584.18 2482.98,1590.26L2489.65,1588.46C2496.77,1586.7 2503.75,1590.12 2505.92,1595.89L2507.42,1599.69C2509.8,1605.39 2507.06,1612.66 2500.67,1616.23L2494.58,1619.5C2497.56,1625.04 2500.92,1630.39 2504.65,1635.48L2510.23,1631.42C2516.21,1627.22 2523.95,1627.91 2528.07,1632.49C2528.92,1633.53 2529.92,1634.47 2530.83,1635.47C2535.07,1639.96 2535.15,1647.71 2530.51,1653.32L2526,1658.6C2530.75,1662.64 2535.81,1666.42 2541.18,1669.83L2544.92,1664C2548.94,1657.92 2556.4,1655.75 2561.93,1658.53L2565.57,1660.34C2571.2,1662.92 2574.08,1670.15 2571.76,1677.11L2569.45,1683.62C2575.49,1685.74 2581.58,1687.42 2587.68,1688.66L2589.06,1681.88C2590.64,1674.76 2596.81,1670.07 2602.95,1670.66C2604.29,1670.82 2605.65,1670.94 2606.99,1671.01C2613.14,1671.46 2618.43,1677.13 2618.8,1684.41L2619.02,1691.32C2625.34,1691.15 2631.62,1690.49 2637.82,1689.42L2636.64,1682.63C2635.52,1675.37 2639.57,1668.75 2645.54,1667.1L2649.43,1665.97C2655.33,1664.1 2662.33,1667.5 2665.3,1674.22L2668,1680.57C2673.8,1678.11 2679.44,1675.24 2684.85,1672.02L2681.3,1666.08C2677.67,1659.75 2679.05,1652.08 2684.02,1648.44C2685.12,1647.62 2686.16,1646.76 2687.24,1645.94C2692.09,1642.12 2699.82,1642.76 2705,1647.92L2709.82,1652.87C2714.3,1648.53 2718.53,1643.83 2722.44,1638.82L2716.96,1634.55C2711.29,1629.98 2709.83,1622.36 2713.09,1617.11C2713.78,1615.97 2714.58,1614.86 2715.21,1613.65C2718.32,1608.33 2725.77,1606.11 2732.48,1609.05L2738.75,1611.93C2739.62,1610.03 2740.47,1608.08 2741.27,1606.15C2742.86,1602.21 2744.24,1598.24 2745.44,1594.25L2738.83,1592.25C2731.87,1590.02 2727.79,1583.43 2728.94,1577.36C2729.25,1576.05 2729.43,1574.72 2729.65,1573.37Z" style="fill:rgb(0,140,141);fill-rule:nonzero;"/>
            <path d="M2602.89,1140.58C2602.94,1139.61 2602.96,1138.64 2602.94,1137.67C2602.98,1133.26 2606.77,1129.2 2611.97,1128.59L2616.9,1128.1C2616.47,1123.59 2615.7,1119.13 2614.65,1114.75L2609.84,1115.92C2604.71,1117.06 2599.78,1114.48 2598.32,1110.29L2597.33,1107.56C2595.71,1103.43 2597.8,1098.27 2602.47,1095.82L2606.88,1093.59C2604.85,1089.56 2602.53,1085.66 2599.97,1081.95L2595.89,1084.76C2591.53,1087.66 2585.98,1087.04 2583.14,1083.66C2582.51,1082.91 2581.84,1082.21 2581.2,1081.48C2578.24,1078.19 2578.33,1072.63 2581.77,1068.68L2585.09,1065C2581.77,1062 2578.21,1059.2 2574.44,1056.65L2571.65,1060.76C2568.64,1065.03 2563.27,1066.44 2559.36,1064.36C2558.5,1063.92 2557.68,1063.41 2556.78,1063.02C2552.83,1061.04 2550.89,1055.82 2552.67,1050.88L2554.43,1046.25C2553.03,1045.72 2551.6,1045.21 2550.18,1044.73C2547.28,1043.78 2544.38,1042.98 2541.47,1042.31L2540.35,1047.14C2539.09,1052.22 2534.57,1055.45 2530.18,1054.92C2529.22,1054.75 2528.26,1054.69 2527.28,1054.6C2522.9,1054.15 2519.21,1049.99 2519.09,1044.77L2519.07,1039.8C2514.51,1039.83 2510,1040.16 2505.57,1040.81L2506.27,1045.72C2506.94,1050.92 2503.92,1055.58 2499.61,1056.66L2496.8,1057.39C2492.55,1058.63 2487.59,1056.05 2485.59,1051.21L2483.78,1046.6C2479.56,1048.26 2475.47,1050.21 2471.54,1052.42L2473.97,1056.73C2476.47,1061.35 2475.34,1066.82 2471.69,1069.33L2469.35,1071.06C2465.8,1073.71 2460.27,1073.12 2456.66,1069.32L2453.3,1065.67C2449.99,1068.71 2446.88,1071.99 2443.99,1075.5L2447.83,1078.66C2451.8,1082.05 2452.7,1087.53 2450.27,1091.22C2449.72,1092.02 2449.19,1092.83 2448.69,1093.67C2446.35,1097.41 2440.98,1098.87 2436.24,1096.65L2431.79,1094.46C2429.83,1098.47 2428.11,1102.64 2426.67,1107L2431.37,1108.55C2436.36,1110.29 2439.16,1115.09 2438.2,1119.41C2437.97,1120.36 2437.81,1121.31 2437.62,1122.26C2436.76,1126.6 2432.27,1129.88 2427.07,1129.52L2422.11,1129.07C2421.71,1133.62 2421.63,1138.14 2421.86,1142.62L2426.82,1142.37C2432.04,1142.19 2436.41,1145.64 2437.09,1150C2437.26,1150.96 2437.37,1151.93 2437.57,1152.87C2438.39,1157.22 2435.36,1161.92 2430.38,1163.46L2425.62,1164.85C2426.88,1169.19 2428.44,1173.45 2430.28,1177.57L2434.81,1175.55C2439.64,1173.48 2444.96,1175.11 2447.15,1178.97L2448.64,1181.47C2450.97,1185.24 2449.86,1190.69 2445.74,1193.95L2441.8,1196.95C2444.53,1200.53 2447.52,1203.93 2450.73,1207.13L2454.24,1203.61C2457.99,1199.95 2463.51,1199.58 2466.96,1202.34C2467.7,1202.98 2468.48,1203.54 2469.26,1204.13C2472.76,1206.82 2473.71,1212.3 2471.07,1216.8L2468.47,1221.04C2472.29,1223.37 2476.3,1225.45 2480.5,1227.28L2482.48,1222.74C2484.64,1217.96 2489.68,1215.56 2493.91,1216.95L2496.69,1217.79C2500.96,1219.02 2503.8,1223.8 2502.96,1228.96L2502.07,1233.84C2506.56,1234.67 2511.04,1235.17 2515.52,1235.36L2515.73,1230.39C2516.05,1225.17 2519.87,1221.16 2524.29,1220.87C2525.25,1220.8 2526.22,1220.79 2527.19,1220.66C2531.59,1220.29 2535.99,1223.68 2537.06,1228.81L2538.01,1233.67C2542.45,1232.81 2546.83,1231.65 2551.1,1230.19L2549.49,1225.51C2547.89,1220.51 2550.01,1215.35 2554.03,1213.53L2556.67,1212.28C2560.64,1210.3 2565.97,1211.91 2568.83,1216.32L2571.45,1220.51C2575.27,1218.12 2578.94,1215.46 2582.41,1212.55L2579.23,1208.75C2575.94,1204.68 2576.07,1199.11 2579.15,1195.95C2579.85,1195.29 2580.47,1194.53 2581.15,1193.83C2584.16,1190.59 2589.7,1190.16 2593.93,1193.21L2597.92,1196.18C2600.59,1192.59 2603.05,1188.8 2605.23,1184.79L2600.88,1182.4C2596.35,1179.81 2594.44,1174.58 2596.16,1170.49L2597.29,1167.81C2598.86,1163.65 2603.9,1161.25 2608.98,1162.58L2613.75,1163.92C2614.98,1159.5 2615.9,1155.07 2616.49,1150.65L2611.57,1149.98C2606.4,1149.19 2602.76,1145 2602.89,1140.58Z" style="fill:rgb(135,40,144);fill-rule:nonzero;"/>
            <path d="M2538.01,1233.67C2542.45,1232.81 2546.83,1231.65 2551.1,1230.19L2549.49,1225.51C2547.89,1220.51 2550.01,1215.35 2554.03,1213.53L2556.67,1212.28C2560.64,1210.3 2565.97,1211.91 2568.83,1216.32L2571.45,1220.51C2575.27,1218.12 2578.94,1215.46 2582.41,1212.55L2579.23,1208.75C2575.94,1204.68 2576.07,1199.11 2579.15,1195.95C2579.85,1195.29 2580.47,1194.53 2581.15,1193.83C2584.16,1190.59 2589.7,1190.16 2593.93,1193.21L2597.92,1196.18C2600.59,1192.59 2603.05,1188.8 2605.23,1184.79L2600.88,1182.4C2596.35,1179.81 2594.44,1174.58 2596.16,1170.49L2597.29,1167.81C2598.86,1163.65 2603.9,1161.25 2608.98,1162.58L2613.75,1163.92C2614.98,1159.5 2615.9,1155.07 2616.49,1150.65L2611.57,1149.98C2606.4,1149.19 2602.76,1145 2602.89,1140.58C2602.94,1139.61 2602.96,1138.64 2602.94,1137.67C2602.98,1133.26 2606.77,1129.2 2611.97,1128.59L2616.9,1128.1C2616.47,1123.59 2615.7,1119.13 2614.65,1114.75L2609.84,1115.92C2604.71,1117.06 2599.78,1114.48 2598.32,1110.29L2597.33,1107.56C2595.71,1103.43 2597.8,1098.27 2602.47,1095.82L2606.88,1093.59C2604.85,1089.56 2602.53,1085.66 2599.97,1081.95L2595.89,1084.76C2591.53,1087.66 2585.98,1087.04 2583.14,1083.66C2582.51,1082.91 2581.84,1082.21 2581.2,1081.48C2578.24,1078.19 2578.33,1072.63 2581.77,1068.68L2585.09,1065C2584.76,1064.71 2584.42,1064.42 2584.09,1064.13C2581.74,1063.48 2579.38,1062.87 2577,1062.31C2559.43,1079.62 2545.62,1100.9 2536.89,1124.1C2542.71,1131.76 2549.1,1138.91 2555.91,1145.36L2557.94,1147.29L2557.27,1150C2552.8,1168.05 2551.82,1186.48 2554.36,1204.79L2554.74,1207.56L2552.52,1209.26C2546.46,1213.9 2540.64,1219.03 2535.16,1224.54C2536.05,1225.75 2536.72,1227.19 2537.06,1228.81L2538.01,1233.67Z" style="fill:rgb(165,34,142);fill-rule:nonzero;"/>
            <path d="M2886.76,1124.62C2868.13,1159.72 2824.63,1174.76 2787.75,1158.85C2785.68,1157.96 2783.62,1156.96 2781.63,1155.89C2763.21,1146.03 2749.67,1129.68 2743.49,1109.83C2737.31,1089.98 2739.24,1069.01 2748.91,1050.79C2767.55,1015.69 2811.05,1000.65 2847.94,1016.56C2850,1017.45 2852.05,1018.45 2854.04,1019.51C2892.05,1039.87 2906.73,1087.02 2886.76,1124.62ZM2945.57,1078.88C2939.24,1075.51 2932.66,1072.66 2926.02,1070.42L2924.04,1069.76L2923.62,1067.72C2921.66,1057.97 2918.31,1048.5 2913.7,1039.55C2911.99,1036.23 2910.11,1032.99 2908.1,1029.92L2906.96,1028.17L2907.91,1026.34C2911.11,1020.19 2913.84,1013.66 2916.03,1006.91C2904.26,992.746 2889.32,981.083 2872.64,973.033C2866.6,976.793 2860.92,981.01 2855.71,985.589L2854.17,986.951L2852.2,986.269C2839.08,981.719 2825.47,979.716 2811.74,980.318L2809.67,980.407L2808.54,978.65C2804.75,972.744 2800.4,967.064 2795.6,961.736C2777.58,964.673 2760.14,971.596 2744.95,981.846C2745.25,989.017 2746.13,996.075 2747.55,1002.86L2747.97,1004.89L2746.41,1006.24C2736.08,1015.17 2727.7,1025.9 2721.48,1038.12L2720.55,1039.96L2718.47,1040.04C2711.5,1040.29 2704.43,1041.14 2697.43,1042.56C2691.12,1059.76 2688.6,1078.33 2690.1,1096.53C2696.44,1099.91 2703.02,1102.76 2709.65,1105L2711.62,1105.66L2712.04,1107.7C2714.02,1117.46 2717.36,1126.93 2721.97,1135.87C2723.68,1139.18 2725.57,1142.43 2727.57,1145.51L2728.7,1147.25L2727.76,1149.08C2724.54,1155.26 2721.81,1161.79 2719.64,1168.51C2731.41,1182.67 2746.35,1194.33 2763.03,1202.38C2769.08,1198.61 2774.76,1194.4 2779.95,1189.82L2781.5,1188.46L2783.47,1189.15C2796.56,1193.7 2810.17,1195.7 2823.93,1195.1L2826,1195L2827.13,1196.76C2830.89,1202.61 2835.23,1208.3 2840.07,1213.68C2858.09,1210.74 2875.53,1203.81 2890.73,1193.56C2890.43,1186.44 2889.55,1179.39 2888.12,1172.56L2887.7,1170.53L2889.26,1169.18C2899.59,1160.24 2907.97,1149.52 2914.19,1137.29L2915.13,1135.45L2917.2,1135.38C2924.15,1135.12 2931.22,1134.27 2938.24,1132.85C2944.55,1115.66 2947.08,1097.09 2945.57,1078.88Z" style="fill:rgb(237,28,36);fill-rule:nonzero;"/>
            <path d="M2841.71,1164.92L2841.33,1162.15L2842.24,1161.46C2824.89,1166.98 2805.55,1166.53 2787.75,1158.85C2785.68,1157.96 2783.62,1156.96 2781.63,1155.89C2763.21,1146.03 2749.67,1129.68 2743.49,1109.83C2737.31,1089.98 2739.24,1069.01 2748.91,1050.79C2749.25,1050.17 2749.6,1049.57 2749.95,1048.96L2749.65,1046.65C2748.43,1037.38 2746.4,1028.02 2743.6,1018.79C2741.01,1018.08 2738.4,1017.44 2735.78,1016.85C2730.19,1023.3 2725.4,1030.41 2721.48,1038.12L2720.55,1039.96L2718.47,1040.04C2711.5,1040.29 2704.43,1041.14 2697.43,1042.56C2691.12,1059.76 2688.6,1078.33 2690.1,1096.53C2696.44,1099.91 2703.02,1102.76 2709.65,1105L2711.62,1105.66L2712.04,1107.7C2714.02,1117.46 2717.36,1126.93 2721.97,1135.87C2723.68,1139.18 2725.57,1142.43 2727.57,1145.51L2728.7,1147.25L2727.76,1149.08C2724.54,1155.26 2721.81,1161.79 2719.64,1168.51C2731.41,1182.67 2746.35,1194.33 2763.03,1202.38C2769.08,1198.61 2774.76,1194.4 2779.95,1189.82L2781.5,1188.46L2783.47,1189.15C2796.56,1193.7 2810.17,1195.7 2823.93,1195.1L2826,1195L2827.13,1196.76C2830.89,1202.61 2835.23,1208.3 2840.07,1213.68C2840.1,1213.68 2840.13,1213.67 2840.16,1213.67C2843.44,1197.58 2843.97,1181.22 2841.71,1164.92Z" style="fill:rgb(237,4,120);fill-rule:nonzero;"/>
            <path d="M2591.97,1357.21C2584.46,1355.44 2576.9,1354.28 2569.42,1353.75L2567.2,1353.6L2566.23,1351.58C2559.84,1338.2 2551.08,1326.33 2540.2,1316.3L2538.56,1314.79L2539.06,1312.61C2540.75,1305.36 2541.85,1297.78 2542.36,1290.05C2526.44,1278.54 2507.87,1270.46 2488.41,1266.58C2483.13,1272.16 2478.34,1278.12 2474.13,1284.33L2472.88,1286.18L2470.65,1286.01C2455.92,1284.85 2441.26,1286.52 2427.09,1290.97L2424.96,1291.64L2423.32,1290.11C2417.86,1285.01 2411.85,1280.26 2405.44,1275.99C2387.35,1284.09 2371.06,1296.12 2358.1,1310.93C2360.29,1318.28 2363.07,1325.43 2366.36,1332.17L2367.35,1334.18L2366.08,1336.03C2360.04,1344.84 2355.23,1354.51 2351.8,1364.74C2350.53,1368.53 2349.45,1372.4 2348.59,1376.23L2348.1,1378.41L2345.96,1379.07C2338.77,1381.25 2331.64,1384.07 2324.76,1387.47C2322.72,1407.07 2325.01,1427.21 2331.41,1445.96C2338.89,1447.73 2346.46,1448.89 2353.94,1449.42L2356.17,1449.57L2357.13,1451.59C2363.55,1464.99 2372.31,1476.86 2383.17,1486.87L2384.81,1488.38L2384.31,1490.56C2382.6,1497.88 2381.5,1505.46 2381.01,1513.11C2396.93,1524.63 2415.5,1532.72 2434.95,1536.59C2440.26,1530.98 2445.06,1525.01 2449.24,1518.83L2450.49,1516.99L2452.72,1517.16C2467.45,1518.32 2482.11,1516.65 2496.27,1512.21L2498.4,1511.54L2500.04,1513.06C2505.52,1518.18 2511.53,1522.92 2517.92,1527.19C2536.02,1519.08 2552.31,1507.05 2565.26,1492.25C2563.07,1484.88 2560.29,1477.73 2557.01,1471L2556.03,1468.99L2557.29,1467.15C2563.34,1458.31 2568.15,1448.65 2571.57,1438.43C2572.84,1434.63 2573.92,1430.76 2574.79,1426.92L2575.29,1424.75L2577.42,1424.1C2584.64,1421.91 2591.76,1419.09 2598.6,1415.7C2600.66,1396.09 2598.37,1375.97 2591.97,1357.21Z" style="fill:rgb(0,141,169);fill-rule:nonzero;"/>
            <path d="M2570.29,1442.06C2569.86,1443.2 2569.41,1444.34 2568.95,1445.46C2569.54,1444.42 2569.99,1443.27 2570.29,1442.06Z" style="fill:rgb(0,130,136);fill-rule:nonzero;"/>
            <path d="M2563.93,1450.29L2560.31,1452.14C2554.84,1455.04 2547.35,1452.98 2543.2,1446.94L2539.38,1441.18C2534.14,1444.65 2529.13,1448.49 2524.38,1452.67L2528.97,1457.88C2533.71,1463.44 2533.71,1471.16 2529.55,1475.71C2528.59,1476.67 2527.74,1477.72 2526.85,1478.75C2522.78,1483.37 2515.06,1484.19 2509.04,1480.1L2503.37,1476.08C2499.78,1481.19 2496.51,1486.57 2493.58,1492.25L2499.72,1495.42C2506.16,1498.88 2509.04,1506.11 2506.72,1511.87L2505.29,1515.67C2505.11,1516.18 2504.87,1516.66 2504.62,1517.13C2508.82,1520.71 2513.26,1524.08 2517.92,1527.19C2536.02,1519.08 2552.31,1507.05 2565.26,1492.25C2563.07,1484.88 2560.29,1477.73 2557.01,1471L2556.03,1468.99L2557.29,1467.15C2561.93,1460.37 2565.84,1453.1 2568.95,1445.46C2567.78,1447.56 2566.06,1449.26 2563.93,1450.29Z" style="fill:rgb(0,130,136);fill-rule:nonzero;"/>
            <path d="M2567.43,1426.94L2569.83,1433.42C2570.86,1436.37 2570.95,1439.37 2570.29,1442.06C2570.73,1440.86 2571.16,1439.65 2571.57,1438.43C2572.84,1434.63 2573.92,1430.76 2574.79,1426.92L2575.29,1424.75L2577.42,1424.1C2579.39,1423.51 2581.35,1422.86 2583.3,1422.17C2577.92,1423.45 2572.61,1425.02 2567.43,1426.94Z" style="fill:rgb(0,130,136);fill-rule:nonzero;"/>
        </g>
    </g>
    <g transform="matrix(4.16667,0,0,4.16667,-8927,-4166.52)">
        <path d="M2629.96,1497.9L2631.15,1496.03L2626.95,1493.34L2625.75,1495.21L2598.51,1477.78L2595.82,1481.98L2635.19,1507.17L2637.88,1502.97L2629.96,1497.9Z" style="fill:rgb(241,242,242);fill-rule:nonzero;"/>
    </g>
    <g transform="matrix(4.16667,0,0,4.16667,-8927,-4166.52)">
        <path d="M2627.06,1493.87L2630.62,1496.15L2629.42,1498.02L2637.35,1503.08L2635.07,1506.64L2596.35,1481.87L2598.62,1478.31L2625.87,1495.74L2627.06,1493.87Z" style="fill:rgb(241,242,242);fill-rule:nonzero;"/>
    </g>
    <g transform="matrix(4.16667,0,0,4.16667,-8927,-4166.52)">
        <path d="M2592.58,1487.03L2589.89,1491.24L2601.24,1498.51L2597.74,1503.98L2601.17,1506.17L2599.95,1508.08L2599.13,1509.37L2595.7,1514.72L2598.86,1516.74L2596.99,1519.67L2595.19,1522.48L2599.39,1525.17L2600.99,1522.68L2609.09,1527.86L2611.78,1523.65L2600.52,1516.45L2603.13,1512.38L2611.22,1517.56L2613.92,1513.36L2602.39,1505.98L2605.45,1501.19L2617.07,1508.63L2619.76,1504.42L2592.58,1487.03Z" style="fill:rgb(241,242,242);fill-rule:nonzero;"/>
    </g>
    <g transform="matrix(4.16667,0,0,4.16667,-8927,-4166.52)">
        <path d="M2616.95,1508.1L2605.33,1500.66L2601.86,1506.1L2613.39,1513.48L2611.11,1517.03L2603.01,1511.85L2599.99,1516.57L2611.25,1523.77L2608.97,1527.33L2600.87,1522.15L2599.28,1524.64L2595.72,1522.37L2597.31,1519.87L2599.36,1516.67L2599.39,1516.63L2596.23,1514.6L2599.45,1509.57L2600.27,1508.28L2601.69,1506.06L2598.27,1503.87L2601.77,1498.39L2590.42,1491.13L2592.7,1487.57L2619.23,1504.54L2616.95,1508.1Z" style="fill:rgb(241,242,242);fill-rule:nonzero;"/>
    </g>
    <g transform="matrix(4.16667,0,0,4.16667,-8927,-4166.52)">
        <path d="M2622.13,1537.93L2619.44,1542.14L2629.7,1548.7L2632.39,1544.5L2622.13,1537.93Z" style="fill:rgb(241,242,242);fill-rule:nonzero;"/>
    </g>
    <g transform="matrix(4.16667,0,0,4.16667,-8927,-4166.52)">
        <path d="M2622.25,1538.46L2631.86,1544.62L2629.58,1548.17L2619.97,1542.02L2622.25,1538.46Z" style="fill:rgb(241,242,242);fill-rule:nonzero;"/>
    </g>
    <g transform="matrix(4.16667,0,0,4.16667,-8927,-4166.52)">
        <path d="M2637.42,1492.26L2634.73,1496.47L2642.14,1501.21L2644.84,1497L2637.42,1492.26Z" style="fill:rgb(241,242,242);fill-rule:nonzero;"/>
    </g>
    <g transform="matrix(4.16667,0,0,4.16667,-8927,-4166.52)">
        <path d="M2637.54,1492.79L2644.31,1497.12L2642.02,1500.68L2635.26,1496.35L2637.54,1492.79Z" style="fill:rgb(241,242,242);fill-rule:nonzero;"/>
    </g>
    <g transform="matrix(4.16667,0,0,4.16667,-8927,-4166.52)">
        <path d="M2637.92,1487.56L2635.22,1491.77L2637.66,1493.32L2640.35,1489.11L2637.92,1487.56Z" style="fill:rgb(241,242,242);fill-rule:nonzero;"/>
    </g>
    <g transform="matrix(4.16667,0,0,4.16667,-8927,-4166.52)">
        <path d="M2638.04,1488.09L2639.82,1489.23L2637.54,1492.79L2635.76,1491.65L2638.04,1488.09Z" style="fill:rgb(241,242,242);fill-rule:nonzero;"/>
    </g>
    <g transform="matrix(4.16667,0,0,4.16667,-8927,-4166.52)">
        <path d="M2593.08,1479.2L2588.97,1485.63L2592.51,1487.9L2596.62,1481.46L2593.08,1479.2Z" style="fill:rgb(241,242,242);fill-rule:nonzero;"/>
    </g>
    <g transform="matrix(4.16667,0,0,4.16667,-8927,-4166.52)">
        <path d="M2592.39,1487.37L2589.5,1485.52L2593.2,1479.73L2596.09,1481.58L2592.39,1487.37Z" style="fill:rgb(241,242,242);fill-rule:nonzero;"/>
    </g>
    <g transform="matrix(4.16667,0,0,4.16667,-8927,-4166.52)">
        <path d="M2598.77,1524.24L2596.62,1527.6L2600.25,1529.92L2602.4,1526.56L2598.77,1524.24Z" style="fill:rgb(241,242,242);fill-rule:nonzero;"/>
    </g>
    <g transform="matrix(4.16667,0,0,4.16667,-8927,-4166.52)">
        <path d="M2600.13,1529.4L2597.15,1527.49L2598.88,1524.77L2601.87,1526.68L2600.13,1529.4Z" style="fill:rgb(241,242,242);fill-rule:nonzero;"/>
    </g>
    <g transform="matrix(4.16667,0,0,4.16667,-8927,-4166.52)">
        <path d="M2630.48,1480.17L2628.79,1482.8L2627.99,1484.05L2623.11,1491.67L2627.32,1494.36L2632,1487.06L2636.98,1490.25L2639.67,1486.04L2630.48,1480.17Z" style="fill:rgb(241,242,242);fill-rule:nonzero;"/>
    </g>
    <g transform="matrix(4.16667,0,0,4.16667,-8927,-4166.52)">
        <path d="M2631.88,1486.54L2627.21,1493.83L2623.64,1491.55L2628.31,1484.26L2629.12,1483.01L2630.6,1480.69L2639.14,1486.16L2636.87,1489.72L2631.88,1486.54Z" style="fill:rgb(241,242,242);fill-rule:nonzero;"/>
    </g>
    <g transform="matrix(4.16667,0,0,4.16667,-8927,-4166.52)">
        <path d="M2646.57,1508.02L2648.73,1504.64L2641.76,1500.18L2639.07,1504.39L2645.3,1508.38L2643.13,1511.76L2650.1,1516.22L2652.8,1512.01L2646.57,1508.02Z" style="fill:rgb(241,242,242);fill-rule:nonzero;"/>
    </g>
    <g transform="matrix(4.16667,0,0,4.16667,-8927,-4166.52)">
        <path d="M2645.83,1508.26L2639.6,1504.27L2641.88,1500.71L2648.2,1504.76L2646.04,1508.14L2652.27,1512.13L2649.99,1515.69L2643.67,1511.64L2645.83,1508.26Z" style="fill:rgb(241,242,242);fill-rule:nonzero;"/>
    </g>
    <g transform="matrix(4.16667,0,0,4.16667,-8927,-4166.52)">
        <path d="M2660.1,1521.71L2656.6,1519.46L2650.27,1515.41L2647.57,1519.64L2653.58,1523.49L2640.29,1544.25L2634.33,1540.43L2631.62,1544.66L2637.91,1548.69L2641.79,1551.17L2660.5,1521.93L2660.1,1521.71Z" style="fill:rgb(241,242,242);fill-rule:nonzero;"/>
    </g>
    <g transform="matrix(4.16667,0,0,4.16667,-8927,-4166.52)">
        <path d="M2638.11,1548.36L2632.15,1544.55L2634.44,1540.96L2640.41,1544.78L2654.11,1523.37L2648.1,1519.53L2650.39,1515.94L2656.4,1519.78L2659.91,1522.04L2659.96,1522.07L2643.97,1547.06L2641.68,1550.64L2638.11,1548.36Z" style="fill:rgb(241,242,242);fill-rule:nonzero;"/>
    </g>
    <g transform="matrix(4.16667,0,0,4.16667,-8927,-4166.52)">
        <path d="M2599.67,1528.71L2596.98,1532.91L2617.66,1546.14L2620.35,1541.94L2599.67,1528.71Z" style="fill:rgb(241,242,242);fill-rule:nonzero;"/>
    </g>
    <g transform="matrix(4.16667,0,0,4.16667,-8927,-4166.52)">
        <path d="M2617.54,1545.62L2597.51,1532.8L2599.79,1529.24L2619.82,1542.05L2617.54,1545.62Z" style="fill:rgb(241,242,242);fill-rule:nonzero;"/>
    </g>
    <g transform="matrix(4.16667,0,0,4.16667,-8927,-4166.52)">
        <path d="M2520.81,1402.04C2515.34,1403.14 2510.01,1399.59 2508.91,1394.12C2507.81,1388.66 2511.36,1383.32 2516.82,1382.22C2522.29,1381.12 2527.63,1384.67 2528.73,1390.14C2529.83,1395.6 2526.27,1400.94 2520.81,1402.04ZM2480.91,1413.19C2480.21,1414.54 2479.36,1415.82 2478.38,1416.99C2475.88,1420 2472.52,1422.33 2468.6,1423.57C2467.88,1423.8 2467.14,1423.99 2466.38,1424.14C2465.63,1424.3 2464.87,1424.4 2464.12,1424.47C2460.02,1424.84 2456.03,1423.99 2452.55,1422.18C2451.2,1421.48 2449.92,1420.63 2448.75,1419.65C2445.75,1417.15 2443.41,1413.8 2442.17,1409.87C2441.95,1409.15 2441.75,1408.41 2441.6,1407.66C2441.45,1406.9 2441.34,1406.15 2441.27,1405.39C2440.9,1401.29 2441.75,1397.3 2443.56,1393.83C2444.26,1392.47 2445.11,1391.2 2446.09,1390.02C2448.59,1387.02 2451.95,1384.69 2455.87,1383.44C2456.59,1383.22 2457.33,1383.02 2458.09,1382.87C2458.84,1382.72 2459.6,1382.61 2460.35,1382.54C2464.45,1382.17 2468.44,1383.03 2471.92,1384.83C2473.27,1385.54 2474.55,1386.38 2475.72,1387.36C2478.72,1389.87 2481.05,1393.22 2482.3,1397.14C2482.53,1397.87 2482.72,1398.6 2482.87,1399.36C2483.02,1400.11 2483.13,1400.87 2483.2,1401.62C2483.57,1405.72 2482.72,1409.71 2480.91,1413.19ZM2483.52,1458.1C2484.62,1463.56 2481.07,1468.9 2475.6,1470C2470.14,1471.1 2464.8,1467.55 2463.7,1462.08C2462.6,1456.62 2466.15,1451.28 2471.62,1450.18C2477.08,1449.08 2482.42,1452.63 2483.52,1458.1ZM2440.95,1348.92C2439.85,1343.45 2443.4,1338.11 2448.87,1337.02C2454.33,1335.92 2459.67,1339.47 2460.77,1344.93C2461.87,1350.4 2458.32,1355.74 2452.85,1356.84C2447.39,1357.93 2442.05,1354.38 2440.95,1348.92ZM2501.87,1429.87C2504.96,1425.23 2511.25,1423.97 2515.89,1427.06C2520.53,1430.14 2521.79,1436.43 2518.7,1441.07C2515.62,1445.71 2509.33,1446.97 2504.69,1443.89C2500.05,1440.8 2498.79,1434.51 2501.87,1429.87ZM2438.69,1457.16C2435.6,1461.8 2429.31,1463.06 2424.67,1459.98C2420.03,1456.89 2418.77,1450.6 2421.86,1445.96C2424.94,1441.32 2431.23,1440.06 2435.87,1443.15C2440.51,1446.23 2441.77,1452.52 2438.69,1457.16ZM2407.64,1424.79C2402.18,1425.89 2396.84,1422.34 2395.75,1416.88C2394.65,1411.41 2398.2,1406.07 2403.66,1404.97C2409.13,1403.88 2414.46,1407.43 2415.56,1412.89C2416.66,1418.36 2413.11,1423.7 2407.64,1424.79ZM2422.6,1377.14C2419.51,1381.78 2413.22,1383.04 2408.58,1379.96C2403.94,1376.87 2402.68,1370.58 2405.77,1365.94C2408.85,1361.3 2415.14,1360.04 2419.78,1363.13C2424.42,1366.21 2425.68,1372.5 2422.6,1377.14ZM2485.78,1349.86C2488.87,1345.21 2495.16,1343.95 2499.8,1347.04C2504.44,1350.13 2505.7,1356.41 2502.62,1361.05C2499.53,1365.69 2493.24,1366.96 2488.6,1363.87C2483.96,1360.78 2482.7,1354.5 2485.78,1349.86ZM2515.92,1377.75C2508.75,1379.19 2503.85,1385.66 2504.16,1392.75L2487.72,1396.05C2486.14,1390.65 2482.95,1386.07 2478.78,1382.76L2488.07,1368.79C2494.52,1371.75 2502.37,1369.67 2506.42,1363.58C2510.9,1356.84 2509.06,1347.72 2502.33,1343.24C2495.59,1338.75 2486.46,1340.59 2481.98,1347.33C2477.93,1353.42 2479.04,1361.46 2484.27,1366.26L2474.98,1380.23C2470.31,1377.67 2464.85,1376.49 2459.26,1377.13L2455.95,1360.69C2462.61,1358.23 2466.68,1351.21 2465.24,1344.03C2463.65,1336.1 2455.9,1330.95 2447.97,1332.54C2440.03,1334.13 2434.88,1341.89 2436.47,1349.82C2437.92,1356.99 2444.39,1361.89 2451.48,1361.59L2454.78,1378.02C2449.38,1379.6 2444.8,1382.79 2441.48,1386.96L2427.51,1377.67C2430.48,1371.22 2428.4,1363.38 2422.31,1359.33C2415.57,1354.84 2406.44,1356.68 2401.96,1363.42C2397.48,1370.15 2399.32,1379.28 2406.06,1383.76C2412.14,1387.81 2420.19,1386.7 2424.98,1381.47L2438.96,1390.76C2436.39,1395.43 2435.22,1400.89 2435.85,1406.48L2419.41,1409.79C2416.95,1403.13 2409.93,1399.06 2402.76,1400.5C2394.83,1402.09 2389.67,1409.84 2391.27,1417.78C2392.86,1425.71 2400.61,1430.86 2408.54,1429.27C2415.71,1427.83 2420.62,1421.35 2420.31,1414.27L2436.75,1410.96C2438.33,1416.36 2441.52,1420.94 2445.69,1424.26L2436.4,1438.23C2429.95,1435.26 2422.1,1437.34 2418.05,1443.43C2413.57,1450.17 2415.41,1459.3 2422.14,1463.78C2428.88,1468.26 2438.01,1466.42 2442.49,1459.69C2446.54,1453.6 2445.43,1445.56 2440.2,1440.76L2449.49,1426.79C2454.16,1429.35 2459.62,1430.53 2465.21,1429.89L2468.52,1446.33C2461.86,1448.79 2457.78,1455.81 2459.23,1462.98C2460.82,1470.91 2468.57,1476.07 2476.5,1474.48C2484.44,1472.88 2489.59,1465.13 2488,1457.2C2486.55,1450.03 2480.08,1445.13 2472.99,1445.43L2469.69,1428.99C2475.09,1427.41 2479.67,1424.22 2482.99,1420.05L2496.96,1429.35C2493.99,1435.79 2496.07,1443.64 2502.16,1447.69C2508.9,1452.17 2518.03,1450.33 2522.51,1443.6C2526.99,1436.86 2525.15,1427.74 2518.42,1423.25C2512.33,1419.2 2504.29,1420.32 2499.48,1425.54L2485.51,1416.25C2488.08,1411.58 2489.25,1406.13 2488.62,1400.53L2505.06,1397.23C2507.52,1403.88 2514.54,1407.96 2521.71,1406.52C2529.64,1404.92 2534.8,1397.17 2533.2,1389.24C2531.61,1381.31 2523.86,1376.15 2515.92,1377.75Z" style="fill:rgb(241,242,242);fill-rule:nonzero;"/>
    </g>
    <g transform="matrix(4.16667,0,0,4.16667,-8927,-4166.52)">
        <path d="M2617.12,1177.62C2620.14,1143.86 2643.62,1114.98 2675.89,1104.95L2674.35,1099.38C2657.97,1104.43 2643.47,1114 2632.28,1127.16C2620.26,1141.32 2613.02,1158.59 2611.36,1177.11C2608.32,1211.07 2625.04,1243.99 2654.1,1261.72L2656.96,1256.7C2629.85,1240.09 2614.27,1209.35 2617.12,1177.62Z" style="fill:rgb(241,242,242);fill-rule:nonzero;"/>
    </g>
    <g transform="matrix(4.16667,0,0,4.16667,-8927,-4166.52)">
        <path d="M2639.14,1179.59C2641.35,1154.96 2658.34,1133.86 2681.76,1126.29L2680.22,1120.71C2668.14,1124.57 2657.44,1131.7 2649.15,1141.45C2640.09,1152.11 2634.64,1165.13 2633.39,1179.08C2631.12,1204.45 2643.48,1229.05 2665.04,1242.49L2667.89,1237.47C2648.29,1225.15 2637.07,1202.73 2639.14,1179.59Z" style="fill:rgb(241,242,242);fill-rule:nonzero;"/>
    </g>
    <g transform="matrix(4.16667,0,0,4.16667,-8927,-4166.52)">
        <path d="M2687.63,1147.63L2686.1,1142.06C2669.21,1147.81 2657.02,1163.17 2655.41,1181.05C2653.91,1197.83 2661.92,1214.11 2675.97,1223.24L2678.83,1218.22C2666.74,1210.23 2659.86,1196.12 2661.16,1181.57C2662.55,1166.05 2673.06,1152.72 2687.63,1147.63Z" style="fill:rgb(241,242,242);fill-rule:nonzero;"/>
    </g>
    <g transform="matrix(4.16667,0,0,4.16667,-8927,-4166.52)">
        <path d="M2785.74,1140.91C2777.07,1125.96 2764.5,1113.97 2749.28,1106.09L2746.78,1111.3C2776.75,1126.91 2794.72,1159.5 2791.7,1193.26C2788.86,1224.98 2768.07,1252.47 2738.44,1264L2740.35,1269.45C2772.11,1257.16 2794.41,1227.74 2797.45,1193.77C2799.11,1175.25 2795.06,1156.97 2785.74,1140.91Z" style="fill:rgb(241,242,242);fill-rule:nonzero;"/>
    </g>
    <g transform="matrix(4.16667,0,0,4.16667,-8927,-4166.52)">
        <path d="M2775.43,1191.8C2776.68,1177.85 2773.62,1164.08 2766.6,1151.97C2760.18,1140.9 2750.92,1131.98 2739.71,1126.04L2737.21,1131.25C2758.91,1142.87 2771.88,1166.66 2769.68,1191.29C2767.6,1214.42 2752.57,1234.49 2731.1,1243.13L2733.01,1248.58C2756.62,1239.19 2773.15,1217.18 2775.43,1191.8Z" style="fill:rgb(241,242,242);fill-rule:nonzero;"/>
    </g>
    <g transform="matrix(4.16667,0,0,4.16667,-8927,-4166.52)">
        <path d="M2753.4,1189.83C2755,1171.95 2745.73,1154.67 2730.13,1146L2727.63,1151.21C2741.07,1158.81 2749.04,1173.79 2747.65,1189.31C2746.35,1203.87 2737.07,1216.53 2723.75,1222.24L2725.67,1227.7C2741.12,1221.2 2751.9,1206.61 2753.4,1189.83Z" style="fill:rgb(241,242,242);fill-rule:nonzero;"/>
    </g>
    <g transform="matrix(4.16667,0,0,4.16667,-8927,-4166.52)">
        <path d="M2706.09,1166.61C2696.39,1165.74 2687.78,1172.93 2686.92,1182.64C2686.04,1192.34 2693.23,1200.95 2702.94,1201.81C2712.65,1202.69 2721.25,1195.5 2722.12,1185.79C2722.99,1176.08 2715.8,1167.48 2706.09,1166.61Z" style="fill:rgb(241,242,242);fill-rule:nonzero;"/>
    </g>
    <g transform="matrix(4.16667,0,0,4.16667,-8927,-4166.52)">
        <path d="M2690.17,1315.4L2695.37,1315.86L2703.55,1224.5L2698.36,1224.03L2690.17,1315.4Z" style="fill:rgb(241,242,242);fill-rule:nonzero;"/>
    </g>
    <g transform="matrix(4.16667,0,0,4.16667,-8927,-4166.52)">
        <path d="M2524.44,1155.5C2526.49,1154.51 2528.1,1152.93 2529.28,1150.77C2530.46,1148.6 2530.95,1145.97 2530.75,1142.87C2530.47,1138.82 2529.5,1135.07 2527.84,1131.65C2526.33,1128.51 2524.21,1126.39 2521.51,1125.28C2518.81,1124.18 2516.06,1124.3 2513.27,1125.65C2509.54,1127.46 2507.06,1130.55 2505.83,1134.93C2504.59,1139.31 2505.08,1143.79 2507.3,1148.36C2509.15,1152.19 2511.66,1154.73 2514.81,1155.99C2517.97,1157.24 2521.18,1157.08 2524.44,1155.5ZM2555.55,1147.74L2560.49,1145.35C2558.84,1152.56 2556.75,1158.06 2554.22,1161.85C2550.6,1167.21 2545.57,1171.45 2539.14,1174.56C2532.34,1177.85 2525.28,1179.28 2517.98,1178.85C2510.67,1178.42 2504.07,1176.2 2498.15,1172.19C2492.25,1168.18 2487.69,1162.88 2484.5,1156.29C2481.27,1149.61 2479.88,1142.6 2480.34,1135.28C2480.8,1127.96 2483.06,1121.35 2487.11,1115.45C2491.16,1109.56 2496.5,1105 2503.15,1101.79C2512.54,1097.24 2521.91,1096.41 2531.29,1099.3C2540.66,1102.19 2547.29,1107.63 2551.16,1115.62C2553.97,1121.43 2555.05,1127.1 2554.41,1132.61C2553.76,1138.13 2551.7,1143.16 2548.23,1147.72C2545.59,1151.23 2543.03,1153.58 2540.54,1154.78C2538.74,1155.66 2537.08,1155.87 2535.55,1155.41C2534.4,1155.09 2533.38,1154.05 2532.49,1152.29C2532.08,1154.14 2531.17,1155.96 2529.76,1157.76C2528.35,1159.56 2526.65,1160.93 2524.66,1161.9C2520.19,1164.06 2515.75,1164.31 2511.33,1162.62C2506.91,1160.94 2503.46,1157.55 2501,1152.45C2498.33,1146.94 2497.67,1141.07 2499.01,1134.81C2500.34,1128.56 2504.12,1123.93 2510.33,1120.92C2513.06,1119.6 2515.59,1119 2517.94,1119.13C2520.28,1119.26 2522.89,1120.2 2525.77,1121.95L2523.89,1114.93L2528.93,1112.49L2538.28,1145.58C2538.61,1146.65 2538.84,1147.33 2538.98,1147.61C2539.33,1148.34 2539.82,1148.8 2540.46,1149C2541.09,1149.2 2541.75,1149.14 2542.43,1148.8C2544.26,1147.92 2546.13,1145.7 2548.04,1142.15C2549.94,1138.59 2550.9,1134.75 2550.91,1130.62C2550.92,1126.49 2549.95,1122.38 2547.97,1118.31C2544.15,1110.41 2537.92,1105.35 2529.28,1103.12C2521.23,1101.07 2513.11,1102.03 2504.91,1106C2498.82,1108.95 2493.97,1113.01 2490.36,1118.19C2486.75,1123.38 2484.73,1129.19 2484.31,1135.63C2483.88,1142.08 2485.09,1148.23 2487.94,1154.11C2490.81,1160.05 2494.91,1164.83 2500.23,1168.45C2505.55,1172.07 2511.46,1174.08 2517.95,1174.46C2524.45,1174.85 2530.77,1173.55 2536.92,1170.57C2541.43,1168.39 2545.12,1165.61 2548,1162.21C2550.89,1158.82 2553.41,1154 2555.55,1147.74Z" style="fill:rgb(241,242,242);fill-rule:nonzero;"/>
    </g>
</svg>
