<?xml version="1.0" encoding="UTF-8" standalone="no"?>
<!DOCTYPE svg PUBLIC "-//W3C//DTD SVG 1.1//EN" "http://www.w3.org/Graphics/SVG/1.1/DTD/svg11.dtd">
<svg width="100%" height="100%" viewBox="0 0 3339 2712" version="1.1" xmlns="http://www.w3.org/2000/svg" xmlns:xlink="http://www.w3.org/1999/xlink" xml:space="preserve" xmlns:serif="http://www.serif.com/" style="fill-rule:evenodd;clip-rule:evenodd;stroke-linejoin:round;stroke-miterlimit:2;">
    <g transform="matrix(4.16667,0,0,4.16667,-625,-3854.52)">
        <g>
            <path d="M522.659,1526.74C514.031,1525.64 507.792,1518.85 507.8,1511.49C507.798,1509.89 507.89,1508.28 507.778,1506.65C507.646,1499.31 513.757,1492.38 522.383,1491.17L530.557,1490.14C529.63,1482.67 528.176,1475.28 526.232,1468.04L518.287,1470.19C509.807,1472.29 501.488,1468.21 498.901,1461.33L497.115,1456.81C494.267,1450.01 497.538,1441.34 505.162,1437.09L512.408,1433.19C508.863,1426.59 504.851,1420.22 500.415,1414.14L493.759,1418.99C486.645,1424 477.412,1423.17 472.501,1417.72C471.484,1416.47 470.295,1415.36 469.21,1414.17C464.163,1408.82 464.065,1399.57 469.587,1392.89L474.964,1386.6C469.305,1381.77 463.273,1377.28 456.871,1373.21L452.425,1380.16C447.621,1387.4 438.737,1389.99 432.152,1386.68L427.809,1384.52C421.099,1381.45 417.664,1372.83 420.432,1364.54L423.175,1356.77C415.986,1354.25 408.732,1352.24 401.461,1350.76L399.814,1358.85C397.933,1367.34 390.566,1372.92 383.256,1372.22C381.655,1372.03 380.046,1371.89 378.437,1371.81C371.114,1371.27 364.807,1364.52 364.368,1355.84L364.106,1347.6C356.569,1347.81 349.082,1348.59 341.701,1349.86L343.102,1357.96C344.436,1366.61 339.607,1374.5 332.499,1376.46L327.857,1377.8C320.824,1380.04 312.489,1375.99 308.942,1367.98L305.729,1360.42C298.814,1363.34 292.101,1366.76 285.651,1370.6L289.871,1377.68C294.199,1385.23 292.562,1394.37 286.631,1398.71C285.328,1399.67 284.089,1400.7 282.8,1401.69C277.022,1406.23 267.809,1405.47 261.631,1399.33L255.891,1393.42C250.542,1398.59 245.501,1404.2 240.852,1410.16L247.374,1415.25C254.13,1420.71 255.876,1429.78 251.987,1436.04C251.167,1437.41 250.225,1438.72 249.474,1440.17C245.755,1446.51 236.879,1449.15 228.883,1445.65L221.403,1442.22C220.367,1444.49 219.362,1446.8 218.413,1449.11C216.51,1453.8 214.864,1458.53 213.434,1463.29L221.316,1465.67C229.609,1468.33 234.466,1476.18 233.106,1483.42C232.727,1484.98 232.513,1486.57 232.252,1488.18C231.034,1495.41 223.723,1501.06 215.045,1500.69L206.789,1500.18C206.333,1507.74 206.397,1515.27 206.983,1522.69L215.213,1522.07C223.903,1521.53 231.316,1527.05 232.622,1534.32L233.526,1539.07C235.111,1546.25 230.279,1554.2 222.032,1556.98L214.188,1559.49C216.471,1566.66 219.25,1573.66 222.488,1580.42L229.912,1576.88C237.847,1573.24 246.809,1575.71 250.573,1582.05L253.176,1586.13C257.187,1592.3 255.588,1601.42 248.883,1606.99L242.466,1612.15C247.142,1617.98 252.243,1623.51 257.743,1628.69L263.421,1622.67C269.475,1616.45 278.674,1615.56 284.526,1620C285.795,1621.01 287.071,1621.98 288.41,1622.89C294.352,1627.19 296.195,1636.26 291.982,1643.87L287.86,1651.01C294.296,1654.71 301.034,1658.03 308.102,1660.9L311.196,1653.27C314.62,1645.2 322.905,1641.06 329.965,1643.15C331.513,1643.63 333.077,1644 334.641,1644.42C341.742,1646.31 346.69,1654.13 345.505,1662.73L344.227,1670.9C351.72,1672.07 359.217,1672.69 366.681,1672.8L366.812,1664.55C367.092,1655.88 373.283,1649 380.606,1648.35C382.206,1648.18 383.83,1648.1 385.417,1647.87C392.723,1647 400.188,1652.55 402.201,1660.97L403.977,1669.02C411.32,1667.4 418.552,1665.3 425.585,1662.69L422.732,1654.96C419.841,1646.71 423.128,1638.07 429.768,1634.86L434.081,1632.66C440.599,1629.21 449.525,1631.65 454.47,1638.85L459.018,1645.71C465.261,1641.58 471.233,1637 476.892,1632.02L471.432,1625.81C465.781,1619.19 465.773,1609.99 470.729,1604.57C471.876,1603.42 472.894,1602.17 473.955,1600.95C478.807,1595.44 488,1594.46 495.177,1599.34L501.933,1604.12C506.212,1598.04 510.117,1591.63 513.611,1584.85L506.29,1581.07C498.61,1576.95 495.185,1568.33 497.948,1561.47L499.649,1556.94C502.161,1549.99 510.405,1545.81 518.88,1547.78L526.883,1549.79C528.744,1542.43 530.076,1535.05 530.878,1527.63L522.659,1526.74Z" style="fill:rgb(237,28,36);fill-rule:nonzero;"/>
            <path d="M609.516,1224.02C567.356,1236.44 521.83,1214.14 505.875,1173.26C504.985,1170.97 504.176,1168.61 503.478,1166.24C497.031,1144.36 499.491,1121.28 510.404,1101.25C521.317,1081.22 539.377,1066.64 561.26,1060.2C603.42,1047.77 648.949,1070.07 664.908,1110.96C665.8,1113.25 666.604,1115.61 667.299,1117.97C680.601,1163.14 654.68,1210.71 609.516,1224.02ZM718.418,1096.79C710.781,1094.98 703.048,1093.8 695.407,1093.26L693.135,1093.1L692.148,1091.05C685.601,1077.35 676.655,1065.23 665.56,1055.02L663.885,1053.47L664.401,1051.25C666.14,1043.77 667.268,1036.04 667.766,1028.22C651.506,1016.45 632.549,1008.2 612.689,1004.24C607.257,1009.98 602.357,1016.07 598.094,1022.38L596.813,1024.26L594.542,1024.08C579.495,1022.9 564.525,1024.6 550.063,1029.14L547.887,1029.83L546.215,1028.27C540.618,1023.04 534.481,1018.2 527.953,1013.85C509.474,1022.12 492.839,1034.41 479.619,1049.53C481.848,1057.05 484.685,1064.35 488.041,1071.22L489.043,1073.27L487.753,1075.15C481.575,1084.18 476.667,1094.05 473.167,1104.48C471.876,1108.36 470.768,1112.31 469.881,1116.23L469.375,1118.45L467.201,1119.11C459.822,1121.35 452.555,1124.23 445.567,1127.69C443.47,1147.71 445.806,1168.27 452.342,1187.42C460.002,1189.23 467.732,1190.42 475.361,1190.95L477.64,1191.11L478.622,1193.17C485.15,1206.83 494.095,1218.95 505.208,1229.19L506.884,1230.74L506.368,1232.96C504.644,1240.37 503.516,1248.11 503.005,1256C519.26,1267.76 538.224,1276.01 558.087,1279.97C563.482,1274.28 568.378,1268.18 572.673,1261.84L573.95,1259.95L576.226,1260.13C591.275,1261.31 606.241,1259.61 620.711,1255.07L622.888,1254.38L624.558,1255.94C630.134,1261.15 636.271,1266 642.817,1270.36C661.288,1262.09 677.926,1249.81 691.157,1234.68C688.925,1227.17 686.086,1219.87 682.726,1212.99L681.72,1210.94L683.009,1209.05C689.182,1200.05 694.091,1190.18 697.596,1179.73C698.896,1175.86 699.999,1171.91 700.876,1168L701.374,1165.77L703.559,1165.1C710.906,1162.87 718.178,1159.99 725.204,1156.52C727.294,1136.5 724.958,1115.94 718.418,1096.79Z" style="fill:rgb(167,177,56);fill-rule:nonzero;"/>
            <path d="M326.283,1157.4C323.958,1178.29 305.148,1193.35 284.251,1191.03C263.356,1188.71 248.297,1169.89 250.622,1149C252.935,1128.11 271.753,1113.05 292.648,1115.37C313.543,1117.68 328.6,1136.5 326.283,1157.4ZM335.137,1162.13C335.625,1159.66 338.186,1157.79 341.153,1158L343.978,1158.25C344.21,1155.66 344.248,1153.08 344.119,1150.53L341.293,1150.67C338.318,1150.77 335.828,1148.81 335.436,1146.32C335.342,1145.78 335.277,1145.22 335.166,1144.68C334.701,1142.2 336.427,1139.52 339.262,1138.64L341.978,1137.86C341.257,1135.38 340.369,1132.95 339.322,1130.61L336.741,1131.76C333.983,1132.94 330.951,1132.01 329.702,1129.81L328.851,1128.38C327.524,1126.23 328.157,1123.12 330.508,1121.27L332.753,1119.56C331.196,1117.51 329.493,1115.57 327.662,1113.75L325.662,1115.76C323.525,1117.85 320.378,1118.06 318.411,1116.48C317.991,1116.12 317.541,1115.8 317.099,1115.46C315.104,1113.93 314.561,1110.81 316.065,1108.24L317.547,1105.82C315.37,1104.5 313.087,1103.31 310.691,1102.27L309.564,1104.86C308.332,1107.58 305.46,1108.94 303.048,1108.15L301.462,1107.68C299.028,1106.98 297.407,1104.25 297.89,1101.31L298.396,1098.52C295.836,1098.05 293.28,1097.77 290.728,1097.66L290.605,1100.49C290.428,1103.47 288.246,1105.76 285.729,1105.92C285.181,1105.96 284.627,1105.96 284.074,1106.04C281.563,1106.25 279.057,1104.32 278.447,1101.4L277.908,1098.62C275.375,1099.11 272.88,1099.77 270.446,1100.6L271.359,1103.27C272.274,1106.13 271.068,1109.07 268.771,1110.11L267.267,1110.82C265.006,1111.95 261.966,1111.03 260.338,1108.52L258.841,1106.13C256.663,1107.49 254.572,1109 252.595,1110.66L254.406,1112.83C256.282,1115.15 256.209,1118.32 254.454,1120.13C254.053,1120.5 253.699,1120.94 253.316,1121.34C251.599,1123.18 248.438,1123.43 246.026,1121.69L243.754,1119.99C242.231,1122.04 240.832,1124.21 239.583,1126.49L242.064,1127.85C244.648,1129.33 245.738,1132.31 244.754,1134.64L244.115,1136.17C243.217,1138.54 240.346,1139.91 237.448,1139.15L234.728,1138.39C234.027,1140.9 233.505,1143.43 233.167,1145.95L235.971,1146.33C238.917,1146.78 240.993,1149.17 240.921,1151.69C240.894,1152.25 240.88,1152.8 240.89,1153.35C240.87,1155.87 238.706,1158.18 235.746,1158.53L232.933,1158.8C233.176,1161.38 233.615,1163.92 234.216,1166.42L236.957,1165.75C239.882,1165.1 242.69,1166.57 243.525,1168.96L244.09,1170.52C245.016,1172.87 243.817,1175.81 241.16,1177.21L238.645,1178.48C239.802,1180.78 241.124,1183 242.587,1185.12L244.91,1183.51C247.394,1181.86 250.559,1182.21 252.177,1184.14C252.539,1184.56 252.918,1184.96 253.285,1185.38C254.971,1187.26 254.919,1190.43 252.96,1192.68L251.068,1194.78C252.96,1196.49 254.991,1198.09 257.138,1199.54L258.73,1197.19C260.444,1194.76 263.507,1193.96 265.736,1195.14C266.223,1195.39 266.694,1195.69 267.205,1195.91C269.459,1197.04 270.566,1200.01 269.55,1202.83L268.546,1205.47C269.345,1205.77 270.159,1206.06 270.969,1206.33C272.619,1206.88 274.272,1207.33 275.937,1207.71L276.57,1204.96C277.291,1202.06 279.866,1200.22 282.371,1200.53C282.916,1200.62 283.464,1200.66 284.023,1200.71C286.522,1200.96 288.62,1203.33 288.689,1206.31L288.706,1209.15C291.301,1209.13 293.875,1208.94 296.401,1208.57L296,1205.77C295.618,1202.81 297.34,1200.15 299.797,1199.53L301.398,1199.12C303.821,1198.41 306.65,1199.88 307.789,1202.64L308.824,1205.27C311.225,1204.32 313.557,1203.21 315.797,1201.95L314.416,1199.49C312.989,1196.86 313.632,1193.74 315.715,1192.31L317.051,1191.32C319.073,1189.81 322.226,1190.15 324.284,1192.32L326.196,1194.39C328.083,1192.66 329.86,1190.79 331.504,1188.79L329.315,1186.99C327.051,1185.06 326.538,1181.93 327.924,1179.83C328.241,1179.37 328.542,1178.91 328.827,1178.44C330.161,1176.31 333.221,1175.47 335.92,1176.74L338.46,1177.98C339.578,1175.7 340.558,1173.32 341.378,1170.83L338.699,1169.95C335.859,1168.96 334.256,1166.22 334.81,1163.76C334.94,1163.22 335.029,1162.68 335.137,1162.13Z" style="fill:rgb(180,29,142);fill-rule:nonzero;"/>
            <path d="M855.369,1237.51C855.171,1239.37 854.889,1241.25 854.529,1243.09C847.686,1278.33 813.453,1301.43 778.219,1294.6C745.328,1288.21 722.34,1257.15 725.884,1223.88C726.084,1222.02 726.365,1220.14 726.725,1218.29C730.038,1201.22 739.799,1186.46 754.21,1176.73C768.622,1167.01 785.96,1163.48 803.031,1166.79C835.924,1173.17 858.914,1204.24 855.369,1237.51ZM866.955,1235.31L865.72,1234.55L865.765,1233.1C866.074,1223.47 864.573,1214.02 861.303,1205.01L860.809,1203.65L861.751,1202.55C864.917,1198.84 867.816,1194.81 870.382,1190.54C864.651,1179.15 856.372,1168.96 846.329,1160.92C841.589,1162.56 837.043,1164.57 832.796,1166.88L831.521,1167.57L830.293,1166.8C822.151,1161.74 813.212,1158.32 803.727,1156.65L802.299,1156.4L801.813,1155.04C800.185,1150.45 798.139,1145.93 795.729,1141.56C782.889,1140.83 769.916,1142.89 758.038,1147.55C757.097,1152.45 756.562,1157.4 756.445,1162.25L756.412,1163.7L755.134,1164.39C749.011,1167.67 743.36,1171.8 738.334,1176.66C736.472,1178.47 734.691,1180.38 733.045,1182.33L732.113,1183.43L730.692,1183.17C725.875,1182.28 720.934,1181.78 715.982,1181.68C708.945,1192.36 704.254,1204.64 702.343,1217.35C706.133,1220.61 710.145,1223.54 714.292,1226.07L715.531,1226.83L715.483,1228.28C715.169,1237.89 716.671,1247.34 719.945,1256.37L720.439,1257.73L719.499,1258.83C716.359,1262.51 713.46,1266.54 710.865,1270.84C716.597,1282.23 724.879,1292.42 734.925,1300.46C739.631,1298.83 744.175,1296.83 748.452,1294.5L749.724,1293.81L750.954,1294.58C759.097,1299.64 768.035,1303.06 777.525,1304.73L778.952,1304.98L779.438,1306.35C781.06,1310.91 783.105,1315.44 785.521,1319.82C798.356,1320.55 811.332,1318.49 823.215,1313.83C824.153,1308.94 824.686,1303.99 824.801,1299.13L824.833,1297.67L826.112,1296.99C832.228,1293.71 837.879,1289.58 842.912,1284.71C844.777,1282.91 846.553,1281.01 848.192,1279.06L849.124,1277.94L850.552,1278.21C855.346,1279.1 860.291,1279.6 865.268,1279.7C872.299,1269.02 876.992,1256.74 878.902,1244.02C875.124,1240.77 871.11,1237.84 866.955,1235.31Z" style="fill:rgb(203,188,45);fill-rule:nonzero;"/>
            <path d="M882.066,1353.62C877.696,1352.77 873.258,1353.68 869.568,1356.17C865.879,1358.66 863.38,1362.43 862.532,1366.8C862.44,1367.28 862.368,1367.76 862.317,1368.24C861.409,1376.75 867.295,1384.7 875.715,1386.34C884.734,1388.09 893.498,1382.17 895.25,1373.15C895.342,1372.68 895.415,1372.2 895.465,1371.72C896.373,1363.21 890.487,1355.25 882.066,1353.62Z" style="fill:rgb(216,217,218);fill-rule:nonzero;"/>
            <path d="M920.326,1374.35C920.2,1375.54 920.019,1376.74 919.789,1377.92C915.409,1400.47 893.5,1415.26 870.95,1410.88C849.9,1406.79 835.187,1386.91 837.456,1365.62C837.583,1364.43 837.763,1363.23 837.994,1362.04C840.114,1351.12 846.361,1341.67 855.584,1335.45C864.808,1329.22 875.904,1326.96 886.83,1329.09C907.881,1333.17 922.595,1353.05 920.326,1374.35ZM933.169,1373.26L932.292,1372.73L932.323,1371.7C932.543,1364.84 931.476,1358.12 929.15,1351.72L928.799,1350.75L929.469,1349.97C931.72,1347.33 933.782,1344.46 935.606,1341.43C931.531,1333.33 925.644,1326.08 918.501,1320.36C915.131,1321.53 911.899,1322.96 908.878,1324.6L907.972,1325.09L907.098,1324.55C901.309,1320.95 894.952,1318.52 888.207,1317.33L887.191,1317.15L886.846,1316.18C885.688,1312.92 884.233,1309.7 882.52,1306.6C873.388,1306.08 864.163,1307.54 855.716,1310.86C855.047,1314.34 854.667,1317.86 854.584,1321.31L854.561,1322.34L853.652,1322.83C849.298,1325.17 845.279,1328.1 841.705,1331.56C840.38,1332.85 839.114,1334.2 837.944,1335.59L837.281,1336.37L836.27,1336.19C832.845,1335.55 829.332,1335.2 825.81,1335.13C820.806,1342.72 817.47,1351.46 816.111,1360.49C818.806,1362.81 821.659,1364.9 824.608,1366.7L825.489,1367.23L825.455,1368.26C825.232,1375.1 826.3,1381.82 828.628,1388.24L828.979,1389.21L828.311,1389.99C826.078,1392.61 824.016,1395.48 822.171,1398.53C826.248,1406.63 832.137,1413.88 839.281,1419.6C842.627,1418.44 845.858,1417.01 848.9,1415.36L849.805,1414.87L850.679,1415.41C856.47,1419.02 862.826,1421.44 869.574,1422.63L870.589,1422.81L870.935,1423.78C872.088,1427.03 873.542,1430.25 875.261,1433.36C884.388,1433.88 893.615,1432.42 902.065,1429.1C902.732,1425.62 903.111,1422.1 903.193,1418.65L903.216,1417.61L904.125,1417.13C908.474,1414.8 912.493,1411.86 916.072,1408.4C917.398,1407.11 918.662,1405.76 919.827,1404.38L920.489,1403.58L921.505,1403.77C924.914,1404.4 928.43,1404.76 931.97,1404.83C936.97,1397.23 940.308,1388.5 941.666,1379.46C938.979,1377.15 936.124,1375.07 933.169,1373.26Z" style="fill:rgb(216,217,218);fill-rule:nonzero;"/>
            <path d="M189.848,1093.12C189.584,1093.42 189.304,1093.71 189.015,1093.99C183.483,1099.26 174.694,1099.05 169.421,1093.52C164.499,1088.36 164.336,1080.14 169.051,1074.8C169.315,1074.5 169.596,1074.21 169.886,1073.93C172.565,1071.38 176.078,1070.02 179.778,1070.1C183.479,1070.19 186.924,1071.72 189.478,1074.39C194.401,1079.56 194.563,1087.78 189.848,1093.12ZM179.997,1060.87C173.829,1060.72 167.975,1062.99 163.51,1067.24C163.026,1067.71 162.558,1068.19 162.118,1068.69C154.259,1077.59 154.53,1091.29 162.734,1099.9C171.522,1109.11 186.172,1109.46 195.391,1100.67C195.873,1100.21 196.34,1099.73 196.78,1099.23C204.639,1090.33 204.369,1076.62 196.164,1068.02C191.905,1063.55 186.165,1061.02 179.997,1060.87Z" style="fill:rgb(216,217,218);fill-rule:nonzero;"/>
            <path d="M208.333,1109.41C207.6,1110.24 206.821,1111.05 206.017,1111.82C190.653,1126.46 166.237,1125.89 151.589,1110.53C137.916,1096.19 137.465,1073.34 150.562,1058.51C151.296,1057.68 152.077,1056.87 152.883,1056.1C160.324,1049.01 170.082,1045.23 180.361,1045.48C190.641,1045.72 200.208,1049.95 207.306,1057.39C220.98,1071.73 221.431,1094.58 208.333,1109.41ZM240.344,1066.47C236.924,1065.48 233.471,1064.77 230.063,1064.36L229.043,1064.24L228.646,1063.29C226.016,1057.01 222.247,1051.36 217.442,1046.5L216.721,1045.77L217,1044.78C217.941,1041.46 218.618,1038 219.015,1034.48C211.889,1028.78 203.533,1024.65 194.745,1022.47C192.19,1024.91 189.847,1027.56 187.785,1030.32L187.17,1031.14L186.149,1031.01C181.257,1030.4 176.291,1030.47 171.385,1031.22C169.565,1031.5 167.752,1031.87 165.999,1032.32L165.006,1032.58L164.291,1031.84C161.869,1029.35 159.215,1027.03 156.39,1024.94C147.931,1028.23 140.172,1033.4 133.846,1039.97C134.697,1043.42 135.816,1046.76 137.177,1049.93L137.583,1050.88L136.96,1051.7C132.828,1057.13 129.815,1063.21 128.001,1069.78L127.729,1070.77L126.731,1071.02C123.404,1071.86 120.068,1073 116.802,1074.43C115.441,1083.37 116.046,1092.67 118.556,1101.45C121.949,1102.44 125.401,1103.15 128.83,1103.56L129.851,1103.68L130.248,1104.63C132.878,1110.91 136.647,1116.55 141.453,1121.42L142.177,1122.15L141.894,1123.14C140.957,1126.45 140.281,1129.91 139.881,1133.43C147.005,1139.13 155.36,1143.27 164.153,1145.45C166.704,1143.01 169.045,1140.36 171.109,1137.6L171.723,1136.77L172.747,1136.9C177.629,1137.52 182.597,1137.45 187.509,1136.7C189.329,1136.42 191.14,1136.05 192.889,1135.59L193.884,1135.33L194.603,1136.07C197.011,1138.56 199.667,1140.88 202.506,1142.98C210.962,1139.69 218.723,1134.51 225.05,1127.94C224.2,1124.5 223.081,1121.16 221.718,1117.99L221.313,1117.04L221.934,1116.22C226.072,1110.77 229.086,1104.69 230.894,1098.14L231.166,1097.15L232.164,1096.89C235.521,1096.05 238.855,1094.91 242.092,1093.49C243.452,1084.55 242.852,1075.25 240.344,1066.47Z" style="fill:rgb(216,217,218);fill-rule:nonzero;"/>
            <path d="M780.851,1526.92L778.207,1525.26L778.337,1522.15C779.182,1501.54 776.091,1481.19 769.156,1461.68L768.11,1458.74L770.151,1456.38C777.003,1448.47 783.303,1439.84 788.915,1430.71C776.675,1405.9 759.05,1383.81 737.728,1366.53C727.574,1369.96 717.744,1374.21 708.536,1379.14L705.789,1380.61L703.153,1378.95C690.513,1370.97 676.79,1364.77 662.363,1360.53C657.003,1358.96 651.549,1357.65 646.15,1356.64L643.1,1356.06L642.082,1353.13C638.644,1343.17 634.337,1333.39 629.263,1324.02C601.816,1322.18 573.868,1326.42 548.055,1336.33C545.968,1346.88 544.742,1357.49 544.406,1367.94L544.307,1371.06L541.542,1372.5C523.216,1382.11 507.125,1394.95 493.709,1410.65L491.685,1413.01L488.625,1412.42C478.416,1410.45 467.788,1409.3 456.993,1409C441.769,1431.8 431.474,1458.12 427.083,1485.44C435.127,1492.52 443.694,1498.89 452.577,1504.43L455.222,1506.08L455.097,1509.19C454.247,1529.8 457.337,1550.15 464.282,1569.68L465.323,1572.61L463.276,1574.97C456.451,1582.85 450.148,1591.48 444.521,1600.64C456.761,1625.44 474.38,1647.53 495.708,1664.83C505.85,1661.4 515.675,1657.15 524.9,1652.21L527.645,1650.73L530.288,1652.39C542.899,1660.36 556.621,1666.56 571.072,1670.81C576.425,1672.39 581.87,1673.69 587.259,1674.69L590.329,1675.26L591.349,1678.21C594.768,1688.12 599.074,1697.91 604.173,1707.32C631.613,1709.16 659.57,1704.92 685.384,1695.01C687.462,1684.49 688.688,1673.87 689.025,1663.41L689.129,1660.3L691.886,1658.84C710.245,1649.2 726.341,1636.37 739.723,1620.7L741.747,1618.33L744.811,1618.93C755.11,1620.92 765.73,1622.07 776.432,1622.34C791.663,1599.54 801.965,1573.24 806.359,1545.92C798.249,1538.79 789.679,1532.42 780.851,1526.92Z" style="fill:rgb(245,130,31);fill-rule:nonzero;"/>
            <path d="M471.432,1625.81C465.781,1619.19 465.773,1609.99 470.729,1604.57C471.876,1603.42 472.894,1602.17 473.955,1600.95C478.807,1595.44 488,1594.46 495.177,1599.34L501.933,1604.12C506.212,1598.04 510.117,1591.63 513.611,1584.85L506.29,1581.07C498.61,1576.95 495.185,1568.33 497.948,1561.47L499.649,1556.94C502.161,1549.99 510.405,1545.81 518.88,1547.78L526.883,1549.79C528.744,1542.43 530.076,1535.05 530.878,1527.63L522.659,1526.74C514.031,1525.64 507.792,1518.85 507.8,1511.49C507.798,1509.89 507.89,1508.28 507.778,1506.65C507.646,1499.31 513.757,1492.38 522.383,1491.17L530.557,1490.14C529.63,1482.67 528.176,1475.28 526.232,1468.04L518.287,1470.19C509.807,1472.29 501.488,1468.21 498.901,1461.33L497.115,1456.81C494.267,1450.01 497.538,1441.34 505.162,1437.09L512.408,1433.19C508.863,1426.59 504.851,1420.22 500.415,1414.14L493.759,1418.99C486.645,1424 477.412,1423.17 472.501,1417.72C471.484,1416.47 470.295,1415.36 469.21,1414.17C467.938,1412.82 466.983,1411.22 466.351,1409.49C463.249,1409.26 460.129,1409.09 456.993,1409C441.769,1431.8 431.474,1458.12 427.083,1485.44C435.127,1492.52 443.694,1498.89 452.577,1504.43L455.222,1506.08L455.097,1509.19C454.247,1529.8 457.337,1550.15 464.282,1569.68L465.323,1572.61L463.276,1574.97C456.451,1582.85 450.148,1591.48 444.521,1600.64C451.197,1614.17 459.484,1626.88 469.09,1638.46C471.749,1636.39 474.356,1634.25 476.892,1632.02L471.432,1625.81Z" style="fill:rgb(242,97,34);fill-rule:nonzero;"/>
            <path d="M592.031,1232.83C585.412,1231.98 580.624,1226.77 580.631,1221.13C580.631,1219.9 580.702,1218.66 580.613,1217.41C580.513,1211.78 585.202,1206.47 591.819,1205.54L598.091,1204.75C597.38,1199.02 596.264,1193.35 594.774,1187.79L588.679,1189.44C582.171,1191.05 575.788,1187.92 573.803,1182.64L572.433,1179.17C570.249,1173.96 572.755,1167.31 578.605,1164.04L584.167,1161.06C581.448,1155.99 578.37,1151.1 574.964,1146.44L569.857,1150.16C564.399,1154 557.316,1153.36 553.546,1149.18C552.766,1148.23 551.855,1147.37 551.022,1146.46C547.148,1142.35 547.074,1135.26 551.313,1130.13L555.436,1125.31C551.097,1121.6 546.468,1118.15 541.555,1115.03L538.145,1120.36C534.46,1125.92 527.642,1127.91 522.586,1125.37L519.258,1123.71C514.111,1121.35 511.474,1114.74 513.598,1108.38L515.701,1102.42C510.187,1100.48 504.62,1098.94 499.042,1097.81L497.779,1104.01C496.335,1110.53 490.684,1114.81 485.076,1114.27C483.847,1114.13 482.611,1114.02 481.378,1113.96C475.758,1113.54 470.92,1108.36 470.581,1101.7L470.381,1095.38C464.6,1095.54 458.854,1096.14 453.193,1097.11L454.268,1103.33C455.291,1109.96 451.584,1116.02 446.132,1117.53L442.571,1118.55C437.174,1120.27 430.779,1117.17 428.058,1111.02L425.591,1105.21C420.287,1107.46 415.134,1110.08 410.188,1113.03L413.425,1118.46C416.747,1124.25 415.49,1131.27 410.939,1134.59C409.94,1135.34 408.988,1136.12 408,1136.88C403.565,1140.37 396.498,1139.78 391.76,1135.07L387.354,1130.54C383.251,1134.51 379.383,1138.8 375.813,1143.38L380.82,1147.29C386.003,1151.47 387.343,1158.44 384.358,1163.24C383.729,1164.29 383.006,1165.29 382.43,1166.4C379.578,1171.27 372.766,1173.3 366.631,1170.61L360.894,1167.98C360.1,1169.72 359.328,1171.49 358.599,1173.26C357.139,1176.87 355.876,1180.49 354.779,1184.15L360.827,1185.98C367.19,1188.01 370.917,1194.03 369.873,1199.59C369.58,1200.79 369.417,1202 369.217,1203.24C368.281,1208.79 362.674,1213.13 356.015,1212.84L349.682,1212.45C349.332,1218.25 349.379,1224.02 349.831,1229.72L356.144,1229.24C362.812,1228.83 368.499,1233.07 369.501,1238.64L370.194,1242.28C371.412,1247.8 367.704,1253.9 361.375,1256.03L355.356,1257.95C357.109,1263.46 359.242,1268.83 361.727,1274.02L367.421,1271.29C373.51,1268.5 380.387,1270.4 383.272,1275.26L385.271,1278.39C388.348,1283.13 387.121,1290.13 381.978,1294.4L377.055,1298.36C380.641,1302.83 384.556,1307.08 388.774,1311.05L393.131,1306.43C397.775,1301.65 404.834,1300.97 409.327,1304.38C410.299,1305.15 411.278,1305.9 412.305,1306.6C416.862,1309.9 418.276,1316.86 415.046,1322.7L411.882,1328.18C416.821,1331.02 421.99,1333.56 427.413,1335.76L429.788,1329.91C432.414,1323.71 438.772,1320.54 444.187,1322.14C445.374,1322.51 446.575,1322.79 447.774,1323.12C453.222,1324.57 457.019,1330.57 456.11,1337.16L455.131,1343.43C460.879,1344.33 466.633,1344.81 472.36,1344.89L472.457,1338.56C472.672,1331.91 477.423,1326.63 483.043,1326.13C484.271,1326 485.515,1325.94 486.731,1325.77C492.34,1325.09 498.066,1329.35 499.61,1335.81L500.972,1341.99C506.605,1340.75 512.156,1339.13 517.552,1337.13L515.362,1331.21C513.145,1324.87 515.667,1318.24 520.76,1315.78L524.07,1314.09C529.069,1311.44 535.919,1313.32 539.714,1318.84L543.201,1324.11C547.993,1320.94 552.578,1317.42 556.917,1313.6L552.728,1308.84C548.394,1303.76 548.387,1296.7 552.189,1292.54C553.069,1291.66 553.85,1290.7 554.661,1289.76C558.386,1285.53 565.439,1284.79 570.946,1288.53L576.129,1292.2C579.414,1287.53 582.408,1282.61 585.09,1277.41L579.473,1274.51C573.58,1271.35 570.953,1264.74 573.071,1259.47L574.378,1256C576.304,1250.67 582.629,1247.46 589.132,1248.97L595.273,1250.51C596.7,1244.87 597.722,1239.2 598.338,1233.51L592.031,1232.83Z" style="fill:rgb(255,207,1);fill-rule:nonzero;"/>
            <path d="M574.378,1256C576.304,1250.67 582.629,1247.46 589.132,1248.97L595.273,1250.51C596.7,1244.87 597.722,1239.2 598.338,1233.51L592.031,1232.83C588.032,1232.32 584.711,1230.21 582.702,1227.38C549.47,1226.19 518.465,1205.52 505.875,1173.26C504.985,1170.97 504.176,1168.61 503.478,1166.24C497.031,1144.36 499.491,1121.28 510.404,1101.25C510.491,1101.09 510.587,1100.94 510.674,1100.78C506.812,1099.6 502.93,1098.6 499.042,1097.81L497.779,1104.01C496.335,1110.53 490.684,1114.81 485.076,1114.27C483.847,1114.13 482.611,1114.02 481.378,1113.96C477.567,1113.67 474.12,1111.2 472.187,1107.56C471.309,1110.44 470.534,1113.34 469.881,1116.23L469.375,1118.45L467.201,1119.11C459.822,1121.35 452.555,1124.23 445.567,1127.69C443.47,1147.71 445.806,1168.27 452.342,1187.42C460.002,1189.23 467.732,1190.42 475.361,1190.95L477.64,1191.11L478.622,1193.17C485.15,1206.83 494.095,1218.95 505.208,1229.19L506.884,1230.74L506.368,1232.96C504.644,1240.37 503.516,1248.11 503.005,1256C519.26,1267.76 538.224,1276.01 558.087,1279.97C563.376,1274.39 568.178,1268.42 572.411,1262.21C572.507,1261.28 572.717,1260.35 573.071,1259.47L574.378,1256Z" style="fill:rgb(192,192,48);fill-rule:nonzero;"/>
            <path d="M295.387,1363.38L296.186,1361.26C300.041,1351.17 302.483,1340.53 303.451,1329.63C303.812,1325.59 303.968,1321.52 303.911,1317.54L303.879,1315.27L305.818,1314.14C312.341,1310.35 318.645,1305.94 324.578,1301.03C322.006,1281.17 315.07,1261.78 304.434,1244.68C296.711,1244.63 289.041,1245.2 281.601,1246.38L279.391,1246.73L277.977,1244.96C268.578,1233.15 257.249,1223.4 244.295,1215.96L242.336,1214.84L242.324,1212.57C242.278,1204.94 241.593,1197.2 240.278,1189.52C222.029,1181.74 201.995,1177.95 182.082,1178.52C178.191,1185.28 174.893,1192.27 172.252,1199.32L171.457,1201.44L169.243,1201.77C154.567,1203.96 140.63,1208.93 127.822,1216.54L125.894,1217.69L123.937,1216.55C117.388,1212.73 110.406,1209.4 103.16,1206.63C87.361,1218.75 74.243,1234.33 65.041,1251.91C68.897,1258.7 73.28,1265.15 78.064,1271.05L79.491,1272.81L78.682,1274.92C74.833,1285.04 72.387,1295.68 71.422,1306.56C71.072,1310.61 70.914,1314.68 70.96,1318.67L70.983,1320.93L69.052,1322.05C62.503,1325.86 56.202,1330.27 50.301,1335.17C52.867,1355.02 59.804,1374.41 70.434,1391.51C78.185,1391.56 85.853,1391 93.277,1389.82L95.495,1389.46L96.908,1391.24C106.278,1403.03 117.607,1412.78 130.584,1420.23L132.544,1421.35L132.558,1423.62C132.602,1431.18 133.29,1438.93 134.602,1446.68C152.851,1454.46 172.885,1458.24 192.804,1457.66C196.671,1450.96 199.965,1443.97 202.625,1436.87L203.417,1434.76L205.636,1434.43C220.313,1432.23 234.249,1427.26 247.064,1419.65L248.992,1418.5L250.945,1419.65C257.475,1423.45 264.457,1426.78 271.72,1429.56C287.512,1417.45 300.633,1401.86 309.842,1384.27C305.992,1377.5 301.604,1371.05 296.815,1365.14L295.387,1363.38Z" style="fill:rgb(200,29,110);fill-rule:nonzero;"/>
        </g>
    </g>
    <g transform="matrix(4.16667,0,0,4.16667,-625,-3854.52)">
        <path d="M215.991,1289.69L215.479,1293.55C226.256,1294.99 235.756,1302.54 239.129,1313.6C242.707,1325.33 238.351,1337.63 229.147,1344.7L231.519,1347.79C241.973,1339.76 246.922,1325.8 242.858,1312.46C239.026,1299.9 228.234,1291.33 215.991,1289.69Z" style="fill:rgb(241,242,242);fill-rule:nonzero;"/>
    </g>
    <g transform="matrix(4.16667,0,0,4.16667,-625,-3854.52)">
        <path d="M235.4,1314.74C232.486,1305.18 224.279,1298.66 214.968,1297.42L214.457,1301.28C222.301,1302.33 229.216,1307.82 231.671,1315.87C234.274,1324.42 231.104,1333.37 224.405,1338.51L226.776,1341.6C234.728,1335.5 238.491,1324.88 235.4,1314.74Z" style="fill:rgb(241,242,242);fill-rule:nonzero;"/>
    </g>
    <g transform="matrix(4.16667,0,0,4.16667,-625,-3854.52)">
        <path d="M227.942,1317.01C225.946,1310.46 220.323,1306 213.945,1305.15L213.434,1309.01C218.348,1309.66 222.672,1313.09 224.212,1318.15C225.846,1323.51 223.864,1329.1 219.664,1332.32L222.034,1335.42C227.481,1331.23 230.06,1323.96 227.942,1317.01Z" style="fill:rgb(241,242,242);fill-rule:nonzero;"/>
    </g>
    <g transform="matrix(4.16667,0,0,4.16667,-625,-3854.52)">
        <path d="M189.006,1345.62L214.376,1359.49C215.454,1360.08 216.861,1359.95 217.814,1359.17C218.794,1358.37 219.189,1357.08 218.821,1355.87L198.948,1290.68C198.58,1289.47 197.528,1288.61 196.271,1288.5C195.043,1288.39 193.808,1289.06 193.24,1290.16L179.917,1315.83L178.996,1316.08L167.586,1319.56C164.304,1320.56 162.447,1324.04 163.447,1327.32L168.915,1345.26C169.916,1348.54 173.399,1350.4 176.682,1349.4L189.006,1345.62ZM217.874,1363.37C216.11,1363.91 214.171,1363.71 212.553,1362.83L188.61,1349.74L177.792,1353.03C172.502,1354.65 166.889,1351.66 165.276,1346.37L159.809,1328.43C158.197,1323.15 161.188,1317.53 166.477,1315.92L177.295,1312.62L189.865,1288.4C190.715,1286.77 192.214,1285.52 193.978,1284.98C194.836,1284.72 195.723,1284.63 196.618,1284.71C199.422,1284.97 201.765,1286.88 202.586,1289.57L222.459,1354.76C223.281,1357.45 222.4,1360.34 220.216,1362.12C219.521,1362.69 218.732,1363.11 217.874,1363.37Z" style="fill:rgb(241,242,242);fill-rule:nonzero;"/>
    </g>
    <g transform="matrix(4.16667,0,0,4.16667,-625,-3854.52)">
        <path d="M544.219,1535.45C540.616,1536.02 536.96,1536.35 533.354,1536.43L531.835,1536.47L531.406,1537.92C528.597,1547.44 521.914,1555.13 513.096,1559.25C515.195,1553.98 516.161,1548.3 515.909,1542.58C515.81,1540.33 515.52,1538.07 515.044,1535.86L514.771,1534.59L513.516,1534.27C492.792,1529.09 478.251,1515.36 475.569,1498.45C471.483,1472.69 495.631,1447.38 529.4,1442.02C563.168,1436.66 593.963,1453.26 598.049,1479.02C602.135,1504.78 577.988,1530.09 544.219,1535.45ZM528.749,1437.92C492.716,1443.63 467.018,1471.08 471.463,1499.1C474.354,1517.33 489.536,1532.13 511.224,1537.97C511.506,1539.56 511.684,1541.17 511.756,1542.76C512.052,1549.5 510.471,1556.15 507.182,1562.01L504.664,1566.49L509.591,1565.02C521.576,1561.43 530.953,1552.34 534.938,1540.54C538.244,1540.41 541.578,1540.08 544.871,1539.55C580.902,1533.84 606.601,1506.39 602.155,1478.37C597.711,1450.35 564.781,1432.2 528.749,1437.92Z" style="fill:rgb(241,242,242);fill-rule:nonzero;"/>
    </g>
    <g transform="matrix(4.16667,0,0,4.16667,-625,-3854.52)">
        <path d="M506.351,1503.28C503.613,1503.71 501.744,1506.29 502.179,1509.02C502.613,1511.76 505.186,1513.63 507.924,1513.2C510.662,1512.76 512.529,1510.19 512.094,1507.45C511.661,1504.71 509.088,1502.85 506.351,1503.28Z" style="fill:rgb(241,242,242);fill-rule:nonzero;"/>
    </g>
    <g transform="matrix(4.16667,0,0,4.16667,-625,-3854.52)">
        <path d="M522.2,1500.77C519.461,1501.2 517.593,1503.77 518.026,1506.51C518.461,1509.25 521.034,1511.12 523.773,1510.68C526.511,1510.25 528.379,1507.67 527.944,1504.94C527.51,1502.2 524.938,1500.33 522.2,1500.77Z" style="fill:rgb(241,242,242);fill-rule:nonzero;"/>
    </g>
    <g transform="matrix(4.16667,0,0,4.16667,-625,-3854.52)">
        <path d="M538.048,1498.25C535.31,1498.69 533.441,1501.26 533.875,1504C534.31,1506.73 536.883,1508.6 539.621,1508.17C542.359,1507.73 544.227,1505.16 543.793,1502.42C543.358,1499.68 540.786,1497.82 538.048,1498.25Z" style="fill:rgb(241,242,242);fill-rule:nonzero;"/>
    </g>
    <g transform="matrix(4.16667,0,0,4.16667,-625,-3854.52)">
        <path d="M703.275,1433.27C698.831,1405.24 665.9,1387.1 629.868,1392.81C600.614,1397.45 578.173,1416.42 573.143,1438.38C574.456,1438.94 575.741,1439.53 576.999,1440.16C581.217,1419.45 602.573,1401.35 630.52,1396.92C664.288,1391.56 695.083,1408.16 699.169,1433.92C701.852,1450.83 692.273,1468.38 674.172,1479.73L673.074,1480.42L673.209,1481.7C673.441,1483.96 673.865,1486.2 674.465,1488.36C675.998,1493.89 678.672,1498.99 682.299,1503.35C672.641,1502.16 663.905,1496.92 658.288,1488.73L657.43,1487.48L655.977,1487.92C652.521,1488.96 648.942,1489.77 645.339,1490.35C631.608,1492.52 618.368,1491.07 607.215,1486.85C607.146,1488.27 607.01,1489.69 606.811,1491.1C618.4,1495.28 631.96,1496.68 645.99,1494.45C649.283,1493.93 652.556,1493.21 655.741,1492.32C663.182,1502.31 674.912,1508.05 687.418,1507.75L692.56,1507.63L688.778,1504.14C683.839,1499.59 680.275,1493.75 678.471,1487.25C678.046,1485.71 677.719,1484.13 677.496,1482.54C696.311,1470.27 706.167,1451.49 703.275,1433.27Z" style="fill:rgb(241,242,242);fill-rule:nonzero;"/>
    </g>
    <g transform="matrix(4.16667,0,0,4.16667,-625,-3854.52)">
        <path d="M482.46,1263.46C489.518,1265.41 493.67,1272.75 491.72,1279.82C489.768,1286.89 482.438,1291.05 475.38,1289.1C468.323,1287.14 464.17,1279.8 466.121,1272.73C468.073,1265.66 475.402,1261.5 482.46,1263.46ZM437.098,1267.6L434.689,1276.32L440.076,1277.81L442.485,1269.09L460.191,1273.99C459.074,1283.12 464.778,1291.97 473.891,1294.49C483.917,1297.27 494.333,1291.36 497.106,1281.32C499.879,1271.27 493.977,1260.84 483.95,1258.06C474.836,1255.54 465.407,1260.19 461.681,1268.6L420.239,1257.12L418.749,1262.51L427.305,1264.88L423.732,1277.82L429.119,1279.31L432.691,1266.38L437.098,1267.6Z" style="fill:rgb(241,242,242);fill-rule:nonzero;"/>
    </g>
    <g transform="matrix(4.16667,0,0,4.16667,-625,-3854.52)">
        <path d="M485.719,1153.81L476.636,1153.81L476.636,1144.71L471.549,1144.71L471.549,1153.81L462.467,1153.81L462.467,1158.91L471.549,1158.91L471.549,1168L476.636,1168L476.636,1158.91L485.719,1158.91L485.719,1153.81Z" style="fill:rgb(241,242,242);fill-rule:nonzero;"/>
    </g>
    <g transform="matrix(4.16667,0,0,4.16667,-625,-3854.52)">
        <path d="M418.803,1219.8L418.805,1215.64L418.805,1215.53L418.808,1211.47L427.686,1211.48L427.688,1207.15L423.273,1207.15L423.276,1202.84L418.956,1202.83L418.959,1198.57L414.64,1198.56L414.643,1194.3L410.324,1194.3L410.325,1190.03L406.006,1190.03L406.01,1185.76L401.68,1185.76L401.657,1219.75L405.985,1219.75L405.988,1215.63L410.203,1215.63L410.201,1219.85L414.474,1219.85L414.471,1224.01L414.471,1224.12L414.468,1228.34L422.974,1228.34L422.976,1224.02L418.799,1224.02L418.801,1219.86L418.803,1219.8Z" style="fill:rgb(241,242,242);fill-rule:nonzero;"/>
    </g>
    <g transform="matrix(4.16667,0,0,4.16667,-625,-3854.52)">
        <path d="M286.073,1520.82L300.796,1472.34L373.302,1494.36L358.578,1542.84L286.073,1520.82ZM380.601,1470.33L374.698,1489.76L302.192,1467.74L308.095,1448.31L380.601,1470.33ZM304.894,1442.32L280.079,1524.02L361.779,1548.83L386.594,1467.13L304.894,1442.32Z" style="fill:rgb(241,242,242);fill-rule:nonzero;"/>
    </g>
    <g transform="matrix(4.16667,0,0,4.16667,-625,-3854.52)">
        <path d="M313.731,1487.67L318.607,1489.15L310.101,1517.16L313.182,1518.1L322.612,1487.05L316.512,1485.2L313.731,1487.67Z" style="fill:rgb(241,242,242);fill-rule:nonzero;"/>
    </g>
    <g transform="matrix(4.16667,0,0,4.16667,-625,-3854.52)">
        <path d="M341.653,1522.2C339.911,1523.13 337.911,1523.26 335.649,1522.57C334.188,1522.13 332.985,1521.46 332.042,1520.58C331.098,1519.69 330.471,1518.65 330.161,1517.44C329.851,1516.24 329.868,1515.07 330.214,1513.93C330.774,1512.09 331.989,1510.7 333.856,1509.75C335.724,1508.8 337.727,1508.65 339.863,1509.3C341.857,1509.91 343.357,1511.1 344.361,1512.87C345.365,1514.64 345.604,1516.39 345.078,1518.13C344.536,1519.91 343.394,1521.27 341.653,1522.2ZM336.294,1499.23C336.717,1497.84 337.643,1496.81 339.068,1496.14C340.495,1495.48 342.061,1495.4 343.766,1495.92C345.697,1496.51 347.01,1497.48 347.705,1498.84C348.399,1500.21 348.556,1501.52 348.175,1502.77C347.906,1503.66 347.381,1504.46 346.599,1505.18C345.817,1505.91 344.891,1506.38 343.822,1506.61C342.752,1506.84 341.702,1506.8 340.673,1506.48C339.066,1506 337.83,1505.01 336.965,1503.52C336.099,1502.04 335.875,1500.61 336.294,1499.23ZM344.822,1509.1C346.543,1508.75 347.939,1508.14 349.012,1507.26C350.083,1506.39 350.833,1505.25 351.26,1503.84C351.687,1502.44 351.706,1500.97 351.313,1499.46C350.922,1497.94 350.149,1496.6 348.997,1495.43C347.844,1494.27 346.459,1493.44 344.841,1492.95C343.181,1492.44 341.524,1492.35 339.872,1492.65C338.22,1492.96 336.793,1493.63 335.593,1494.67C334.393,1495.71 333.587,1496.91 333.177,1498.26C332.771,1499.6 332.771,1500.96 333.176,1502.36C333.58,1503.76 334.424,1505.08 335.704,1506.33C333.208,1506.76 331.286,1507.52 329.936,1508.63C328.586,1509.73 327.648,1511.15 327.123,1512.88C326.405,1515.24 326.634,1517.68 327.811,1520.18C328.988,1522.68 331.292,1524.45 334.726,1525.49C338.285,1526.57 341.362,1526.29 343.956,1524.63C346.073,1523.28 347.495,1521.4 348.222,1519.01C348.739,1517.31 348.747,1515.65 348.245,1514.04C347.743,1512.43 346.602,1510.78 344.822,1509.1Z" style="fill:rgb(241,242,242);fill-rule:nonzero;"/>
    </g>
</svg>
