<?xml version="1.0" encoding="UTF-8" standalone="no"?>
<!DOCTYPE svg PUBLIC "-//W3C//DTD SVG 1.1//EN" "http://www.w3.org/Graphics/SVG/1.1/DTD/svg11.dtd">
<svg width="100%" height="100%" viewBox="0 0 6400 2712" version="1.1" xmlns="http://www.w3.org/2000/svg" xmlns:xlink="http://www.w3.org/1999/xlink" xml:space="preserve" xmlns:serif="http://www.serif.com/" style="fill-rule:evenodd;clip-rule:evenodd;stroke-linejoin:round;stroke-miterlimit:2;">
    <g transform="matrix(4.16667,0,0,4.16667,-625,-520.833)">
        <g>
            <path d="M870.153,389.198C858.682,387.739 850.386,378.707 850.396,368.925C850.395,366.792 850.519,364.648 850.366,362.486C850.193,352.724 858.316,343.515 869.787,341.906L880.657,340.538C879.422,330.604 877.486,320.782 874.905,311.151L864.342,314.003C853.067,316.801 842.005,311.378 838.564,302.226L836.188,296.214C832.404,287.18 836.749,275.657 846.887,269.999L856.523,264.817C851.811,256.04 846.476,247.561 840.578,239.485L831.725,245.935C822.265,252.592 809.99,251.491 803.461,244.24C802.107,242.586 800.527,241.101 799.084,239.518C792.374,232.4 792.243,220.115 799.586,211.223L806.735,202.863C799.211,196.445 791.192,190.469 782.677,185.055L776.766,194.298C770.381,203.925 758.566,207.373 749.808,202.968L744.036,200.099C735.115,196.016 730.545,184.549 734.228,173.531L737.874,163.205C728.315,159.842 718.671,157.173 709.004,155.212L706.812,165.964C704.309,177.252 694.518,184.675 684.796,183.742C682.667,183.494 680.526,183.301 678.391,183.197C668.651,182.473 660.264,173.501 659.679,161.961L659.333,151C649.313,151.28 639.357,152.324 629.543,154.008L631.406,164.783C633.181,176.276 626.757,186.772 617.307,189.381L611.137,191.163C601.783,194.138 590.701,188.755 585.985,178.107L581.71,168.044C572.518,171.934 563.59,176.479 555.016,181.587L560.626,190.998C566.382,201.037 564.205,213.193 556.318,218.96C554.586,220.248 552.938,221.613 551.225,222.926C543.54,228.966 531.291,227.947 523.081,219.788L515.445,211.935C508.334,218.81 501.63,226.257 495.446,234.193L504.12,240.959C513.104,248.212 515.422,260.279 510.255,268.601C509.163,270.418 507.91,272.165 506.911,274.087C501.97,282.515 490.165,286.038 479.534,281.38L469.588,276.816C468.212,279.831 466.875,282.911 465.611,285.975C463.08,292.22 460.894,298.5 458.992,304.836L469.473,308.003C480.5,311.536 486.957,321.972 485.151,331.596C484.644,333.669 484.361,335.783 484.015,337.932C482.393,347.542 472.675,355.057 461.136,354.556L450.158,353.89C449.552,363.937 449.634,373.943 450.417,383.819L461.358,382.983C472.914,382.27 482.768,389.621 484.505,399.279L485.707,405.589C487.815,415.147 481.39,425.717 470.422,429.416L459.994,432.739C463.03,442.279 466.726,451.591 471.031,460.583L480.901,455.866C491.453,451.023 503.371,454.309 508.371,462.741L511.833,468.168C517.168,476.378 515.043,488.496 506.127,495.901L497.597,502.764C503.813,510.517 510.595,517.875 517.906,524.757L525.458,516.749C533.506,508.475 545.739,507.3 553.522,513.205C555.208,514.545 556.904,515.833 558.685,517.054C566.583,522.769 569.033,534.82 563.434,544.946L557.953,554.443C566.511,559.362 575.469,563.775 584.868,567.582L588.982,557.446C593.534,546.707 604.552,541.21 613.936,543.982C615.994,544.624 618.077,545.109 620.153,545.671C629.597,548.188 636.174,558.584 634.601,570.017L632.902,580.879C642.865,582.438 652.835,583.264 662.759,583.414L662.929,572.439C663.303,560.907 671.537,551.768 681.274,550.897C683.403,550.671 685.56,550.568 687.667,550.264C697.386,549.103 707.311,556.48 709.986,567.679L712.348,578.389C722.11,576.232 731.727,573.428 741.081,569.971L737.285,559.691C733.441,548.717 737.813,537.226 746.639,532.956L752.377,530.029C761.039,525.443 772.912,528.695 779.485,538.269L785.533,547.396C793.836,541.899 801.777,535.81 809.3,529.186L802.041,520.928C794.528,512.128 794.518,499.895 801.108,492.681C802.633,491.154 803.983,489.503 805.394,487.873C811.846,480.544 824.069,479.246 833.612,485.729L842.597,492.087C848.286,484.003 853.478,475.475 858.125,466.468L848.388,461.443C838.177,455.969 833.622,444.506 837.295,435.374L839.56,429.354C842.896,420.12 853.86,414.553 865.13,417.177L875.77,419.847C878.246,410.07 880.016,400.246 881.084,390.389L870.153,389.198Z" style="fill:rgb(255,207,1);fill-rule:nonzero;"/>
            <path d="M332.392,195.08C326.286,229.283 293.604,252.049 259.401,245.936C225.212,239.812 202.444,207.147 208.55,172.945C214.67,138.745 247.35,115.979 281.544,122.101C315.736,128.205 338.502,160.885 332.392,195.08ZM357.141,193.348C352.253,192.726 348.718,188.877 348.723,184.71C348.722,183.801 348.776,182.887 348.709,181.966C348.635,177.806 352.097,173.884 356.983,173.198L361.616,172.613C361.088,168.381 360.266,164.198 359.166,160.094L354.665,161.31C349.861,162.502 345.146,160.19 343.682,156.291L342.669,153.729C341.057,149.88 342.908,144.97 347.228,142.56L351.333,140.353C349.324,136.612 347.053,133.001 344.539,129.56L340.767,132.308C336.736,135.144 331.507,134.674 328.725,131.585C328.148,130.88 327.475,130.248 326.86,129.573C324.001,126.541 323.945,121.307 327.074,117.518L330.12,113.956C326.914,111.222 323.497,108.675 319.869,106.367L317.351,110.308C314.632,114.41 309.596,115.877 305.866,114L303.406,112.778C299.604,111.039 297.657,106.153 299.228,101.458L300.78,97.059C296.708,95.626 292.598,94.49 288.479,93.654L287.546,98.235C286.479,103.045 282.308,106.207 278.165,105.808C277.259,105.704 276.346,105.622 275.437,105.578C271.286,105.268 267.714,101.446 267.463,96.529L267.316,91.859C263.047,91.978 258.805,92.424 254.624,93.142L255.417,97.731C256.173,102.628 253.438,107.101 249.412,108.213L246.782,108.971C242.797,110.238 238.075,107.945 236.066,103.408L234.244,99.122C230.327,100.779 226.523,102.715 222.871,104.891L225.261,108.901C227.713,113.178 226.786,118.357 223.425,120.814C222.688,121.364 221.984,121.945 221.255,122.504C217.982,125.078 212.762,124.644 209.264,121.167L206.01,117.822C202.981,120.75 200.125,123.923 197.49,127.306L201.185,130.188C205.013,133.279 206.001,138.419 203.799,141.965C203.334,142.739 202.799,143.484 202.374,144.302C200.27,147.893 195.24,149.394 190.71,147.411L186.472,145.465C185.887,146.749 185.317,148.061 184.779,149.367C183.7,152.028 182.769,154.703 181.958,157.403L186.424,158.752C191.122,160.258 193.873,164.706 193.103,168.805C192.888,169.688 192.767,170.589 192.619,171.504C191.928,175.599 187.788,178.801 182.871,178.586L178.194,178.303C177.936,182.584 177.971,186.848 178.304,191.056L182.967,190.7C187.889,190.395 192.086,193.528 192.827,197.643L193.34,200.331C194.238,204.402 191.5,208.906 186.828,210.482L182.386,211.899C183.678,215.964 185.253,219.931 187.088,223.762L191.293,221.752C195.788,219.69 200.867,221.089 202.996,224.683L204.472,226.994C206.746,230.491 205.839,235.654 202.04,238.81L198.405,241.733C201.055,245.037 203.944,248.172 207.06,251.105L210.276,247.691C213.706,244.168 218.917,243.667 222.234,246.184C222.952,246.754 223.676,247.303 224.433,247.821C227.8,250.258 228.842,255.393 226.457,259.708L224.122,263.753C227.769,265.849 231.585,267.728 235.59,269.351L237.342,265.031C239.281,260.456 243.978,258.114 247.974,259.296C248.851,259.569 249.739,259.775 250.624,260.015C254.646,261.088 257.45,265.518 256.78,270.389L256.057,275.017C260.301,275.681 264.549,276.033 268.776,276.095L268.848,271.421C269.008,266.506 272.516,262.612 276.666,262.243C277.573,262.146 278.49,262.1 279.39,261.973C283.529,261.477 287.757,264.621 288.898,269.393L289.904,273.955C294.063,273.037 298.162,271.841 302.146,270.368L300.528,265.988C298.892,261.313 300.755,256.417 304.515,254.599L306.959,253.352C310.65,251.397 315.709,252.783 318.509,256.86L321.086,260.75C324.624,258.409 328.008,255.814 331.212,252.992L328.119,249.472C324.919,245.724 324.915,240.511 327.723,237.437C328.373,236.788 328.947,236.084 329.548,235.389C332.298,232.267 337.505,231.714 341.572,234.477L345.399,237.185C347.823,233.74 350.035,230.106 352.014,226.269L347.867,224.128C343.516,221.797 341.576,216.913 343.14,213.022L344.105,210.457C345.528,206.522 350.199,204.15 355,205.269L359.533,206.406C360.587,202.239 361.342,198.054 361.797,193.855L357.141,193.348Z" style="fill:rgb(216,217,218);fill-rule:nonzero;"/>
            <path d="M1473.27,523.828C1470.99,536.571 1458.82,545.052 1446.07,542.775C1433.34,540.494 1424.85,528.323 1427.13,515.58C1429.41,502.839 1441.58,494.358 1454.32,496.639C1467.06,498.912 1475.54,511.088 1473.27,523.828ZM1458.45,473.57C1432.97,469.009 1408.62,485.973 1404.06,511.456C1399.51,536.94 1416.48,561.281 1441.95,565.843C1467.43,570.398 1491.79,553.436 1496.34,527.95C1500.89,502.469 1483.93,478.118 1458.45,473.57Z" style="fill:rgb(216,217,218);fill-rule:nonzero;"/>
            <path d="M1542.47,536.193C1533.38,587.164 1484.67,621.091 1433.7,611.982C1382.75,602.855 1348.82,554.173 1357.92,503.206C1367.04,452.239 1415.74,418.311 1466.7,427.436C1517.65,436.53 1551.58,485.233 1542.47,536.193ZM1579.36,533.611C1572.07,532.685 1566.81,526.949 1566.81,520.738C1566.81,519.383 1566.89,518.022 1566.79,516.649C1566.68,510.451 1571.84,504.604 1579.12,503.582L1586.02,502.713C1585.24,496.405 1584.01,490.169 1582.37,484.054L1575.67,485.865C1568.51,487.643 1561.48,484.198 1559.3,478.388L1557.79,474.571C1555.39,468.833 1558.15,461.517 1564.58,457.924L1570.7,454.636C1567.71,449.061 1564.32,443.678 1560.58,438.55L1554.96,442.644C1548.95,446.873 1541.16,446.172 1537.01,441.568C1536.15,440.519 1535.15,439.576 1534.23,438.571C1529.97,434.051 1529.89,426.251 1534.55,420.605L1539.09,415.297C1534.31,411.221 1529.22,407.427 1523.81,403.989L1520.06,409.858C1516.01,415.972 1508.5,418.161 1502.94,415.363L1499.28,413.542C1493.61,410.95 1490.71,403.668 1493.05,396.672L1495.37,390.116C1489.3,387.981 1483.17,386.287 1477.03,385.042L1475.64,391.868C1474.05,399.036 1467.84,403.748 1461.67,403.155C1460.31,402.999 1458.95,402.876 1457.6,402.81C1451.41,402.35 1446.09,396.653 1445.72,389.326L1445.5,382.367C1439.14,382.544 1432.81,383.207 1426.58,384.276L1427.77,391.118C1428.89,398.417 1424.81,405.08 1418.81,406.736L1414.9,407.869C1408.96,409.757 1401.92,406.338 1398.92,399.578L1396.21,393.189C1390.37,395.659 1384.7,398.544 1379.26,401.788L1382.82,407.764C1386.48,414.138 1385.1,421.855 1380.09,425.519C1378.99,426.334 1377.94,427.201 1376.85,428.036C1371.97,431.871 1364.2,431.225 1358.98,426.044L1354.14,421.058C1349.62,425.422 1345.36,430.151 1341.44,435.19L1346.94,439.487C1352.65,444.092 1354.12,451.752 1350.84,457.037C1350.15,458.191 1349.35,459.3 1348.72,460.521C1345.58,465.872 1338.08,468.108 1331.33,465.151L1325.02,462.254C1324.15,464.168 1323.3,466.123 1322.49,468.068C1320.89,472.034 1319.5,476.021 1318.29,480.044L1324.95,482.056C1331.95,484.299 1336.05,490.926 1334.9,497.036C1334.58,498.353 1334.4,499.694 1334.18,501.059C1333.15,507.161 1326.98,511.931 1319.65,511.613L1312.68,511.19C1312.3,517.571 1312.35,523.925 1312.85,530.195L1319.79,529.664C1327.13,529.21 1333.39,533.879 1334.49,540.011L1335.25,544.018C1336.59,550.086 1332.51,556.798 1325.55,559.146L1318.93,561.256C1320.85,567.314 1323.2,573.226 1325.94,578.935L1332.2,575.94C1338.9,572.867 1346.47,574.953 1349.64,580.307L1351.84,583.751C1355.23,588.965 1353.88,596.659 1348.22,601.36L1342.8,605.719C1346.75,610.641 1351.06,615.313 1355.7,619.684L1360.49,614.598C1365.6,609.345 1373.37,608.6 1378.31,612.348C1379.38,613.199 1380.46,614.018 1381.59,614.792C1386.61,618.42 1388.16,626.073 1384.61,632.502L1381.13,638.533C1386.56,641.655 1392.25,644.457 1398.22,646.875L1400.83,640.438C1403.72,633.62 1410.71,630.129 1416.67,631.89C1417.98,632.298 1419.3,632.605 1420.62,632.963C1426.62,634.561 1430.79,641.161 1429.79,648.421L1428.71,655.316C1435.04,656.308 1441.37,656.833 1447.67,656.927L1447.78,649.959C1448.02,642.636 1453.24,636.834 1459.43,636.281C1460.78,636.137 1462.15,636.071 1463.49,635.879C1469.66,635.142 1475.96,639.825 1477.66,646.936L1479.16,653.736C1485.36,652.367 1491.46,650.586 1497.4,648.392L1494.99,641.865C1492.55,634.896 1495.33,627.6 1500.93,624.89L1504.57,623.031C1510.07,620.119 1517.61,622.183 1521.79,628.262L1525.63,634.057C1530.9,630.567 1535.94,626.701 1540.72,622.496L1536.11,617.251C1531.34,611.664 1531.33,603.897 1535.52,599.316C1536.49,598.347 1537.34,597.297 1538.24,596.262C1542.33,591.61 1550.1,590.787 1556.16,594.902L1561.86,598.939C1565.47,593.808 1568.77,588.392 1571.72,582.671L1565.54,579.482C1559.05,576.006 1556.16,568.727 1558.5,562.931L1559.93,559.107C1562.05,553.243 1569.01,549.709 1576.17,551.374L1582.92,553.071C1584.5,546.862 1585.62,540.625 1586.3,534.366L1579.36,533.611Z" style="fill:rgb(216,217,218);fill-rule:nonzero;"/>
            <path d="M1529.82,328.729C1523.69,340.264 1509.4,345.205 1497.28,339.978C1496.6,339.686 1495.92,339.359 1495.27,339.007C1489.22,335.767 1484.77,330.391 1482.74,323.867C1480.71,317.344 1481.34,310.455 1484.52,304.468C1490.64,292.933 1504.94,287.991 1517.06,293.219C1517.74,293.51 1518.41,293.837 1519.07,294.188C1531.56,300.878 1536.38,316.373 1529.82,328.729ZM1549.15,313.699C1547.07,312.59 1544.9,311.654 1542.72,310.917L1542.07,310.699L1541.93,310.029C1541.29,306.828 1540.19,303.713 1538.67,300.772C1538.11,299.682 1537.49,298.618 1536.83,297.609L1536.46,297.035L1536.77,296.432C1537.82,294.409 1538.72,292.264 1539.44,290.047C1535.57,285.392 1530.66,281.559 1525.18,278.914C1523.19,280.149 1521.33,281.535 1519.62,283.04L1519.11,283.487L1518.46,283.263C1514.15,281.768 1509.68,281.11 1505.16,281.308L1504.48,281.337L1504.11,280.76C1502.87,278.819 1501.44,276.952 1499.86,275.201C1493.94,276.167 1488.21,278.441 1483.21,281.81C1483.31,284.167 1483.6,286.486 1484.07,288.714L1484.21,289.383L1483.7,289.826C1480.3,292.761 1477.54,296.287 1475.5,300.303L1475.2,300.906L1474.51,300.933C1472.22,301.017 1469.9,301.297 1467.6,301.762C1465.53,307.413 1464.7,313.518 1465.19,319.497C1467.27,320.608 1469.44,321.544 1471.61,322.281L1472.26,322.499L1472.4,323.169C1473.05,326.375 1474.15,329.49 1475.66,332.426C1476.23,333.515 1476.85,334.582 1477.5,335.594L1477.88,336.167L1477.57,336.767C1476.51,338.8 1475.61,340.945 1474.9,343.151C1478.77,347.808 1483.67,351.639 1489.16,354.285C1491.14,353.046 1493.01,351.66 1494.72,350.157L1495.23,349.709L1495.88,349.934C1500.18,351.43 1504.65,352.086 1509.17,351.89L1509.85,351.859L1510.22,352.437C1511.46,354.361 1512.89,356.229 1514.48,357.997C1520.4,357.032 1526.13,354.754 1531.12,351.384C1531.02,349.045 1530.74,346.728 1530.27,344.483L1530.13,343.816L1530.64,343.373C1534.03,340.437 1536.79,336.912 1538.83,332.894L1539.14,332.289L1539.82,332.264C1542.11,332.181 1544.43,331.901 1546.73,331.435C1548.81,325.786 1549.64,319.681 1549.15,313.699Z" style="fill:rgb(216,217,218);fill-rule:nonzero;"/>
            <path d="M182.057,313.164C174.593,311.828 167.46,316.797 166.124,324.262C164.791,331.727 169.761,338.858 177.224,340.194C184.689,341.529 191.823,336.56 193.156,329.094C194.49,321.63 189.521,314.497 182.057,313.164Z" style="fill:rgb(216,217,218);fill-rule:nonzero;"/>
            <path d="M224.692,334.729C220.25,359.614 196.471,376.178 171.585,371.73C146.71,367.275 130.144,343.507 134.587,318.623C139.04,293.74 162.817,277.174 187.697,281.629C212.575,286.069 229.139,309.848 224.692,334.729ZM242.7,333.467C239.144,333.015 236.571,330.215 236.575,327.183C236.574,326.521 236.613,325.857 236.565,325.187C236.512,322.16 239.03,319.306 242.586,318.806L245.956,318.382C245.573,315.303 244.973,312.258 244.173,309.272L240.898,310.157C237.403,311.024 233.974,309.343 232.907,306.506L232.17,304.642C230.997,301.841 232.344,298.269 235.487,296.515L238.474,294.909C237.013,292.188 235.36,289.56 233.531,287.056L230.787,289.055C227.854,291.119 224.049,290.777 222.024,288.53C221.605,288.017 221.115,287.557 220.668,287.066C218.588,284.86 218.547,281.051 220.823,278.294L223.04,275.703C220.708,273.713 218.222,271.861 215.582,270.182L213.75,273.048C211.77,276.033 208.107,277.101 205.393,275.735L203.603,274.846C200.837,273.581 199.421,270.025 200.563,266.61L201.692,263.409C198.73,262.366 195.74,261.539 192.743,260.931L192.064,264.264C191.287,267.764 188.252,270.064 185.238,269.775C184.579,269.699 183.915,269.639 183.252,269.606C180.233,269.382 177.634,266.601 177.452,263.023L177.345,259.625C174.238,259.712 171.152,260.036 168.11,260.558L168.687,263.898C169.237,267.461 167.246,270.715 164.316,271.523L162.404,272.076C159.504,272.999 156.069,271.329 154.606,268.028L153.282,264.909C150.432,266.115 147.664,267.524 145.006,269.107L146.746,272.024C148.53,275.137 147.855,278.905 145.41,280.693C144.873,281.092 144.362,281.515 143.831,281.922C141.449,283.795 137.651,283.479 135.106,280.95L132.739,278.515C130.535,280.646 128.457,282.955 126.54,285.416L129.228,287.513C132.014,289.762 132.732,293.502 131.13,296.082C130.792,296.645 130.403,297.187 130.093,297.783C128.562,300.395 124.902,301.487 121.606,300.043L118.523,298.629C118.097,299.563 117.682,300.518 117.291,301.467C116.506,303.404 115.828,305.351 115.238,307.315L118.488,308.297C121.906,309.392 123.908,312.627 123.348,315.61C123.191,316.253 123.104,316.909 122.996,317.574C122.493,320.554 119.48,322.883 115.903,322.729L112.5,322.521C112.312,325.636 112.338,328.738 112.58,331.8L115.972,331.541C119.555,331.319 122.609,333.598 123.147,336.593L123.52,338.549C124.174,341.511 122.182,344.789 118.782,345.935L115.549,346.965C116.491,349.923 117.636,352.809 118.971,355.597L122.031,354.134C125.302,352.633 128.996,353.652 130.546,356.266L131.62,357.948C133.273,360.493 132.615,364.25 129.851,366.545L127.206,368.673C129.132,371.076 131.236,373.357 133.502,375.491L135.843,373.008C138.338,370.443 142.13,370.079 144.543,371.91C145.066,372.325 145.592,372.725 146.144,373.103C148.592,374.875 149.352,378.61 147.616,381.75L145.917,384.694C148.57,386.219 151.347,387.586 154.261,388.767L155.536,385.625C156.947,382.295 160.362,380.591 163.271,381.451C163.91,381.649 164.555,381.8 165.199,381.975C168.126,382.755 170.166,385.978 169.678,389.521L169.151,392.889C172.24,393.372 175.331,393.628 178.407,393.674L178.459,390.272C178.575,386.697 181.128,383.864 184.146,383.594C184.807,383.524 185.475,383.492 186.129,383.398C189.141,383.038 192.218,385.325 193.047,388.796L193.779,392.117C196.806,391.449 199.787,390.579 202.687,389.507L201.51,386.32C200.319,382.918 201.674,379.356 204.41,378.033L206.188,377.125C208.874,375.704 212.554,376.712 214.592,379.68L216.467,382.509C219.041,380.805 221.503,378.917 223.835,376.864L221.584,374.304C219.256,371.575 219.252,367.783 221.295,365.547C221.768,365.074 222.187,364.562 222.624,364.056C224.624,361.785 228.413,361.383 231.372,363.392L234.157,365.363C235.92,362.857 237.53,360.213 238.97,357.421L235.952,355.863C232.787,354.167 231.375,350.613 232.514,347.783L233.215,345.916C234.25,343.053 237.648,341.327 241.142,342.141L244.441,342.969C245.208,339.938 245.757,336.892 246.088,333.836L242.7,333.467Z" style="fill:rgb(216,217,218);fill-rule:nonzero;"/>
            <path d="M552.575,431.846C553.803,425.606 560.263,420.891 567.747,421.417L574.871,422.055C575.454,415.521 575.554,409.016 575.228,402.573L568.1,402.935C560.598,403.191 554.315,398.24 553.329,391.961C553.09,390.588 552.928,389.193 552.645,387.837C551.472,381.582 555.828,374.825 562.979,372.607L569.825,370.617C568.008,364.373 565.771,358.252 563.127,352.333L556.621,355.239C549.664,358.209 542.018,355.864 538.866,350.321L536.722,346.726C533.375,341.3 534.972,333.456 540.897,328.782L546.561,324.464C542.635,319.313 538.339,314.424 533.72,309.831L528.673,314.896C523.288,320.148 515.352,320.681 510.386,316.714C509.33,315.795 508.199,314.989 507.08,314.146C502.048,310.274 500.678,302.399 504.475,295.928L508.212,289.826C502.722,286.48 496.965,283.479 490.919,280.854L488.079,287.39C484.97,294.248 477.727,297.698 471.645,295.709L467.639,294.501C461.501,292.734 457.417,285.859 458.634,278.436L459.91,271.417C453.457,270.23 447.003,269.506 440.567,269.238L440.263,276.381C439.813,283.888 434.312,289.661 427.96,290.075C426.579,290.169 425.182,290.18 423.788,290.374C417.458,290.904 411.135,286.031 409.594,278.659L408.238,271.668C401.849,272.898 395.554,274.573 389.419,276.666L391.722,283.395C394.025,290.594 390.986,298.006 385.194,300.628L381.397,302.429C375.699,305.276 368.032,302.957 363.926,296.621L360.149,290.594C354.655,294.025 349.383,297.852 344.397,302.03L348.964,307.495C353.694,313.346 353.51,321.357 349.086,325.904C348.069,326.855 347.178,327.946 346.212,328.952C341.881,333.611 333.914,334.229 327.829,329.845L322.099,325.565C318.257,330.726 314.726,336.189 311.578,341.944L317.835,345.381C324.355,349.111 327.102,356.626 324.619,362.503L323.008,366.368C320.745,372.336 313.502,375.791 306.192,373.878L299.335,371.958C297.566,378.307 296.25,384.681 295.396,391.036L302.468,391.996C309.896,393.13 315.136,399.164 314.95,405.511C314.882,406.906 314.849,408.302 314.874,409.693C314.822,416.042 309.365,421.869 301.9,422.751L294.806,423.449C295.418,429.935 296.526,436.353 298.042,442.646L304.953,440.973C312.332,439.328 319.417,443.04 321.52,449.058L322.944,452.988C325.279,458.924 322.261,466.349 315.557,469.868L309.21,473.073C312.131,478.873 315.466,484.472 319.152,489.815L325.012,485.768C331.278,481.601 339.262,482.487 343.343,487.353C344.253,488.424 345.209,489.431 346.136,490.489C350.387,495.214 350.255,503.208 345.315,508.885L340.548,514.178C345.315,518.496 350.438,522.525 355.853,526.191L359.869,520.274C364.189,514.132 371.917,512.106 377.541,515.104C378.766,515.734 379.955,516.468 381.244,517.033C386.925,519.878 389.72,527.384 387.155,534.486L384.622,541.133C386.637,541.895 388.693,542.631 390.738,543.318C394.897,544.69 399.068,545.839 403.261,546.8L404.865,539.862C406.682,532.553 413.174,527.915 419.495,528.674C420.867,528.912 422.248,529.006 423.658,529.133C429.963,529.773 435.256,535.756 435.428,543.267L435.472,550.417C442.016,550.375 448.504,549.893 454.881,548.957L453.865,541.895C452.902,534.43 457.249,527.716 463.441,526.173L467.481,525.121C473.593,523.342 480.729,527.053 483.602,534.011L486.208,540.636C492.268,538.251 498.15,535.452 503.799,532.27L500.313,526.069C496.715,519.432 498.333,511.558 503.59,507.95L506.958,505.466C512.056,501.655 520.01,502.51 525.201,507.977L530.022,513.216C534.785,508.846 539.264,504.131 543.414,499.087L537.892,494.536C532.178,489.667 530.888,481.783 534.381,476.476C535.181,475.326 535.943,474.167 536.66,472.961C540.024,467.59 547.741,465.48 554.551,468.678L560.952,471.823C563.773,466.054 566.247,460.056 568.313,453.792L561.558,451.562C554.393,449.069 550.353,442.158 551.748,435.95C552.076,434.588 552.302,433.215 552.575,431.846Z" style="fill:rgb(245,130,31);fill-rule:nonzero;"/>
            <path d="M615.212,570.586C611.164,538.964 600.117,508.031 583.115,480.722C570.567,480.664 558.181,481.612 546.243,483.527L542.663,484.096L540.401,481.271C525.412,462.555 507.166,447.067 486.186,435.245L483.028,433.468L483.014,429.84C482.986,417.674 481.926,405.302 479.871,393.002C450.201,380.592 417.886,374.676 385.996,375.797C379.708,386.557 374.33,397.786 370.018,409.138L368.737,412.527L365.154,413.078C347.98,415.734 331.218,420.775 315.323,428.065C309.427,430.783 303.645,433.797 298.139,437.031L295.022,438.854L291.889,437.056C281.269,430.946 270.032,425.66 258.432,421.319C232.958,440.659 211.686,465.709 196.608,494.098C202.833,504.945 209.86,515.19 217.54,524.602L219.832,527.416L218.515,530.795C209.776,553.211 205.462,576.749 205.682,600.754L205.714,604.376L202.579,606.193C192.119,612.254 181.925,619.362 172.231,627.343C176.283,658.958 187.341,689.891 204.348,717.206C216.805,717.269 229.184,716.321 241.204,714.396L244.781,713.823L247.046,716.65C262.034,735.374 280.277,750.859 301.271,762.681L304.428,764.46L304.433,768.092C304.463,780.212 305.523,792.59 307.583,804.919C337.245,817.324 369.56,823.247 401.464,822.13C407.739,811.384 413.11,800.153 417.428,788.78L418.708,785.389L422.297,784.829C439.438,782.193 456.204,777.152 472.123,769.851C478.021,767.148 483.792,764.136 489.28,760.896L492.403,759.049L495.549,760.858C506.115,766.945 517.361,772.236 529.021,776.603C554.483,757.263 575.761,732.203 590.836,703.81C584.627,692.998 577.598,682.752 569.908,673.319L567.624,670.51L568.933,667.133C577.675,644.665 581.994,621.126 581.768,597.168L581.735,593.549L584.875,591.728C595.423,585.612 605.616,578.511 615.212,570.586Z" style="fill:rgb(237,28,36);fill-rule:nonzero;"/>
            <path d="M304.953,440.973C312.332,439.328 319.417,443.04 321.52,449.058L322.944,452.988C325.279,458.924 322.261,466.349 315.557,469.868L309.21,473.073C312.131,478.873 315.466,484.472 319.152,489.815L325.012,485.768C331.278,481.601 339.262,482.487 343.343,487.353C344.253,488.424 345.209,489.431 346.136,490.489C350.387,495.214 350.255,503.208 345.315,508.885L340.548,514.178C345.315,518.496 350.438,522.525 355.853,526.191L359.869,520.274C364.189,514.132 371.917,512.106 377.541,515.104C378.766,515.734 379.955,516.468 381.244,517.033C386.925,519.878 389.72,527.384 387.155,534.486L384.622,541.133C386.637,541.895 388.693,542.631 390.738,543.318C394.897,544.69 399.068,545.839 403.261,546.8L404.865,539.862C406.682,532.553 413.174,527.915 419.495,528.674C420.867,528.912 422.248,529.006 423.658,529.133C429.963,529.773 435.256,535.756 435.428,543.267L435.472,550.417C442.016,550.375 448.504,549.893 454.881,548.957L453.865,541.895C452.902,534.43 457.249,527.716 463.441,526.173L467.481,525.121C473.593,523.342 480.729,527.053 483.602,534.011L486.208,540.636C492.268,538.251 498.15,535.452 503.799,532.27L500.313,526.069C496.715,519.432 498.333,511.558 503.59,507.95L506.958,505.466C512.056,501.655 520.01,502.51 525.201,507.977L530.022,513.216C534.785,508.846 539.264,504.131 543.414,499.087L537.892,494.536C532.178,489.667 530.888,481.783 534.381,476.476C534.686,476.038 534.98,475.596 535.273,475.153C521.313,459.162 504.833,445.752 486.186,435.245L483.028,433.468L483.014,429.84C482.986,417.674 481.926,405.302 479.871,393.002C450.201,380.592 417.886,374.676 385.996,375.797C379.708,386.557 374.33,397.786 370.018,409.138L368.737,412.527L365.154,413.078C347.98,415.734 331.218,420.775 315.323,428.065C309.427,430.783 303.645,433.797 298.139,437.031L296.95,437.726C297.287,439.374 297.649,441.014 298.042,442.646L304.953,440.973Z" style="fill:rgb(239,70,35);fill-rule:nonzero;"/>
            <path d="M944.184,683.16L941.411,682.036L941.014,679.07C938.393,659.322 932.145,640.564 922.439,623.312L920.974,620.704L922.521,618.137C927.722,609.507 932.271,600.309 936.062,590.749C920.538,569.471 900.222,551.479 877.036,538.481C867.932,543.438 859.341,549.056 851.464,555.198L849.098,557.035L846.334,555.891C828.032,548.312 808.655,544.366 788.758,544.166L785.765,544.137L784.311,541.516C779.445,532.72 773.75,524.185 767.364,516.102C740.943,518.934 715.195,527.521 692.557,541.035C692.29,551.327 692.871,561.599 694.27,571.534L694.691,574.498L692.317,576.324C680.944,585.085 670.817,595.412 662.215,607.016C659.028,611.333 656.043,615.819 653.346,620.352L651.816,622.914L648.833,622.86C638.712,622.667 628.472,623.315 618.345,624.792C607.607,648.938 602.186,675.544 602.579,702.099C611.405,707.47 620.572,712.09 629.879,715.844L632.659,716.968L633.051,719.938C635.654,739.644 641.905,758.402 651.625,775.692L653.09,778.3L651.546,780.866C646.386,789.417 641.839,798.624 638,808.262C653.524,829.533 673.849,847.521 697.039,860.52C706.081,855.606 714.665,849.988 722.6,843.809L724.959,841.967L727.726,843.112C746.033,850.696 765.406,854.64 785.312,854.837L788.306,854.868L789.756,857.494C794.605,866.257 800.301,874.795 806.702,882.898C833.114,880.066 858.865,871.483 881.517,857.97C881.779,847.688 881.194,837.42 879.789,827.469L879.366,824.502L881.74,822.668C893.1,813.933 903.229,803.609 911.843,791.983C915.035,787.675 918.015,783.199 920.697,778.668L922.223,776.085L925.22,776.141C935.293,776.339 945.542,775.691 955.72,774.21C966.449,750.068 971.872,723.453 971.477,696.896C962.676,691.541 953.507,686.923 944.184,683.16Z" style="fill:rgb(150,172,60);fill-rule:nonzero;"/>
            <path d="M1234.32,485.792C1201.93,495.334 1166.95,478.201 1154.69,446.789C1154,445.031 1153.38,443.215 1152.85,441.393C1147.89,424.583 1149.78,406.849 1158.17,391.46C1166.55,376.073 1180.43,364.87 1197.24,359.918C1229.64,350.372 1264.62,367.508 1276.88,398.925C1277.57,400.681 1278.18,402.492 1278.72,404.309C1288.94,439.016 1269.02,475.569 1234.32,485.792ZM1318,388.034C1312.13,386.646 1306.19,385.734 1300.32,385.324L1298.57,385.2L1297.81,383.621C1292.78,373.101 1285.91,363.788 1277.38,355.938L1276.1,354.751L1276.49,353.042C1277.83,347.297 1278.7,341.353 1279.08,335.344C1266.58,326.306 1252.02,319.964 1236.76,316.922C1232.59,321.329 1228.82,326.012 1225.54,330.856L1224.56,332.307L1222.82,332.169C1211.25,331.261 1199.75,332.57 1188.64,336.058L1186.97,336.583L1185.68,335.387C1181.38,331.371 1176.67,327.649 1171.65,324.303C1157.45,330.661 1144.67,340.1 1134.51,351.718C1136.23,357.497 1138.41,363.111 1140.98,368.388L1141.75,369.962L1140.76,371.408C1136.02,378.344 1132.25,385.925 1129.56,393.943C1128.56,396.922 1127.71,399.959 1127.03,402.971L1126.64,404.674L1124.97,405.184C1119.3,406.907 1113.72,409.121 1108.35,411.775C1106.74,427.161 1108.53,442.955 1113.55,457.669C1119.44,459.061 1125.38,459.975 1131.24,460.382L1132.99,460.503L1133.75,462.087C1138.76,472.587 1145.64,481.9 1154.18,489.768L1155.46,490.956L1155.07,492.662C1153.74,498.358 1152.88,504.305 1152.48,510.366C1164.97,519.399 1179.54,525.738 1194.8,528.78C1198.95,524.408 1202.71,519.728 1206.01,514.852L1206.99,513.4L1208.74,513.537C1220.3,514.447 1231.8,513.138 1242.92,509.647L1244.6,509.122L1245.88,510.322C1250.16,514.324 1254.88,518.046 1259.91,521.4C1274.1,515.045 1286.88,505.607 1297.05,493.986C1295.34,488.215 1293.15,482.604 1290.57,477.318L1289.8,475.743L1290.79,474.292C1295.53,467.374 1299.3,459.792 1302,451.762C1303,448.786 1303.84,445.755 1304.52,442.747L1304.9,441.034L1306.58,440.522C1312.22,438.811 1317.81,436.595 1323.21,433.929C1324.82,418.547 1323.02,402.748 1318,388.034Z" style="fill:rgb(0,138,113);fill-rule:nonzero;"/>
            <path d="M1206.33,197.149C1198.36,196.136 1192.59,189.86 1192.6,183.068C1192.6,181.586 1192.69,180.097 1192.58,178.595C1192.46,171.814 1198.1,165.419 1206.07,164.3L1213.62,163.35C1212.77,156.45 1211.42,149.627 1209.63,142.938L1202.29,144.92C1194.46,146.864 1186.77,143.097 1184.38,136.739L1182.73,132.563C1180.11,126.288 1183.12,118.284 1190.16,114.354L1196.86,110.755C1193.58,104.658 1189.88,98.768 1185.78,93.159L1179.63,97.639C1173.06,102.263 1164.54,101.498 1160,96.462C1159.06,95.313 1157.96,94.282 1156.96,93.182C1152.3,88.239 1152.21,79.705 1157.31,73.529L1162.28,67.723C1157.05,63.264 1151.48,59.113 1145.57,55.352L1141.46,61.773C1137.02,68.46 1128.82,70.854 1122.73,67.794L1118.73,65.802C1112.53,62.965 1109.35,55.001 1111.91,47.348L1114.45,40.175C1107.81,37.839 1101.11,35.986 1094.39,34.623L1092.87,42.091C1091.13,49.932 1084.33,55.089 1077.58,54.439C1076.1,54.268 1074.61,54.134 1073.13,54.063C1066.36,53.558 1060.54,47.327 1060.13,39.311L1059.89,31.698C1052.93,31.892 1046.02,32.619 1039.2,33.787L1040.49,41.272C1041.72,49.255 1037.26,56.545 1030.7,58.357L1026.42,59.597C1019.92,61.662 1012.22,57.923 1008.94,50.526L1005.97,43.537C999.589,46.239 993.386,49.396 987.433,52.944L991.328,59.48C995.329,66.454 993.815,74.896 988.337,78.903C987.133,79.797 985.989,80.745 984.8,81.658C979.461,85.853 970.953,85.146 965.25,79.478L959.947,74.024C955.007,78.798 950.351,83.973 946.055,89.484L952.079,94.182C958.32,99.222 959.932,107.602 956.342,113.383C955.583,114.646 954.711,115.858 954.019,117.194C950.587,123.047 942.387,125.495 935.002,122.259L928.093,119.089C927.139,121.184 926.209,123.322 925.332,125.45C923.574,129.79 922.055,134.151 920.733,138.551L928.015,140.752C935.674,143.207 940.16,150.455 938.903,157.139C938.553,158.578 938.356,160.047 938.116,161.541C936.988,168.216 930.238,173.435 922.223,173.088L914.598,172.623C914.176,179.603 914.233,186.554 914.777,193.414L922.378,192.833C930.404,192.336 937.249,197.443 938.457,204.152L939.289,208.534C940.754,215.173 936.291,222.516 928.673,225.083L921.43,227.393C923.539,234.02 926.106,240.486 929.097,246.733L935.952,243.457C943.281,240.094 951.561,242.375 955.033,248.233L957.438,252.002C961.142,257.705 959.667,266.123 953.475,271.265L947.55,276.033C951.867,281.416 956.578,286.528 961.658,291.31L966.901,285.746C972.492,280 980.989,279.184 986.395,283.284C987.565,284.215 988.744,285.109 989.98,285.958C995.466,289.927 997.168,298.298 993.279,305.333L989.472,311.927C995.417,315.345 1001.64,318.41 1008.17,321.054L1011.03,314.013C1014.19,306.555 1021.84,302.737 1028.36,304.662C1029.79,305.108 1031.23,305.445 1032.68,305.836C1039.24,307.583 1043.81,314.805 1042.71,322.745L1041.53,330.29C1048.45,331.373 1055.38,331.947 1062.27,332.051L1062.39,324.429C1062.65,316.417 1068.37,310.07 1075.13,309.464C1076.61,309.308 1078.11,309.236 1079.57,309.027C1086.32,308.219 1093.22,313.344 1095.07,321.121L1096.71,328.561C1103.5,327.063 1110.18,325.115 1116.67,322.713L1114.04,315.573C1111.37,307.951 1114.4,299.969 1120.53,297.003L1124.52,294.971C1130.54,291.785 1138.78,294.043 1143.35,300.694L1147.55,307.034C1153.32,303.215 1158.83,298.985 1164.06,294.385L1159.01,288.648C1153.8,282.535 1153.79,274.04 1158.37,269.028C1159.43,267.967 1160.36,266.819 1161.34,265.688C1165.83,260.598 1174.31,259.697 1180.95,264.198L1187.19,268.615C1191.14,263.001 1194.74,257.078 1197.97,250.82L1191.21,247.331C1184.11,243.528 1180.95,235.566 1183.5,229.224L1185.08,225.042C1187.39,218.627 1195.01,214.762 1202.84,216.583L1210.23,218.439C1211.95,211.646 1213.18,204.823 1213.92,197.977L1206.33,197.149Z" style="fill:rgb(0,163,198);fill-rule:nonzero;"/>
            <path d="M1284.57,701.832C1278.07,701.005 1273.37,695.884 1273.37,690.339C1273.37,689.13 1273.44,687.914 1273.35,686.689C1273.26,681.153 1277.86,675.934 1284.37,675.021L1290.53,674.244C1289.83,668.614 1288.73,663.044 1287.27,657.584L1281.28,659.203C1274.89,660.789 1268.61,657.714 1266.66,652.525L1265.32,649.117C1263.17,643.994 1265.63,637.461 1271.38,634.254L1276.84,631.317C1274.17,626.34 1271.15,621.534 1267.8,616.955L1262.79,620.611C1257.42,624.386 1250.46,623.762 1246.76,619.65C1246,618.713 1245.1,617.872 1244.28,616.974C1240.48,612.938 1240.4,605.973 1244.57,600.933L1248.62,596.194C1244.35,592.555 1239.81,589.167 1234.98,586.097L1231.63,591.338C1228.01,596.795 1221.31,598.75 1216.35,596.252L1213.07,594.626C1208.01,592.312 1205.43,585.81 1207.51,579.564L1209.58,573.709C1204.16,571.803 1198.69,570.29 1193.21,569.179L1191.97,575.274C1190.55,581.673 1185,585.883 1179.49,585.352C1178.28,585.212 1177.07,585.104 1175.85,585.044C1170.33,584.633 1165.58,579.547 1165.25,573.005L1165.05,566.791C1159.37,566.949 1153.73,567.541 1148.16,568.496L1149.22,574.605C1150.23,581.121 1146.58,587.071 1141.23,588.55L1137.73,589.561C1132.43,591.247 1126.14,588.195 1123.47,582.158L1121.05,576.454C1115.83,578.659 1110.77,581.235 1105.91,584.131L1109.09,589.467C1112.35,595.158 1111.12,602.049 1106.65,605.319C1105.67,606.048 1104.73,606.823 1103.76,607.568C1099.41,610.992 1092.46,610.415 1087.81,605.788L1083.48,601.336C1079.45,605.234 1075.65,609.456 1072.14,613.956L1077.06,617.791C1082.15,621.903 1083.47,628.745 1080.53,633.462C1079.92,634.492 1079.21,635.482 1078.64,636.573C1075.84,641.351 1069.15,643.348 1063.12,640.706L1057.48,638.12C1056.7,639.829 1055.94,641.574 1055.23,643.312C1053.79,646.852 1052.55,650.413 1051.47,654.004L1057.42,655.801C1063.67,657.804 1067.33,663.72 1066.3,669.176C1066.02,670.352 1065.86,671.549 1065.66,672.769C1064.74,678.216 1059.23,682.476 1052.69,682.193L1046.46,681.814C1046.12,687.511 1046.17,693.184 1046.61,698.783L1052.81,698.31C1059.36,697.904 1064.95,702.07 1065.94,707.548L1066.62,711.125C1067.81,716.543 1064.17,722.536 1057.95,724.632L1052.04,726.517C1053.76,731.926 1055.86,737.205 1058.3,742.301L1063.89,739.627C1069.88,736.883 1076.63,738.745 1079.47,743.526L1081.43,746.603C1084.45,751.256 1083.25,758.128 1078.19,762.325L1073.36,766.217C1076.88,770.609 1080.73,774.783 1084.87,778.685L1089.15,774.144C1093.72,769.455 1100.65,768.788 1105.06,772.136C1106.02,772.895 1106.98,773.625 1107.99,774.317C1112.47,777.558 1113.86,784.39 1110.68,790.13L1107.58,795.514C1112.43,798.304 1117.51,800.804 1122.84,802.963L1125.17,797.217C1127.75,791.129 1134,788.013 1139.32,789.583C1140.48,789.948 1141.66,790.223 1142.84,790.542C1148.19,791.968 1151.92,797.861 1151.03,804.345L1150.07,810.501C1155.72,811.386 1161.37,811.854 1166.99,811.939L1167.09,805.717C1167.3,799.178 1171.97,793.999 1177.49,793.503C1178.7,793.375 1179.92,793.318 1181.12,793.145C1186.63,792.487 1192.25,796.669 1193.77,803.018L1195.11,809.09C1200.64,807.868 1206.09,806.278 1211.4,804.318L1209.25,798.49C1207.07,792.269 1209.54,785.753 1214.55,783.333L1217.8,781.674C1222.71,779.073 1229.44,780.917 1233.17,786.344L1236.6,791.519C1241.31,788.402 1245.81,784.95 1250.07,781.196L1245.96,776.513C1241.7,771.523 1241.69,764.588 1245.43,760.5C1246.29,759.633 1247.06,758.697 1247.86,757.773C1251.52,753.619 1258.45,752.884 1263.86,756.558L1268.95,760.163C1272.17,755.581 1275.12,750.746 1277.75,745.639L1272.23,742.79C1266.44,739.687 1263.86,733.188 1265.94,728.012L1267.23,724.598C1269.12,719.363 1275.34,716.206 1281.72,717.693L1287.76,719.208C1289.16,713.664 1290.16,708.095 1290.77,702.508L1284.57,701.832Z" style="fill:rgb(0,140,141);fill-rule:nonzero;"/>
            <path d="M1624.32,385.996C1624.2,386.276 1624.08,386.556 1623.95,386.826C1621.37,392.002 1615.07,394.119 1609.89,391.545C1605.06,389.142 1602.82,383.333 1604.8,378.322C1604.91,378.042 1605.04,377.761 1605.17,377.49C1606.42,374.982 1608.57,373.111 1611.22,372.22C1613.88,371.329 1616.72,371.525 1619.23,372.772C1624.06,375.175 1626.29,380.984 1624.32,385.996ZM1623.9,363.389C1618.88,360.895 1613.2,360.503 1607.89,362.285C1602.58,364.067 1598.28,367.81 1595.79,372.825C1595.52,373.368 1595.27,373.928 1595.05,374.489C1591.09,384.512 1595.56,396.128 1605.22,400.935C1615.57,406.083 1628.18,401.849 1633.33,391.498C1633.6,390.956 1633.85,390.397 1634.07,389.836C1638.03,379.813 1633.56,368.195 1623.9,363.389Z" style="fill:rgb(216,217,218);fill-rule:nonzero;"/>
            <path d="M1661.02,400.445C1660.49,401.78 1659.9,403.109 1659.26,404.399C1647,429.045 1616.97,439.125 1592.33,426.868C1569.32,415.425 1558.68,387.767 1568.1,363.902C1568.63,362.568 1569.22,361.233 1569.86,359.939C1575.8,348 1586.03,339.087 1598.67,334.844C1611.31,330.602 1624.85,331.535 1636.79,337.475C1659.8,348.916 1670.44,376.578 1661.02,400.445ZM1669.27,400.373L1669.6,399.312C1671.8,392.252 1672.62,384.96 1672.05,377.635L1671.96,376.528L1672.88,375.905C1675.98,373.811 1678.95,371.422 1681.72,368.794C1679.81,359.207 1675.77,349.977 1669.99,341.982C1666.15,342.23 1662.38,342.783 1658.77,343.622L1657.69,343.872L1656.94,343.055C1651.95,337.646 1646.04,333.294 1639.37,330.123L1638.37,329.646L1638.29,328.536C1638.02,324.815 1637.44,321.052 1636.55,317.333C1627.21,314.165 1617.2,313.04 1607.46,314.059C1605.77,317.483 1604.36,321.033 1603.28,324.597L1602.96,325.661L1601.88,325.905C1596.68,327.082 1591.66,328.979 1586.95,331.546C1585.2,332.502 1583.5,333.547 1581.88,334.652L1580.97,335.277L1579.97,334.793C1576.59,333.149 1573.04,331.77 1569.4,330.687C1562.02,337.144 1556.04,345.258 1552.03,354.263C1554.17,357.449 1556.53,360.435 1559.08,363.151L1559.84,363.963L1559.51,365.025C1557.31,372.068 1556.49,379.36 1557.07,386.7L1557.15,387.808L1556.23,388.43C1553.16,390.506 1550.19,392.896 1547.4,395.543C1549.31,405.129 1553.34,414.358 1559.12,422.355C1562.94,422.11 1566.7,421.558 1570.34,420.714L1571.42,420.463L1572.18,421.28C1577.16,426.69 1583.07,431.042 1589.74,434.214L1590.74,434.691L1590.82,435.802C1591.09,439.509 1591.67,443.273 1592.57,447.002C1601.9,450.168 1611.92,451.295 1621.65,450.278C1623.34,446.858 1624.75,443.308 1625.83,439.737L1626.15,438.672L1627.24,438.425C1632.42,437.256 1637.45,435.358 1642.16,432.787C1643.91,431.835 1645.61,430.792 1647.22,429.685L1648.14,429.053L1649.14,429.54C1652.5,431.178 1656.05,432.559 1659.71,433.647C1667.09,427.191 1673.07,419.074 1677.08,410.068C1674.95,406.892 1672.58,403.906 1670.03,401.184L1669.27,400.373Z" style="fill:rgb(216,217,218);fill-rule:nonzero;"/>
            <path d="M967.787,514.221C962.884,537.274 940.36,551.979 917.518,547.029C894.66,542.066 880.115,519.355 885.027,496.272C889.927,473.188 912.435,458.507 935.293,463.455C958.153,468.431 972.709,491.144 967.787,514.221ZM972.008,331.211C969.35,330.516 966.671,329.856 963.956,329.254C958.521,328.103 953.096,327.194 947.69,326.536L946.592,335.598C945.276,345.152 937.697,351.99 929.626,351.864C927.845,351.758 926.075,351.838 924.307,351.864C916.223,351.882 908.74,345.006 907.512,335.43L906.501,326.336C898.227,327.242 890.093,328.78 882.147,330.834L884.402,339.705C886.598,349.091 882.049,358.262 874.444,361.072L869.474,362.968C861.993,366.088 852.474,362.317 847.886,353.846L843.691,345.753C836.393,349.604 829.338,353.997 822.623,358.825L827.867,366.234C833.301,374.243 832.308,384.498 826.17,389.807L822.251,393.439C816.32,399.02 806.171,399.003 798.85,392.755L792.042,386.695C786.636,392.938 781.614,399.578 777.054,406.593L784.628,411.615C792.532,417.064 795.21,426.923 791.538,434.183C790.657,435.734 789.865,437.319 789.134,438.955C785.581,446.274 776.145,450.02 767.102,446.87L758.579,443.729C755.794,451.476 753.477,459.5 751.721,467.752L760.569,469.674C769.95,471.879 775.995,480.137 775.071,488.248C774.83,490.029 774.726,491.813 774.586,493.581C773.852,501.728 766.349,508.627 756.803,508.977L747.73,509.146C747.899,517.563 748.626,525.864 749.924,534.031L758.887,532.585C768.349,531.232 776.934,536.694 779.04,544.565C779.512,546.291 779.914,548.039 780.456,549.736C782.785,557.547 778.22,566.779 769.448,570.586L761.081,574.061C764.208,581.778 767.881,589.279 772.045,596.463L779.86,591.855C788.232,587.129 798.237,589.069 802.93,595.721L806.133,600.017C811.106,606.457 810.147,616.712 803.285,623.464L796.735,629.749C802.379,635.79 808.458,641.438 814.939,646.649L820.59,639.507C826.7,632.065 836.684,630.296 843.498,634.679C844.945,635.722 846.473,636.594 847.995,637.515C854.881,641.764 857.673,651.614 853.747,660.398L849.87,668.683C857.242,672.203 864.958,675.254 872.935,677.774L875.615,669.031C878.651,659.866 887.342,654.48 895.271,656.182L900.502,657.165C908.493,658.596 914.593,666.804 914.064,676.434L913.369,685.558C921.709,686.191 929.963,686.234 938.138,685.697L937.541,676.532C937.1,666.907 943.259,658.779 951.21,657.388C952.974,657.081 954.726,656.874 956.464,656.454C964.391,654.909 973.021,660.24 976.007,669.438L978.667,678.179C986.575,675.726 994.286,672.744 1001.75,669.209L997.934,660.945C994.032,652.09 996.87,642.216 1003.84,638.087L1008.37,635.25C1015.19,630.87 1025.21,632.774 1031.25,640.282L1036.84,647.446C1043.33,642.313 1049.46,636.727 1055.22,630.716L1048.68,624.359C1041.92,617.566 1041.07,607.305 1046.04,600.903C1047.21,599.537 1048.17,598.034 1049.26,596.617C1054.08,590.086 1064.08,588.208 1072.37,592.958L1080.18,597.625C1084.35,590.521 1088.07,583.072 1091.27,575.315L1082.89,571.77C1074.16,567.895 1069.67,558.689 1072.01,550.873L1073.5,545.713C1075.56,537.797 1084.28,532.385 1093.76,533.82L1102.68,535.333C1104.05,526.993 1104.84,518.699 1105.07,510.464L1096,510.215C1086.45,509.783 1079.03,502.793 1078.4,494.673C1078.3,492.883 1078.15,491.112 1077.92,489.343C1077.15,481.22 1083.23,473.034 1092.55,470.912L1101.43,469.041C1099.75,460.836 1097.51,452.821 1094.72,445.019L1086.21,448.081C1077.13,451.168 1067.66,447.425 1064.2,440.032L1061.87,435.193C1058.12,427.977 1060.94,418.066 1068.9,412.666L1076.51,407.708C1072.02,400.719 1067.06,394.034 1061.65,387.716L1054.8,393.673C1047.45,399.848 1037.24,399.809 1031.41,394.152C1030.14,392.906 1028.8,391.773 1027.46,390.541C1021.47,385.099 1020.53,374.886 1026.04,366.966L1031.33,359.568C1024.7,354.716 1017.72,350.272 1010.36,346.32L1006.09,354.43C1001.48,362.844 991.991,366.494 984.472,363.442C982.83,362.8 981.221,362.021 979.525,361.486C971.961,358.631 967.409,349.424 969.688,340.041L972.008,331.211Z" style="fill:rgb(203,188,45);fill-rule:nonzero;"/>
            <path d="M920.974,620.704L922.521,618.137C927.722,609.507 932.271,600.309 936.062,590.749C920.538,569.471 900.222,551.479 877.036,538.481C867.932,543.438 859.341,549.056 851.464,555.198L849.098,557.035L846.334,555.891C828.032,548.312 808.655,544.366 788.758,544.166L785.765,544.137L784.311,541.516C779.445,532.72 773.75,524.185 767.364,516.102C760.933,516.792 754.543,517.828 748.228,519.187C748.598,524.179 749.146,529.132 749.924,534.031L758.887,532.585C768.349,531.232 776.934,536.694 779.04,544.565C779.512,546.291 779.914,548.039 780.456,549.736C782.785,557.547 778.22,566.779 769.448,570.586L761.081,574.061C764.208,581.778 767.881,589.279 772.045,596.463L779.86,591.855C788.232,587.129 798.237,589.069 802.93,595.721L806.133,600.017C811.106,606.457 810.147,616.712 803.285,623.464L796.735,629.749C802.379,635.79 808.458,641.438 814.939,646.649L820.59,639.507C826.7,632.065 836.684,630.296 843.498,634.679C844.945,635.722 846.473,636.594 847.995,637.515C854.881,641.764 857.673,651.614 853.747,660.398L849.87,668.683C857.242,672.203 864.958,675.254 872.935,677.774L875.615,669.031C878.651,659.866 887.342,654.48 895.271,656.182L900.502,657.165C908.493,658.596 914.593,666.804 914.064,676.434L913.369,685.558C921.709,686.191 929.963,686.234 938.138,685.697L937.541,676.532C937.396,673.371 937.974,670.378 939.083,667.725C935.843,652.122 930.267,637.227 922.439,623.312L920.974,620.704Z" style="fill:rgb(167,177,56);fill-rule:nonzero;"/>
            <path d="M779.485,538.269L785.533,547.396C793.836,541.899 801.777,535.81 809.3,529.186L802.041,520.928C794.528,512.128 794.518,499.895 801.108,492.681C802.633,491.154 803.983,489.503 805.394,487.873C811.846,480.544 824.069,479.246 833.612,485.729L842.597,492.087C848.286,484.003 853.478,475.475 858.125,466.468L848.388,461.443C838.177,455.969 833.622,444.506 837.295,435.374L839.56,429.354C842.896,420.12 853.86,414.553 865.13,417.177L875.77,419.847C878.246,410.07 880.016,400.246 881.084,390.389L870.153,389.198C858.682,387.739 850.386,378.707 850.396,368.925C850.395,366.792 850.519,364.648 850.366,362.486C850.339,360.979 850.532,359.489 850.883,358.034C849.747,356.806 848.731,355.407 847.886,353.846L843.691,345.753C836.393,349.604 829.338,353.997 822.623,358.825L827.867,366.234C833.301,374.243 832.308,384.498 826.17,389.807L822.251,393.439C816.32,399.02 806.171,399.003 798.85,392.755L792.042,386.695C786.636,392.938 781.614,399.578 777.054,406.593L784.628,411.615C792.532,417.064 795.21,426.923 791.538,434.183C790.657,435.734 789.865,437.319 789.134,438.955C785.581,446.274 776.145,450.02 767.102,446.87L758.579,443.729C755.794,451.476 753.477,459.5 751.721,467.752L760.569,469.674C769.95,471.879 775.995,480.137 775.071,488.248C774.83,490.029 774.726,491.813 774.586,493.581C773.852,501.728 766.349,508.627 756.803,508.977L747.73,509.146C747.881,516.685 748.507,524.125 749.563,531.465L752.377,530.029C761.039,525.443 772.912,528.695 779.485,538.269Z" style="fill:rgb(219,202,35);fill-rule:nonzero;"/>
            <path d="M1352.1,243.037C1351.92,243.487 1351.72,243.935 1351.51,244.368C1347.38,252.666 1337.27,256.059 1328.97,251.933C1321.23,248.081 1317.65,238.77 1320.82,230.736C1320.99,230.286 1321.19,229.836 1321.41,229.401C1323.41,225.382 1326.85,222.381 1331.11,220.953C1335.37,219.525 1339.92,219.839 1343.94,221.838C1351.69,225.69 1355.27,235.003 1352.1,243.037ZM1351.43,206.797C1343.39,202.797 1334.27,202.169 1325.76,205.026C1317.25,207.883 1310.36,213.883 1306.36,221.922C1305.93,222.793 1305.53,223.691 1305.18,224.59C1298.83,240.658 1306,259.281 1321.49,266.986C1338.08,275.238 1358.3,268.452 1366.55,251.857C1366.99,250.988 1367.38,250.094 1367.74,249.194C1374.08,233.125 1366.92,214.5 1351.43,206.797Z" style="fill:rgb(168,192,62);fill-rule:nonzero;"/>
            <path d="M1410.94,266.202C1410.1,268.341 1409.15,270.472 1408.11,272.54C1388.46,312.051 1340.33,328.208 1300.82,308.56C1263.94,290.215 1246.88,245.876 1261.98,207.619C1262.82,205.48 1263.77,203.34 1264.81,201.265C1274.32,182.127 1290.72,167.838 1310.99,161.036C1331.25,154.235 1352.95,155.731 1372.1,165.253C1408.98,183.595 1426.04,227.939 1410.94,266.202ZM1424.17,266.085L1424.7,264.385C1428.22,253.066 1429.54,241.377 1428.62,229.635L1428.48,227.86L1429.96,226.86C1434.92,223.503 1439.68,219.674 1444.12,215.461C1441.06,200.091 1434.59,185.294 1425.32,172.479C1419.17,172.876 1413.12,173.762 1407.33,175.107L1405.6,175.508L1404.39,174.198C1396.41,165.528 1386.93,158.551 1376.24,153.467L1374.63,152.703L1374.5,150.923C1374.07,144.958 1373.13,138.926 1371.71,132.964C1356.74,127.884 1340.69,126.081 1325.08,127.714C1322.37,133.204 1320.11,138.895 1318.38,144.608L1317.87,146.313L1316.13,146.706C1307.8,148.592 1299.75,151.634 1292.2,155.749C1289.4,157.281 1286.67,158.956 1284.08,160.729L1282.61,161.729L1281.01,160.955C1275.59,158.318 1269.9,156.107 1264.07,154.372C1252.23,164.722 1242.65,177.731 1236.22,192.167C1239.64,197.273 1243.43,202.06 1247.52,206.415L1248.74,207.717L1248.21,209.419C1244.69,220.709 1243.37,232.4 1244.29,244.167L1244.43,245.942L1242.95,246.939C1238.03,250.268 1233.27,254.1 1228.79,258.342C1231.85,273.709 1238.32,288.505 1247.59,301.325C1253.7,300.933 1259.74,300.048 1265.57,298.695L1267.31,298.292L1268.51,299.601C1276.5,308.275 1285.97,315.25 1296.67,320.336L1298.28,321.101L1298.41,322.882C1298.83,328.825 1299.77,334.858 1301.2,340.837C1316.17,345.913 1332.22,347.72 1347.83,346.089C1350.54,340.605 1352.79,334.915 1354.53,329.19L1355.04,327.483L1356.78,327.087C1365.1,325.213 1373.15,322.171 1380.71,318.049C1383.51,316.523 1386.24,314.85 1388.82,313.075L1390.29,312.063L1391.89,312.842C1397.28,315.469 1402.98,317.682 1408.84,319.427C1420.67,309.078 1430.26,296.065 1436.69,281.628C1433.27,276.536 1429.48,271.749 1425.39,267.385L1424.17,266.085Z" style="fill:rgb(168,192,62);fill-rule:nonzero;"/>
            <path d="M1558.83,240.676C1553.47,219.266 1566.48,197.565 1587.89,192.204C1609.31,186.827 1631.01,199.848 1636.38,221.257C1641.73,242.675 1628.72,264.375 1607.31,269.744C1585.9,275.099 1564.19,262.094 1558.83,240.676ZM1665.72,229.363L1665.72,229.057L1665.41,228.975C1660.94,227.656 1656.39,226.642 1651.84,225.903C1651.59,223.189 1651.12,220.466 1650.44,217.738C1649.73,214.911 1648.81,212.197 1647.71,209.594C1651.38,206.791 1654.93,203.741 1658.28,200.481L1658.5,200.25L1658.36,199.974C1656.54,196.365 1654.39,192.92 1651.94,189.706L1651.76,189.444L1651.45,189.549C1647.02,191.152 1642.72,193.016 1638.59,195.089C1634.86,190.839 1630.52,187.223 1625.73,184.33C1627.05,179.884 1628.13,175.335 1628.91,170.711L1628.97,170.384L1628.68,170.25C1625.09,168.408 1621.35,166.886 1617.48,165.708L1617.18,165.618L1617,165.879C1614.36,169.772 1611.97,173.784 1609.85,177.894C1604.44,176.633 1598.79,176.2 1593.07,176.678C1591.53,172.345 1589.73,168.08 1587.65,163.881L1587.51,163.598L1587.2,163.65C1583.21,164.261 1579.31,165.239 1575.5,166.581L1575.19,166.67L1575.21,166.998C1575.36,171.651 1575.77,176.245 1576.45,180.757C1571.11,183.009 1566.29,186.051 1562.05,189.699C1558.3,187.125 1554.37,184.746 1550.26,182.592L1549.99,182.45L1549.77,182.666C1546.91,185.537 1544.31,188.646 1542.02,191.95L1541.84,192.204L1542.03,192.457C1544.85,196.081 1547.85,199.497 1551.03,202.733C1548.08,207.61 1545.89,212.942 1544.57,218.543C1540.08,218.67 1535.56,219.051 1531.03,219.706L1530.72,219.743L1530.67,220.063C1530.11,223.584 1529.83,227.134 1529.83,230.698C1529.83,231.183 1529.84,231.66 1529.85,232.152L1529.86,232.465L1530.16,232.547C1534.51,233.815 1538.91,234.8 1543.32,235.545C1543.57,238.417 1544.04,241.31 1544.76,244.203C1545.46,246.992 1546.36,249.677 1547.45,252.25C1543.92,254.957 1540.51,257.902 1537.29,261.042L1537.07,261.258L1537.21,261.542C1539.04,265.151 1541.19,268.596 1543.63,271.817L1543.82,272.063L1544.12,271.959C1548.37,270.423 1552.49,268.656 1556.47,266.672C1560.28,271.057 1564.75,274.801 1569.68,277.754C1568.44,282.02 1567.42,286.382 1566.66,290.812L1566.61,291.125L1566.89,291.266C1570.48,293.101 1574.23,294.622 1578.09,295.8L1578.4,295.898L1578.57,295.628C1581.12,291.885 1583.42,288.022 1585.49,284.078C1591.01,285.345 1596.8,285.778 1602.64,285.218C1604.16,289.424 1605.91,293.563 1607.92,297.643L1608.06,297.918L1608.37,297.866C1612.36,297.247 1616.27,296.277 1620.08,294.95L1620.38,294.831L1620.37,294.532C1620.22,289.954 1619.81,285.442 1619.15,280.99C1624.52,278.693 1629.35,275.576 1633.58,271.862C1637.31,274.405 1641.23,276.792 1645.3,278.932L1645.59,279.066L1645.81,278.843C1648.66,275.986 1651.26,272.876 1653.55,269.565L1653.73,269.305L1653.54,269.051C1650.71,265.412 1647.67,261.967 1644.47,258.708C1647.35,253.861 1649.46,248.529 1650.73,242.98C1655.31,242.861 1659.92,242.473 1664.55,241.81L1664.86,241.765L1664.91,241.459C1665.46,237.932 1665.74,234.382 1665.74,230.825C1665.74,230.34 1665.73,229.855 1665.72,229.363Z" style="fill:rgb(216,217,218);fill-rule:nonzero;"/>
            <path d="M616.979,774.728L617.613,772.668C621.848,758.97 623.433,744.82 622.322,730.608L622.156,728.46L623.932,727.25C629.9,723.187 635.618,718.553 640.95,713.453C637.275,694.85 629.5,676.94 618.364,661.428C610.965,661.91 603.703,662.982 596.744,664.609L594.657,665.095L593.209,663.51C583.61,653.016 572.224,644.571 559.375,638.418L557.439,637.492L557.285,635.339C556.77,628.118 555.642,620.817 553.928,613.601C535.933,607.453 516.643,605.27 497.893,607.247C494.625,613.892 491.915,620.779 489.836,627.694L489.218,629.759L487.13,630.233C477.115,632.516 467.439,636.199 458.37,641.18C455.005,643.034 451.721,645.061 448.607,647.206L446.844,648.418L444.924,647.479C438.415,644.289 431.576,641.613 424.561,639.512C410.333,652.04 398.819,667.785 391.091,685.258C395.203,691.439 399.764,697.232 404.674,702.504L406.14,704.08L405.5,706.141C401.266,719.806 399.684,733.956 400.792,748.197L400.959,750.346L399.186,751.554C393.268,755.582 387.549,760.22 382.161,765.355C385.84,783.955 393.621,801.864 404.759,817.38C412.104,816.905 419.363,815.833 426.368,814.196L428.454,813.71L429.904,815.294C439.504,825.792 450.888,834.235 463.746,840.391L465.678,841.316L465.83,843.472C466.342,850.665 467.472,857.968 469.188,865.204C487.179,871.348 506.468,873.534 525.229,871.561C528.489,864.924 531.197,858.037 533.277,851.106L533.893,849.042L535.985,848.562C545.981,846.293 555.659,842.611 564.742,837.622C568.108,835.775 571.387,833.75 574.49,831.602L576.256,830.376L578.185,831.32C584.662,834.5 591.506,837.179 598.555,839.29C612.774,826.765 624.295,811.013 632.021,793.54C627.92,787.376 623.358,781.582 618.441,776.3L616.979,774.728Z" style="fill:rgb(200,29,110);fill-rule:nonzero;"/>
            <path d="M569.908,673.319L567.624,670.51L568.933,667.133C571.413,660.761 573.523,654.299 575.288,647.77C570.273,644.239 564.972,641.099 559.375,638.418L557.439,637.492L557.285,635.339C556.77,628.118 555.642,620.817 553.928,613.601C535.933,607.453 516.643,605.27 497.893,607.247C494.625,613.892 491.915,620.779 489.836,627.694L489.218,629.759L487.13,630.233C477.115,632.516 467.439,636.199 458.37,641.18C455.005,643.034 451.721,645.061 448.607,647.206L446.844,648.418L444.924,647.479C438.415,644.289 431.576,641.613 424.561,639.512C410.333,652.04 398.819,667.785 391.091,685.258C395.203,691.439 399.764,697.232 404.674,702.504L406.14,704.08L405.5,706.141C401.266,719.806 399.684,733.956 400.792,748.197L400.959,750.346L399.186,751.554C393.268,755.582 387.549,760.22 382.161,765.355C385.802,783.762 393.465,801.488 404.419,816.892C409.435,807.755 413.807,798.319 417.428,788.78L418.708,785.389L422.297,784.829C439.438,782.193 456.204,777.152 472.123,769.851C478.021,767.148 483.792,764.136 489.28,760.896L492.403,759.049L495.549,760.858C506.115,766.945 517.361,772.236 529.021,776.603C554.483,757.263 575.761,732.203 590.836,703.81C584.627,692.998 577.598,682.752 569.908,673.319Z" style="fill:rgb(165,38,113);fill-rule:nonzero;"/>
        </g>
    </g>
    <g transform="matrix(4.16667,0,0,4.16667,-625,-520.833)">
        <path d="M1070.78,163.713C1076.79,164.939 1082.65,161.068 1083.88,155.066C1085.1,149.065 1081.23,143.204 1075.23,141.977C1069.23,140.749 1063.37,144.621 1062.14,150.622C1060.91,156.624 1064.78,162.485 1070.78,163.713Z" style="fill:rgb(241,242,242);fill-rule:nonzero;"/>
    </g>
    <g transform="matrix(4.16667,0,0,4.16667,-625,-520.833)">
        <path d="M1115.36,210.565L1120.76,184.155L1017.16,162.97L1011.78,189.286C1006.77,189.456 1002.34,193.024 1001.29,198.15C1000.06,204.153 1003.93,210.012 1009.94,211.24C1015.94,212.468 1021.8,208.597 1023.03,202.593C1023.99,197.879 1021.81,193.251 1017.92,190.889L1022.1,170.451L1064.58,179.138L1060.44,199.425C1055.72,199.891 1051.66,203.362 1050.66,208.245C1049.43,214.248 1053.31,220.109 1059.31,221.336C1065.31,222.563 1071.17,218.692 1072.4,212.689C1073.41,207.726 1070.94,202.861 1066.66,200.632L1070.79,180.408L1113.28,189.097L1109.13,209.412C1104.46,209.913 1100.44,213.372 1099.45,218.22C1098.22,224.223 1102.09,230.083 1108.09,231.311C1114.1,232.539 1119.96,228.668 1121.18,222.664C1122.2,217.67 1119.69,212.777 1115.36,210.565Z" style="fill:rgb(241,242,242);fill-rule:nonzero;"/>
    </g>
    <g transform="matrix(4.16667,0,0,4.16667,-625,-520.833)">
        <path d="M793.45,639.168C791.5,625.981 779.231,616.875 766.045,618.824C752.86,620.773 743.752,633.042 745.703,646.229L746.548,651.949L794.295,644.888L793.45,639.168Z" style="fill:rgb(241,242,242);fill-rule:nonzero;"/>
    </g>
    <g transform="matrix(4.16667,0,0,4.16667,-625,-520.833)">
        <path d="M765.117,612.554C773.276,611.347 778.911,603.757 777.704,595.6C776.498,587.442 768.908,581.807 760.749,583.013C752.591,584.22 746.958,591.811 748.164,599.968C749.37,608.125 756.959,613.759 765.117,612.554Z" style="fill:rgb(241,242,242);fill-rule:nonzero;"/>
    </g>
    <g transform="matrix(4.16667,0,0,4.16667,-625,-520.833)">
        <path d="M809.387,663.053L811.948,649.679L731.037,661.644L737.372,673.703L747.919,672.145L762.728,722.839L753.56,724.196L755.359,736.368L812.175,727.967L810.375,715.793L800.475,717.258L799.983,664.444L809.387,663.053Z" style="fill:rgb(241,242,242);fill-rule:nonzero;"/>
    </g>
    <g transform="matrix(4.16667,0,0,4.16667,-625,-520.833)">
        <path d="M607.213,406.334C607.457,407.803 608.846,408.795 610.314,408.552C611.783,408.308 612.775,406.919 612.531,405.451C612.287,403.982 610.9,402.99 609.432,403.233C607.963,403.477 606.969,404.866 607.213,406.334Z" style="fill:rgb(241,242,242);fill-rule:nonzero;"/>
    </g>
    <g transform="matrix(4.16667,0,0,4.16667,-625,-520.833)">
        <path d="M643.229,403.157C642.404,398.485 640.705,394.054 638.185,390.074C635.684,386.127 632.482,382.742 628.668,380.014C624.853,377.286 620.616,375.349 616.074,374.256C611.412,373.139 606.633,372.965 601.869,373.738L603.394,383.036C617.744,380.728 631.354,390.404 633.929,404.681L643.229,403.157Z" style="fill:rgb(241,242,242);fill-rule:nonzero;"/>
    </g>
    <g transform="matrix(4.16667,0,0,4.16667,-625,-520.833)">
        <path d="M618.424,407.222L627.729,405.698C625.721,394.84 615.343,387.498 604.41,389.238L605.935,398.538C611.742,397.648 617.269,401.492 618.424,407.222Z" style="fill:rgb(241,242,242);fill-rule:nonzero;"/>
    </g>
    <g transform="matrix(4.16667,0,0,4.16667,-625,-520.833)">
        <path d="M777.666,390.751L599.533,418.6L582.891,312.144L649.855,301.674C649.337,299.968 648.921,298.227 648.614,296.453L581.143,307C578.635,307.394 576.914,309.753 577.307,312.262L594.064,419.455L596.55,435.355C596.941,437.863 599.301,439.583 601.809,439.191L673.367,428.005L673.968,447.997L665.255,449.358L663.588,458.613L728.882,448.406L724.47,440.102L715.756,441.463L710.226,422.243L781.785,411.055C784.293,410.663 786.014,408.304 785.622,405.797L783.137,389.897L771.878,317.881C770.329,319.458 768.696,320.967 766.98,322.402L777.666,390.751Z" style="fill:rgb(241,242,242);fill-rule:nonzero;"/>
    </g>
    <g transform="matrix(4.16667,0,0,4.16667,-625,-520.833)">
        <path d="M729.146,305.089C725.77,305.617 722.606,303.308 722.078,299.934C721.551,296.557 723.858,293.394 727.234,292.867C730.609,292.339 733.772,294.647 734.301,298.024C734.828,301.399 732.52,304.562 729.146,305.089ZM710.403,308.019C707.026,308.546 703.863,306.239 703.335,302.865C702.808,299.488 705.116,296.324 708.492,295.796C711.868,295.268 715.03,297.577 715.559,300.953C716.086,304.329 713.778,307.491 710.403,308.019ZM691.66,310.949C688.284,311.477 685.121,309.17 684.593,305.794C684.065,302.418 686.374,299.254 689.748,298.727C693.125,298.198 696.289,300.507 696.816,303.883C697.344,307.259 695.035,310.421 691.66,310.949ZM710.639,235.416C675.224,240.953 649.972,267.562 654.237,294.847C657.15,313.479 673.072,327.607 694.151,332.935C694.597,335.027 694.878,337.185 694.971,339.395C695.283,346.869 693.452,353.935 690.025,360.003C701.967,356.461 711.281,347.05 714.798,335.228C718.502,335.152 722.275,334.827 726.086,334.232C761.502,328.695 786.754,302.085 782.488,274.798C778.223,247.512 746.054,229.879 710.639,235.416Z" style="fill:rgb(241,242,242);fill-rule:nonzero;"/>
    </g>
    <g transform="matrix(4.16667,0,0,4.16667,-625,-520.833)">
        <path d="M1171.12,744.095L1146.94,740.262C1144.58,739.889 1142.4,741.289 1142.07,743.393L1141.91,744.418C1141.62,746.205 1142.77,747.918 1144.57,748.623C1143.26,749.035 1142.27,750.053 1142.06,751.375L1141.91,752.32C1141.6,754.228 1143.05,756.041 1145.16,756.441C1146.23,758.008 1148.08,759.402 1150.46,760.449C1150.72,761.182 1151.06,761.848 1151.46,762.437C1152.48,763.916 1153.84,764.829 1155.4,765.078C1156.29,765.218 1157.2,765.13 1158.09,764.813C1159.37,764.363 1160.55,763.465 1161.53,762.203C1164.12,761.946 1166.3,761.187 1167.81,760.031C1169.93,760.301 1171.87,759.025 1172.18,757.117L1172.33,756.172C1172.54,754.852 1171.9,753.573 1170.79,752.778C1172.71,752.664 1174.34,751.39 1174.62,749.603L1174.78,748.577C1175.12,746.476 1173.48,744.469 1171.12,744.095Z" style="fill:rgb(241,242,242);fill-rule:nonzero;"/>
    </g>
    <g transform="matrix(4.16667,0,0,4.16667,-625,-520.833)">
        <path d="M1174.48,734.814L1147.14,730.48L1147.1,729.558C1146.78,721.701 1146.41,716.402 1146.04,714.637C1144.99,709.623 1143.31,704.939 1141.67,700.385C1140.24,696.443 1138.9,692.721 1138,688.865C1136.45,682.249 1137.91,674.627 1141.92,668.478C1144.01,665.277 1146.71,662.527 1149.95,660.307C1153.2,658.087 1156.82,656.51 1160.72,655.62L1161.01,655.552C1164.91,654.702 1168.99,654.584 1173,655.2L1173.15,655.224C1177.19,655.884 1181,657.244 1184.45,659.265L1184.71,659.421C1188.14,661.469 1191.1,664.09 1193.5,667.209C1195.9,670.329 1197.62,673.778 1198.61,677.463C1200.52,684.551 1199.56,692.253 1196.04,698.066C1193.99,701.443 1191.57,704.568 1188.98,707.898L1188.94,707.947C1186,711.738 1182.96,715.657 1180.43,720.086C1179.53,721.648 1177.53,726.572 1174.8,733.948L1174.48,734.814ZM1196.94,664.564C1194.2,661.008 1190.83,658.02 1186.9,655.679C1182.91,653.301 1178.52,651.709 1173.84,650.943L1173.68,650.919C1169.01,650.203 1164.31,650.357 1159.78,651.387C1155.34,652.394 1151.21,654.191 1147.5,656.73C1143.8,659.267 1140.7,662.422 1138.29,666.107C1133.65,673.23 1131.96,682.108 1133.78,689.855C1134.73,693.929 1136.18,697.962 1137.59,701.869C1139.17,706.256 1140.81,710.794 1141.79,715.52C1142.34,718.139 1142.79,730.186 1142.92,733.816L1142.93,734.206L1176.94,739.596L1177.33,739.658L1177.46,739.29C1178.7,735.877 1182.86,724.558 1184.19,722.238C1186.58,718.063 1189.53,714.256 1192.41,710.554C1194.95,707.279 1197.58,703.893 1199.75,700.313C1203.87,693.506 1205.01,684.541 1202.8,676.33C1201.66,672.091 1199.68,668.133 1196.94,664.564Z" style="fill:rgb(241,242,242);fill-rule:nonzero;"/>
    </g>
    <g transform="matrix(4.16667,0,0,4.16667,-625,-520.833)">
        <path d="M1180.9,617.173L1176.63,616.495L1172.98,639.546L1177.25,640.223L1180.9,617.173Z" style="fill:rgb(241,242,242);fill-rule:nonzero;"/>
    </g>
    <g transform="matrix(4.16667,0,0,4.16667,-625,-520.833)">
        <path d="M1142.06,644.877L1128.34,625.995L1124.84,628.537L1138.55,647.42L1142.06,644.877Z" style="fill:rgb(241,242,242);fill-rule:nonzero;"/>
    </g>
    <g transform="matrix(4.16667,0,0,4.16667,-625,-520.833)">
        <path d="M1222.98,640.484L1204.1,654.199L1206.64,657.701L1225.52,643.986L1222.98,640.484Z" style="fill:rgb(241,242,242);fill-rule:nonzero;"/>
    </g>
    <g transform="matrix(4.16667,0,0,4.16667,-625,-520.833)">
        <path d="M1098.96,670.775L1122.01,674.428L1122.69,670.154L1099.63,666.5L1098.96,670.775Z" style="fill:rgb(241,242,242);fill-rule:nonzero;"/>
    </g>
    <g transform="matrix(4.16667,0,0,4.16667,-625,-520.833)">
        <path d="M1215.61,684.882L1214.93,689.156L1237.99,692.81L1238.66,688.535L1215.61,684.882Z" style="fill:rgb(241,242,242);fill-rule:nonzero;"/>
    </g>
    <g transform="matrix(4.16667,0,0,4.16667,-625,-520.833)">
        <path d="M377.293,586.437C374.031,593.532 368.201,598.928 360.877,601.639C345.809,607.208 328.885,599.396 323.322,584.369C320.614,577.047 320.918,569.106 324.18,562.014C327.441,554.92 333.271,549.522 340.593,546.813C340.739,546.76 340.884,546.708 341.028,546.657C355.989,541.381 372.642,549.201 378.15,564.084C380.859,571.408 380.556,579.346 377.293,586.437ZM339.254,543.192C330.964,546.258 324.364,552.37 320.67,560.4C316.979,568.432 316.634,577.419 319.7,585.711C325.936,602.557 344.787,611.408 361.723,605.437C361.888,605.38 362.056,605.32 362.219,605.261C370.51,602.194 377.108,596.082 380.801,588.052C384.496,580.021 384.84,571.035 381.773,562.745C375.477,545.732 356.33,536.867 339.254,543.192Z" style="fill:rgb(241,242,242);fill-rule:nonzero;"/>
    </g>
    <g transform="matrix(4.16667,0,0,4.16667,-625,-520.833)">
        <path d="M363.345,608.309C363.011,608.432 362.681,608.524 362.341,608.672C328.228,620.695 291.634,603.18 284.008,599.185C287.214,591.099 303.831,553.281 338.271,540.54C372.672,527.794 409.906,545.627 417.608,549.662C414.395,557.746 397.754,595.58 363.345,608.309ZM420.983,547.101C420.547,546.846 410.113,540.846 394.645,536.487C380.068,532.382 358.127,529.066 336.932,536.918C315.91,544.694 301.486,561.291 293.089,573.844C284.025,587.393 279.947,598.958 279.778,599.444L279.254,600.948L280.633,601.749C281.07,602.002 291.505,608.001 306.975,612.36C321.306,616.397 342.768,619.665 363.625,612.314C363.624,612.313 363.626,612.313 363.627,612.312C363.981,612.188 364.333,612.062 364.686,611.93C385.707,604.152 400.13,587.556 408.528,575.004C417.592,561.454 421.668,549.891 421.837,549.405L422.361,547.898L420.983,547.101Z" style="fill:rgb(241,242,242);fill-rule:nonzero;"/>
    </g>
    <g transform="matrix(4.16667,0,0,4.16667,-625,-520.833)">
        <path d="M345.902,561.077L346.71,564.058L348.45,570.479L342.02,568.776L338.461,567.835C336.944,570.993 336.653,574.736 337.966,578.282C340.532,585.214 348.229,588.759 355.166,586.192C362.096,583.628 365.636,575.927 363.07,568.995C360.51,562.073 352.829,558.532 345.902,561.077Z" style="fill:rgb(241,242,242);fill-rule:nonzero;"/>
    </g>
    <g transform="matrix(4.16667,0,0,4.16667,-625,-520.833)">
        <path d="M324.256,499.101C282.591,513.789 260.64,559.634 275.328,601.301C290.016,642.967 335.861,664.917 377.528,650.23C419.194,635.542 441.143,589.695 426.457,548.03C411.769,506.362 365.923,484.413 324.256,499.101ZM379.2,654.973C334.918,670.581 286.192,647.254 270.584,602.974C254.976,558.691 278.302,509.966 322.585,494.358C366.868,478.748 415.592,502.074 431.2,546.358C446.81,590.638 423.482,639.365 379.2,654.973Z" style="fill:rgb(241,242,242);fill-rule:nonzero;"/>
    </g>
    <g transform="matrix(4.16667,0,0,4.16667,-625,-520.833)">
        <path d="M394.257,678.238L382.059,682.538L372.025,654.072L384.224,649.774L394.257,678.238Z" style="fill:rgb(241,242,242);fill-rule:nonzero;"/>
    </g>
    <g transform="matrix(4.16667,0,0,4.16667,-625,-520.833)">
        <path d="M449.009,670.368C452.241,679.537 429.222,696.009 397.595,707.157C365.967,718.305 337.708,719.909 334.476,710.739C331.243,701.568 354.261,685.098 385.89,673.949C417.517,662.802 445.774,661.198 449.009,670.368Z" style="fill:rgb(241,242,242);fill-rule:nonzero;"/>
    </g>
    <g transform="matrix(4.16667,0,0,4.16667,-625,-520.833)">
        <path d="M990.12,577.804C991.567,574.347 994.919,572.894 998.19,574.261C1001.46,575.628 1002.69,578.998 1001.24,582.455C999.874,585.728 996.67,587.351 993.212,585.906C989.94,584.539 988.753,581.076 990.12,577.804ZM997.649,565.58L998.478,563.072C1000.03,557.791 1004.02,552.978 1011.04,549.326C1017.31,546.132 1021.17,543.463 1022.93,539.257C1024.92,534.492 1023.26,530.062 1017.41,527.507C1014.05,526.099 1009.84,525.658 1006.76,526.457L1006.98,519.63C1011,518.677 1016.96,519.41 1021.91,521.48C1032.66,525.976 1034.74,534.643 1031.77,541.748C1029.12,548.101 1023.65,551.196 1016.93,554.648C1010.79,557.789 1007.57,561.275 1005.86,566.16L1004.94,568.628L997.649,565.58Z" style="fill:rgb(241,242,242);fill-rule:nonzero;"/>
    </g>
    <g transform="matrix(4.16667,0,0,4.16667,-625,-520.833)">
        <path d="M413.603,436.747C410.469,422.777 398.359,365.479 406.015,346.785C414.607,325.804 438.667,315.725 459.648,324.318C480.628,332.911 490.707,356.971 482.114,377.952C474.458,396.645 425.635,428.988 413.603,436.747ZM461.354,320.154C438.076,310.621 411.384,321.802 401.851,345.079C392.604,367.655 409.222,437.904 409.934,440.883L410.661,443.928L413.315,442.268C415.913,440.644 477.032,402.233 486.279,379.657C495.812,356.379 484.631,329.687 461.354,320.154Z" style="fill:rgb(241,242,242);fill-rule:nonzero;"/>
    </g>
    <g transform="matrix(4.16667,0,0,4.16667,-625,-520.833)">
        <path d="M433.412,388.378C419.07,382.504 412.18,366.057 418.054,351.715C423.928,337.374 440.375,330.485 454.717,336.358C469.059,342.232 475.948,358.678 470.074,373.02C464.201,387.362 447.754,394.252 433.412,388.378ZM456.423,332.193C439.784,325.378 420.704,333.372 413.89,350.009C407.075,366.649 415.067,385.728 431.707,392.542C448.345,399.357 467.425,391.365 474.239,374.726C481.054,358.087 473.061,339.007 456.423,332.193Z" style="fill:rgb(241,242,242);fill-rule:nonzero;"/>
    </g>
    <g transform="matrix(4.16667,0,0,4.16667,-625,-520.833)">
        <path d="M503.361,710.263L500.255,713.42L490.759,703.18L486.341,707.277L500.126,722.142L503.361,718.854L538.633,683.002L534.338,678.777L503.361,710.263Z" style="fill:rgb(241,242,242);fill-rule:nonzero;"/>
    </g>
</svg>
