<?xml version="1.0" encoding="UTF-8" standalone="no"?>
<!DOCTYPE svg PUBLIC "-//W3C//DTD SVG 1.1//EN" "http://www.w3.org/Graphics/SVG/1.1/DTD/svg11.dtd">
<svg width="100%" height="100%" viewBox="0 0 5111 2708" version="1.1" xmlns="http://www.w3.org/2000/svg" xmlns:xlink="http://www.w3.org/1999/xlink" xml:space="preserve" xmlns:serif="http://www.serif.com/" style="fill-rule:evenodd;clip-rule:evenodd;stroke-linejoin:round;stroke-miterlimit:2;">
    <g transform="matrix(4.16667,0,0,4.16667,-6764,-7188.21)">
        <g>
            <path d="M2076.12,2030.45C2076.79,2027.03 2080.34,2024.44 2084.44,2024.73L2088.35,2025.08C2088.67,2021.5 2088.72,2017.93 2088.55,2014.39L2084.64,2014.59C2080.52,2014.73 2077.07,2012.02 2076.53,2008.57C2076.4,2007.82 2076.31,2007.05 2076.16,2006.31C2075.51,2002.88 2077.9,1999.17 2081.83,1997.95L2085.58,1996.86C2084.59,1993.44 2083.36,1990.08 2081.91,1986.83L2078.34,1988.43C2074.52,1990.05 2070.33,1988.77 2068.6,1985.73L2067.42,1983.75C2065.59,1980.78 2066.46,1976.47 2069.71,1973.91L2072.82,1971.54C2070.67,1968.72 2068.31,1966.03 2065.78,1963.51L2063.01,1966.29C2060.05,1969.17 2055.7,1969.47 2052.97,1967.29C2052.39,1966.79 2051.77,1966.34 2051.16,1965.88C2048.4,1963.76 2047.65,1959.44 2049.73,1955.89L2051.78,1952.54C2048.77,1950.7 2045.61,1949.06 2042.29,1947.62L2040.74,1951.2C2039.03,1954.96 2035.06,1956.86 2031.72,1955.77L2029.52,1955.1C2026.16,1954.13 2023.91,1950.36 2024.58,1946.29L2025.28,1942.44C2021.74,1941.79 2018.2,1941.39 2014.67,1941.24L2014.5,1945.16C2014.26,1949.28 2011.24,1952.45 2007.75,1952.68C2007,1952.73 2006.23,1952.73 2005.46,1952.84C2001.99,1953.13 1998.52,1950.46 1997.68,1946.41L1996.93,1942.58C1993.43,1943.25 1989.98,1944.17 1986.61,1945.32L1987.87,1949.01C1989.14,1952.96 1987.47,1957.03 1984.29,1958.46L1982.21,1959.45C1979.08,1961.02 1974.88,1959.74 1972.63,1956.27L1970.55,1952.96C1967.54,1954.84 1964.65,1956.94 1961.91,1959.23L1964.42,1962.23C1967.01,1965.44 1966.91,1969.84 1964.48,1972.33C1963.93,1972.85 1963.44,1973.45 1962.91,1974C1960.53,1976.56 1956.16,1976.9 1952.82,1974.49L1949.68,1972.15C1947.57,1974.98 1945.63,1977.97 1943.91,1981.13L1947.34,1983.02C1950.92,1985.06 1952.42,1989.19 1951.06,1992.41L1950.18,1994.53C1948.94,1997.8 1944.96,1999.7 1940.95,1998.65L1937.19,1997.6C1936.22,2001.08 1935.5,2004.58 1935.03,2008.06L1938.91,2008.59C1942.98,2009.21 1945.86,2012.52 1945.76,2016C1945.72,2016.77 1945.7,2017.54 1945.71,2018.3C1945.69,2021.78 1942.69,2024.98 1938.6,2025.46L1934.71,2025.85C1935.04,2029.4 1935.65,2032.92 1936.48,2036.38L1940.27,2035.46C1944.32,2034.56 1948.21,2036.59 1949.36,2039.89L1950.14,2042.05C1951.42,2045.31 1949.77,2049.38 1946.09,2051.31L1942.61,2053.07C1944.21,2056.25 1946.04,2059.32 1948.06,2062.25L1951.28,2060.03C1954.71,2057.75 1959.09,2058.23 1961.33,2060.9C1961.83,2061.49 1962.36,2062.04 1962.87,2062.62C1965.2,2065.22 1965.13,2069.6 1962.41,2072.72L1959.8,2075.62C1962.41,2077.99 1965.22,2080.2 1968.2,2082.21L1970.4,2078.96C1972.77,2075.59 1977.01,2074.48 1980.09,2076.13C1980.77,2076.47 1981.42,2076.88 1982.13,2077.19C1985.24,2078.75 1986.78,2082.87 1985.37,2086.76L1983.98,2090.41C1985.08,2090.83 1986.21,2091.23 1987.33,2091.61C1989.62,2092.36 1991.9,2092.99 1994.2,2093.52L1995.08,2089.71C1996.08,2085.7 1999.64,2083.16 2003.11,2083.57C2003.86,2083.7 2004.62,2083.75 2005.39,2083.82C2008.85,2084.18 2011.76,2087.46 2011.85,2091.58L2011.88,2095.5C2015.46,2095.48 2019.03,2095.21 2022.52,2094.7L2021.97,2090.83C2021.44,2086.73 2023.82,2083.05 2027.22,2082.2L2029.44,2081.62C2032.79,2080.65 2036.7,2082.68 2038.28,2086.5L2039.71,2090.13C2043.03,2088.83 2046.26,2087.29 2049.36,2085.54L2047.45,2082.14C2045.47,2078.5 2046.36,2074.18 2049.25,2072.2L2051.09,2070.84C2053.89,2068.75 2058.25,2069.22 2061.1,2072.22L2063.75,2075.09C2066.36,2072.7 2068.82,2070.11 2071.09,2067.34L2068.06,2064.84C2064.93,2062.17 2064.22,2057.85 2066.14,2054.94C2066.58,2054.31 2066.99,2053.67 2067.39,2053.01C2069.23,2050.06 2073.47,2048.9 2077.2,2050.66L2080.71,2052.38C2082.26,2049.22 2083.62,2045.93 2084.75,2042.49L2081.05,2041.27C2077.12,2039.9 2074.9,2036.11 2075.66,2032.7C2075.84,2031.96 2075.97,2031.2 2076.12,2030.45Z" style="fill:rgb(244,119,32);fill-rule:nonzero;"/>
            <path d="M1936.21,2191.84L1936.98,2189.78C1942.09,2176.12 1944.52,2161.84 1944.19,2147.34L1944.14,2145.15L1946.03,2144.02C1952.36,2140.24 1958.48,2135.86 1964.22,2130.99C1961.52,2111.89 1954.59,2093.25 1944.08,2076.86C1936.49,2076.92 1929,2077.59 1921.79,2078.85L1919.63,2079.22L1918.24,2077.53C1909.02,2066.32 1897.86,2057.09 1885.07,2050.11L1883.14,2049.06L1883.1,2046.86C1882.99,2039.5 1882.25,2032.02 1880.91,2024.59C1862.86,2017.32 1843.25,2013.99 1823.96,2014.92C1820.24,2021.48 1817.08,2028.32 1814.56,2035.23L1813.81,2037.29L1811.65,2037.65C1801.27,2039.39 1791.17,2042.58 1781.61,2047.11C1778.06,2048.8 1774.59,2050.67 1771.28,2052.67L1769.41,2053.8L1767.5,2052.74C1761.02,2049.12 1754.18,2046.01 1747.13,2043.48C1731.86,2055.38 1719.19,2070.71 1710.29,2088.01C1714.14,2094.53 1718.47,2100.67 1723.2,2106.31L1724.6,2107.99L1723.83,2110.05C1718.72,2123.68 1716.3,2137.96 1716.62,2152.49L1716.67,2154.68L1714.79,2155.8C1708.5,2159.55 1702.39,2163.94 1696.59,2168.84C1699.29,2187.94 1706.23,2206.58 1716.74,2222.97C1724.27,2222.91 1731.76,2222.24 1739.02,2220.98L1741.18,2220.6L1742.57,2222.3C1751.79,2233.51 1762.95,2242.73 1775.75,2249.72L1777.67,2250.78L1777.71,2252.97C1777.82,2260.31 1778.56,2267.79 1779.9,2275.24C1797.95,2282.51 1817.56,2285.84 1836.85,2284.91C1840.57,2278.35 1843.73,2271.52 1846.25,2264.6L1847,2262.54L1849.17,2262.17C1859.52,2260.44 1869.63,2257.26 1879.2,2252.71C1882.75,2251.03 1886.22,2249.16 1889.51,2247.16L1891.39,2246.01L1893.31,2247.08C1899.75,2250.68 1906.6,2253.8 1913.69,2256.35C1928.94,2244.44 1941.62,2229.11 1950.52,2211.81C1946.68,2205.31 1942.34,2199.17 1937.62,2193.52L1936.21,2191.84Z" style="fill:rgb(237,28,36);fill-rule:nonzero;"/>
            <path d="M2681.93,1807.88C2669.25,1815.1 2652.8,1811.22 2644.49,1799.04C2644.02,1798.36 2643.58,1797.65 2643.17,1796.92C2639.4,1790.25 2638.41,1782.51 2640.39,1775.14C2642.38,1767.77 2647.09,1761.64 2653.67,1757.89C2666.35,1750.66 2682.8,1754.55 2691.12,1766.73C2691.58,1767.41 2692.03,1768.12 2692.43,1768.84C2700.22,1782.63 2695.51,1800.14 2681.93,1807.88ZM2704.28,1798.18L2704.54,1797.47C2705.85,1794.06 2706.67,1790.46 2707,1786.78C2707.12,1785.42 2707.17,1784.04 2707.16,1782.7L2707.14,1781.93L2707.8,1781.55C2710,1780.27 2712.13,1778.78 2714.14,1777.12C2713.27,1770.41 2710.93,1763.85 2707.33,1758.08C2704.72,1758.06 2702.13,1758.25 2699.62,1758.65L2698.87,1758.77L2698.39,1758.17C2695.22,1754.18 2691.39,1750.88 2687.01,1748.37L2686.35,1747.99L2686.35,1747.23C2686.33,1744.65 2686.1,1742.03 2685.65,1739.44C2679.49,1736.81 2672.72,1735.53 2665.99,1735.72C2664.68,1738.01 2663.56,1740.37 2662.67,1742.75L2662.4,1743.47L2661.65,1743.58C2656.69,1744.32 2651.98,1746 2647.66,1748.57L2647,1748.96L2646.34,1748.57C2644.13,1747.28 2641.77,1746.16 2639.32,1745.22C2633.99,1749.31 2629.55,1754.58 2626.44,1760.52C2627.75,1762.81 2629.23,1764.99 2630.84,1766.99L2631.33,1767.58L2631.05,1768.3C2629.75,1771.71 2628.93,1775.31 2628.6,1778.99C2628.48,1780.35 2628.43,1781.73 2628.44,1783.08L2628.45,1783.84L2627.8,1784.22C2625.59,1785.51 2623.46,1787 2621.46,1788.65C2622.33,1795.36 2624.67,1801.91 2628.27,1807.69C2630.88,1807.71 2633.48,1807.52 2635.98,1807.12L2636.73,1807L2637.21,1807.6C2640.38,1811.58 2644.21,1814.88 2648.59,1817.39L2649.25,1817.77L2649.26,1818.54C2649.27,1821.09 2649.5,1823.71 2649.95,1826.33C2656.11,1828.96 2662.88,1830.24 2669.61,1830.04C2670.92,1827.78 2672.03,1825.42 2672.93,1823.02L2673.2,1822.3L2673.95,1822.19C2678.91,1821.45 2683.62,1819.77 2687.95,1817.2L2688.6,1816.81L2689.26,1817.2C2691.46,1818.48 2693.82,1819.61 2696.28,1820.54C2701.61,1816.45 2706.05,1811.19 2709.16,1805.25C2707.86,1802.96 2706.38,1800.78 2704.76,1798.78L2704.28,1798.18Z" style="fill:rgb(216,217,218);fill-rule:nonzero;"/>
            <path d="M2061.26,2373.94L2062.08,2371.73C2067.55,2357.05 2070.13,2341.71 2069.76,2326.15L2069.71,2323.79L2071.73,2322.58C2078.53,2318.51 2085.08,2313.8 2091.24,2308.56C2088.31,2288.05 2080.84,2268.05 2069.54,2250.47C2061.38,2250.55 2053.34,2251.28 2045.61,2252.64L2043.28,2253.04L2041.79,2251.23C2031.87,2239.21 2019.87,2229.32 2006.13,2221.83L2004.05,2220.71L2004.01,2218.35C2003.88,2210.45 2003.08,2202.42 2001.62,2194.45C1982.23,2186.66 1961.17,2183.12 1940.46,2184.15C1936.48,2191.2 1933.09,2198.55 1930.4,2205.97L1929.59,2208.18L1927.27,2208.57C1916.14,2210.46 1905.29,2213.9 1895.04,2218.78C1891.23,2220.6 1887.5,2222.62 1883.96,2224.77L1881.95,2225.98L1879.89,2224.85C1872.94,2220.98 1865.58,2217.65 1858.01,2214.94C1841.63,2227.74 1828.05,2244.22 1818.52,2262.81C1822.67,2269.8 1827.33,2276.39 1832.41,2282.43L1833.92,2284.24L1833.1,2286.45C1827.64,2301.09 1825.05,2316.43 1825.42,2332.03L1825.48,2334.38L1823.46,2335.59C1816.72,2339.63 1810.16,2344.34 1803.94,2349.62C1806.87,2370.12 1814.35,2390.12 1825.66,2407.71C1833.75,2407.63 1841.79,2406.9 1849.58,2405.53L1851.9,2405.13L1853.39,2406.94C1863.31,2418.97 1875.31,2428.86 1889.07,2436.34L1891.13,2437.47L1891.17,2439.83C1891.3,2447.7 1892.11,2455.73 1893.56,2463.72C1912.95,2471.51 1934.01,2475.05 1954.73,2474.03C1958.7,2466.98 1962.09,2459.63 1964.79,2452.2L1965.59,2449.99L1967.91,2449.59C1979.03,2447.71 1989.87,2444.28 2000.15,2439.39C2003.96,2437.57 2007.67,2435.56 2011.21,2433.41L2013.22,2432.17L2015.29,2433.32C2022.21,2437.18 2029.57,2440.51 2037.18,2443.24C2053.54,2430.43 2067.14,2413.94 2076.66,2395.35C2072.53,2388.39 2067.86,2381.79 2062.77,2375.74L2061.26,2373.94Z" style="fill:rgb(233,197,29);fill-rule:nonzero;"/>
            <path d="M1846.25,2264.6L1847,2262.54L1849.17,2262.17C1859.52,2260.44 1869.63,2257.26 1879.2,2252.71C1882.75,2251.03 1886.22,2249.16 1889.51,2247.16L1891.39,2246.01L1893.31,2247.08C1899.75,2250.68 1906.6,2253.8 1913.69,2256.35C1928.94,2244.44 1941.62,2229.11 1950.52,2211.81C1946.68,2205.31 1942.34,2199.17 1937.62,2193.52L1936.34,2191.99C1934.1,2196.58 1932.11,2201.26 1930.4,2205.97L1929.59,2208.18L1927.27,2208.57C1916.14,2210.46 1905.29,2213.9 1895.04,2218.78C1891.23,2220.6 1887.5,2222.62 1883.96,2224.77L1881.95,2225.98L1879.89,2224.85C1872.94,2220.98 1865.58,2217.65 1858.01,2214.94C1841.63,2227.74 1828.05,2244.22 1818.52,2262.81C1822.67,2269.8 1827.33,2276.39 1832.41,2282.43L1833.92,2284.24L1833.63,2285.02C1834.71,2285 1835.78,2284.96 1836.85,2284.91C1840.57,2278.35 1843.73,2271.52 1846.25,2264.6Z" style="fill:rgb(224,129,39);fill-rule:nonzero;"/>
            <path d="M2883.24,1832.16C2879.01,1830.73 2874.71,1829.66 2870.41,1828.95L2869.13,1828.74L2868.69,1827.53C2865.71,1819.44 2861.29,1812.12 2855.55,1805.75L2854.68,1804.79L2855.09,1803.56C2856.47,1799.42 2857.52,1795.11 2858.21,1790.71C2849.63,1783.21 2839.35,1777.54 2828.33,1774.26C2824.95,1777.21 2821.86,1780.4 2819.12,1783.74L2818.29,1784.74L2817.02,1784.52C2808.57,1783.06 2800.02,1783.23 2791.6,1785.04L2790.33,1785.31L2789.47,1784.35C2786.58,1781.09 2783.37,1778.03 2779.9,1775.23C2769.02,1778.93 2758.96,1785 2750.69,1792.86C2751.56,1797.23 2752.78,1801.51 2754.31,1805.57L2754.77,1806.78L2753.94,1807.78C2749.97,1812.56 2746.68,1817.88 2744.15,1823.59C2743.21,1825.72 2742.38,1827.89 2741.67,1830.06L2741.27,1831.29L2740,1831.55C2735.71,1832.43 2731.45,1833.68 2727.32,1835.26C2725.08,1846.47 2725.31,1858.22 2728,1869.4C2732.24,1870.83 2736.55,1871.91 2740.83,1872.61L2742.11,1872.82L2742.56,1874.03C2745.53,1882.1 2749.95,1889.43 2755.7,1895.8L2756.57,1896.77L2756.16,1898C2754.79,1902.1 2753.74,1906.42 2753.04,1910.85C2761.61,1918.35 2771.9,1924.02 2782.93,1927.3C2786.28,1924.37 2789.37,1921.18 2792.13,1917.82L2792.95,1916.82L2794.23,1917.04C2802.68,1918.5 2811.23,1918.33 2819.65,1916.52L2820.92,1916.25L2821.78,1917.22C2824.66,1920.46 2827.88,1923.52 2831.35,1926.33C2842.23,1922.63 2852.28,1916.56 2860.56,1908.7C2859.7,1904.34 2858.47,1900.06 2856.94,1895.99L2856.47,1894.78L2857.3,1893.78C2861.27,1889.01 2864.57,1883.69 2867.1,1877.96C2868.03,1875.84 2868.87,1873.67 2869.57,1871.5L2869.97,1870.27L2871.24,1870.01C2875.51,1869.13 2879.78,1867.89 2883.93,1866.29C2886.17,1855.08 2885.93,1843.33 2883.24,1832.16Z" style="fill:rgb(84,46,145);fill-rule:nonzero;"/>
            <path d="M2488.97,2080.25L2486.39,2078.65L2486.52,2075.62C2487.34,2055.57 2484.34,2035.77 2477.59,2016.78L2476.57,2013.92L2478.56,2011.63C2485.22,2003.93 2491.35,1995.54 2496.81,1986.65C2484.9,1962.51 2467.76,1941.02 2447.01,1924.21C2437.13,1927.54 2427.57,1931.68 2418.61,1936.47L2415.94,1937.91L2413.37,1936.29C2401.07,1928.53 2387.72,1922.5 2373.68,1918.37C2368.47,1916.84 2363.16,1915.57 2357.91,1914.58L2354.94,1914.02L2353.95,1911.17C2350.6,1901.47 2346.42,1891.96 2341.48,1882.85C2314.77,1881.06 2287.58,1885.18 2262.46,1894.82C2260.43,1905.09 2259.24,1915.41 2258.92,1925.58L2258.82,1928.61L2256.13,1930.02C2238.3,1939.37 2222.64,1951.85 2209.59,1967.13L2207.62,1969.43L2204.64,1968.86C2194.71,1966.94 2184.37,1965.82 2173.87,1965.53C2159.05,1987.71 2149.04,2013.32 2144.76,2039.9C2152.59,2046.79 2160.93,2052.99 2169.57,2058.38L2172.14,2059.98L2172.02,2063.01C2171.19,2083.07 2174.2,2102.86 2180.96,2121.86L2181.97,2124.72L2179.98,2127.01C2173.34,2134.68 2167.21,2143.08 2161.73,2151.99C2173.64,2176.12 2190.78,2197.61 2211.53,2214.44C2221.4,2211.1 2230.96,2206.96 2239.94,2202.16L2242.61,2200.72L2245.18,2202.34C2257.45,2210.09 2270.8,2216.13 2284.86,2220.26C2290.07,2221.79 2295.37,2223.07 2300.61,2224.04L2303.6,2224.59L2304.59,2227.46C2307.92,2237.11 2312.11,2246.63 2317.07,2255.79C2343.76,2257.57 2370.96,2253.44 2396.08,2243.8C2398.1,2233.57 2399.3,2223.24 2399.63,2213.06L2399.73,2210.03L2402.41,2208.62C2420.27,2199.24 2435.93,2186.75 2448.95,2171.51L2450.92,2169.21L2453.9,2169.78C2463.92,2171.72 2474.26,2172.83 2484.67,2173.1C2499.49,2150.92 2509.51,2125.32 2513.79,2098.75C2505.89,2091.81 2497.56,2085.61 2488.97,2080.25Z" style="fill:rgb(168,192,62);fill-rule:nonzero;"/>
            <path d="M2207.51,2184.38C2201.68,2169.44 2185.05,2161.3 2169.64,2165.83C2161.65,2168.19 2155.05,2173.52 2151.06,2180.83C2147.07,2188.15 2146.18,2196.58 2148.53,2204.58C2148.79,2205.45 2149.08,2206.31 2149.41,2207.14C2155.24,2222.08 2171.87,2230.23 2187.27,2225.69C2203.78,2220.83 2213.25,2203.45 2208.39,2186.94C2208.13,2186.08 2207.84,2185.22 2207.51,2184.38Z" style="fill:rgb(0,138,113);fill-rule:nonzero;"/>
            <path d="M2200.51,2270.58C2162,2281.93 2120.41,2261.56 2105.84,2224.22C2105.03,2222.13 2104.29,2219.97 2103.65,2217.8C2097.76,2197.82 2100.01,2176.74 2109.98,2158.44C2119.94,2140.15 2136.44,2126.83 2156.43,2120.94C2194.94,2109.6 2236.53,2129.97 2251.1,2167.32C2251.92,2169.4 2252.65,2171.56 2253.29,2173.72C2265.44,2214.98 2241.76,2258.43 2200.51,2270.58ZM2299.98,2154.37C2293.01,2152.72 2285.94,2151.63 2278.96,2151.15L2276.89,2151L2275.99,2149.12C2270.01,2136.62 2261.83,2125.54 2251.7,2116.21L2250.17,2114.8L2250.64,2112.77C2252.23,2105.94 2253.26,2098.87 2253.71,2091.73C2238.86,2080.99 2221.55,2073.45 2203.41,2069.83C2198.45,2075.07 2193.97,2080.64 2190.07,2086.4L2188.9,2088.12L2186.83,2087.96C2173.08,2086.88 2159.41,2088.43 2146.2,2092.58L2144.21,2093.2L2142.69,2091.78C2137.57,2087.01 2131.97,2082.58 2126.01,2078.61C2109.13,2086.16 2093.93,2097.38 2081.86,2111.2C2083.89,2118.07 2086.48,2124.74 2089.55,2131.01L2090.46,2132.88L2089.29,2134.6C2083.64,2142.85 2079.16,2151.86 2075.96,2161.39C2074.78,2164.94 2073.77,2168.54 2072.96,2172.13L2072.5,2174.15L2070.51,2174.76C2063.77,2176.81 2057.13,2179.44 2050.75,2182.59C2048.84,2200.88 2050.97,2219.66 2056.94,2237.15C2063.94,2238.81 2071,2239.89 2077.97,2240.38L2080.05,2240.52L2080.95,2242.4C2086.91,2254.89 2095.08,2265.96 2105.23,2275.31L2106.76,2276.72L2106.29,2278.75C2104.71,2285.52 2103.68,2292.59 2103.22,2299.8C2118.07,2310.54 2135.39,2318.07 2153.53,2321.69C2158.46,2316.49 2162.93,2310.93 2166.85,2305.13L2168.02,2303.4L2170.1,2303.57C2183.85,2304.65 2197.52,2303.09 2210.73,2298.94L2212.72,2298.32L2214.25,2299.74C2219.34,2304.5 2224.95,2308.93 2230.93,2312.92C2247.8,2305.36 2263,2294.14 2275.08,2280.32C2273.04,2273.47 2270.45,2266.79 2267.38,2260.51L2266.46,2258.64L2267.64,2256.91C2273.28,2248.69 2277.76,2239.67 2280.96,2230.13C2282.15,2226.59 2283.16,2222.99 2283.96,2219.41L2284.41,2217.38L2286.41,2216.77C2293.12,2214.73 2299.76,2212.1 2306.18,2208.93C2308.09,2190.64 2305.96,2171.86 2299.98,2154.37Z" style="fill:rgb(0,138,113);fill-rule:nonzero;"/>
            <path d="M2207.51,2184.38C2201.68,2169.44 2185.05,2161.3 2169.64,2165.83C2169.55,2165.86 2169.46,2165.89 2169.37,2165.92C2179.33,2182.4 2191.82,2197.32 2206.22,2209.94C2209.73,2203.07 2210.73,2194.91 2208.39,2186.94C2208.13,2186.08 2207.84,2185.22 2207.51,2184.38Z" style="fill:rgb(29,170,95);fill-rule:nonzero;"/>
            <path d="M2299.98,2154.37C2293.01,2152.72 2285.94,2151.63 2278.96,2151.15L2276.89,2151L2275.99,2149.12C2270.01,2136.62 2261.83,2125.54 2251.7,2116.21L2250.17,2114.8L2250.64,2112.77C2252.23,2105.94 2253.26,2098.87 2253.71,2091.73C2238.86,2080.99 2221.55,2073.45 2203.41,2069.83C2198.45,2075.07 2193.97,2080.64 2190.07,2086.4L2188.9,2088.12L2186.83,2087.96C2182.2,2087.59 2177.57,2087.54 2172.97,2087.77C2174.17,2097.95 2176.38,2108 2179.59,2117.84C2210.45,2118.41 2239.43,2137.41 2251.1,2167.32C2251.92,2169.4 2252.65,2171.56 2253.29,2173.72C2256.7,2185.31 2257.29,2197.08 2255.45,2208.28C2264.47,2213.06 2273.97,2216.97 2283.83,2219.94C2283.87,2219.76 2283.92,2219.59 2283.96,2219.41L2284.41,2217.38L2286.41,2216.77C2293.12,2214.73 2299.76,2212.1 2306.18,2208.93C2308.09,2190.64 2305.96,2171.86 2299.98,2154.37Z" style="fill:rgb(29,170,95);fill-rule:nonzero;"/>
            <path d="M2351.86,1942.7C2345.08,1941.83 2340.18,1936.5 2340.18,1930.71C2340.18,1929.45 2340.25,1928.18 2340.16,1926.91C2340.06,1921.13 2344.86,1915.69 2351.64,1914.74L2358.07,1913.93C2357.34,1908.06 2356.2,1902.25 2354.67,1896.56L2348.43,1898.24C2341.76,1899.9 2335.22,1896.69 2333.18,1891.28L2331.78,1887.73C2329.54,1882.38 2332.11,1875.57 2338.11,1872.23L2343.8,1869.16C2341.02,1863.98 2337.86,1858.96 2334.38,1854.19L2329.14,1858C2323.55,1861.94 2316.29,1861.29 2312.43,1857C2311.63,1856.02 2310.7,1855.14 2309.84,1854.21C2305.88,1850 2305.8,1842.74 2310.14,1837.48L2314.37,1832.54C2309.92,1828.74 2305.18,1825.21 2300.15,1822.01L2296.65,1827.47C2292.88,1833.17 2285.89,1835.2 2280.72,1832.6L2277.3,1830.9C2272.03,1828.49 2269.33,1821.71 2271.5,1815.2L2273.66,1809.09C2268.01,1807.1 2262.31,1805.53 2256.59,1804.37L2255.3,1810.72C2253.82,1817.4 2248.03,1821.78 2242.28,1821.23C2241.02,1821.09 2239.76,1820.97 2238.49,1820.91C2232.74,1820.48 2227.78,1815.18 2227.43,1808.36L2227.23,1801.88C2221.3,1802.04 2215.42,1802.66 2209.62,1803.66L2210.71,1810.03C2211.77,1816.82 2207.97,1823.02 2202.38,1824.57L2198.73,1825.62C2193.2,1827.38 2186.65,1824.2 2183.86,1817.9L2181.33,1811.95C2175.9,1814.25 2170.62,1816.94 2165.56,1819.96L2168.87,1825.52C2172.28,1831.46 2170.99,1838.64 2166.33,1842.05C2165.3,1842.82 2164.33,1843.62 2163.31,1844.4C2158.77,1847.97 2151.53,1847.37 2146.68,1842.54L2142.16,1837.9C2137.96,1841.97 2134,1846.37 2130.34,1851.06L2135.47,1855.06C2140.78,1859.35 2142.15,1866.48 2139.09,1871.4C2138.45,1872.48 2137.71,1873.51 2137.12,1874.64C2134.2,1879.63 2127.22,1881.71 2120.93,1878.96L2115.05,1876.26C2114.24,1878.04 2113.45,1879.86 2112.7,1881.67C2111.2,1885.36 2109.91,1889.08 2108.79,1892.82L2114.98,1894.7C2121.5,1896.78 2125.32,1902.95 2124.25,1908.64C2123.95,1909.87 2123.79,1911.12 2123.58,1912.39C2122.62,1918.07 2116.88,1922.51 2110.05,1922.22L2103.57,1921.82C2103.21,1927.76 2103.25,1933.68 2103.72,1939.52L2110.19,1939.02C2117.02,1938.6 2122.84,1942.95 2123.87,1948.66L2124.58,1952.39C2125.83,1958.04 2122.03,1964.29 2115.54,1966.47L2109.38,1968.44C2111.17,1974.08 2113.36,1979.58 2115.9,1984.9L2121.74,1982.11C2127.98,1979.25 2135.02,1981.19 2137.98,1986.18L2140.03,1989.38C2143.18,1994.24 2141.92,2001.4 2136.65,2005.78L2131.61,2009.84C2135.29,2014.42 2139.29,2018.77 2143.62,2022.84L2148.08,2018.1C2152.84,2013.21 2160.07,2012.52 2164.67,2016.01C2165.67,2016.8 2166.67,2017.56 2167.72,2018.29C2172.4,2021.66 2173.84,2028.79 2170.53,2034.77L2167.29,2040.39C2172.35,2043.3 2177.65,2045.91 2183.2,2048.16L2185.64,2042.16C2188.33,2035.81 2194.84,2032.56 2200.39,2034.2C2201.61,2034.58 2202.84,2034.87 2204.07,2035.2C2209.65,2036.69 2213.53,2042.84 2212.6,2049.59L2211.6,2056.02C2217.49,2056.94 2223.39,2057.43 2229.25,2057.52L2229.35,2051.03C2229.57,2044.21 2234.44,2038.81 2240.2,2038.29C2241.46,2038.16 2242.73,2038.1 2243.98,2037.92C2249.72,2037.23 2255.59,2041.59 2257.17,2048.21L2258.57,2054.54C2264.34,2053.27 2270.03,2051.61 2275.56,2049.57L2273.31,2043.49C2271.04,2037 2273.62,2030.21 2278.84,2027.69L2282.23,2025.96C2287.35,2023.25 2294.37,2025.17 2298.26,2030.83L2301.83,2036.22C2306.74,2032.97 2311.44,2029.37 2315.88,2025.46L2311.6,2020.57C2307.15,2015.37 2307.15,2008.14 2311.04,2003.87C2311.94,2002.97 2312.74,2002 2313.57,2001.03C2317.39,1996.7 2324.62,1995.93 2330.26,1999.77L2335.57,2003.52C2338.93,1998.74 2342,1993.7 2344.75,1988.38L2338.99,1985.41C2332.96,1982.17 2330.26,1975.39 2332.44,1970L2333.78,1966.44C2335.75,1960.98 2342.23,1957.69 2348.89,1959.24L2355.18,1960.82C2356.64,1955.04 2357.69,1949.23 2358.32,1943.4L2351.86,1942.7Z" style="fill:rgb(255,205,1);fill-rule:nonzero;"/>
            <path d="M2164.67,2016.01C2165.67,2016.8 2166.67,2017.56 2167.72,2018.29C2172.4,2021.66 2173.84,2028.79 2170.53,2034.77L2167.29,2040.39C2172.35,2043.3 2177.65,2045.91 2183.2,2048.16L2185.64,2042.16C2188.33,2035.81 2194.84,2032.56 2200.39,2034.2C2201.61,2034.58 2202.84,2034.87 2204.07,2035.2C2209.65,2036.69 2213.53,2042.84 2212.6,2049.59L2211.6,2056.02C2217.49,2056.94 2223.39,2057.43 2229.25,2057.52L2229.35,2051.03C2229.57,2044.21 2234.44,2038.81 2240.2,2038.29C2241.46,2038.16 2242.73,2038.1 2243.98,2037.92C2249.72,2037.23 2255.59,2041.59 2257.17,2048.21L2258.57,2054.54C2264.34,2053.27 2270.03,2051.61 2275.56,2049.57L2273.31,2043.49C2271.04,2037 2273.62,2030.21 2278.84,2027.69L2282.23,2025.96C2287.35,2023.25 2294.37,2025.17 2298.26,2030.83L2301.83,2036.22C2306.74,2032.97 2311.44,2029.37 2315.88,2025.46L2311.6,2020.57C2307.15,2015.37 2307.15,2008.14 2311.04,2003.87C2311.94,2002.97 2312.74,2002 2313.57,2001.03C2317.39,1996.7 2324.62,1995.93 2330.26,1999.77L2335.57,2003.52C2338.93,1998.74 2342,1993.7 2344.75,1988.38L2338.99,1985.41C2332.96,1982.17 2330.26,1975.39 2332.44,1970L2333.78,1966.44C2335.75,1960.98 2342.23,1957.69 2348.89,1959.24L2355.18,1960.82C2356.64,1955.04 2357.69,1949.23 2358.32,1943.4L2351.86,1942.7C2345.08,1941.83 2340.18,1936.5 2340.18,1930.71C2340.18,1929.45 2340.25,1928.18 2340.16,1926.91C2340.06,1921.13 2344.86,1915.69 2351.64,1914.74L2355.9,1914.2L2354.94,1914.02L2353.95,1911.17C2352.43,1906.77 2350.73,1902.42 2348.88,1898.12L2348.43,1898.24C2341.76,1899.9 2335.22,1896.69 2333.18,1891.28L2331.78,1887.73C2331.08,1886.06 2330.85,1884.25 2331.05,1882.46C2307.74,1882.23 2284.32,1886.44 2262.46,1894.82C2260.43,1905.09 2259.24,1915.41 2258.92,1925.58L2258.82,1928.61L2256.13,1930.02C2238.3,1939.37 2222.64,1951.85 2209.59,1967.13L2207.62,1969.43L2204.64,1968.86C2194.71,1966.94 2184.37,1965.82 2173.87,1965.53C2163.49,1981.07 2155.47,1998.3 2150.13,2016.36C2154.74,2013.11 2160.69,2012.99 2164.67,2016.01Z" style="fill:rgb(220,193,36);fill-rule:nonzero;"/>
            <path d="M2793.29,2174.43C2793.33,2173.14 2793.45,2171.84 2793.39,2170.52C2793.48,2164.6 2798.58,2159.17 2805.57,2158.41L2812.19,2157.78C2811.64,2151.73 2810.65,2145.74 2809.27,2139.84L2802.8,2141.37C2795.91,2142.86 2789.3,2139.35 2787.39,2133.73L2786.06,2130.04C2783.94,2124.49 2786.79,2117.58 2793.05,2114.34L2799,2111.38C2796.31,2105.96 2793.24,2100.72 2789.81,2095.7L2784.31,2099.45C2778.45,2103.31 2771.02,2102.4 2767.2,2097.88C2766.41,2096.85 2765.48,2095.92 2764.63,2094.93C2760.7,2090.48 2760.85,2083.03 2765.48,2077.77L2769.98,2072.83C2765.54,2068.8 2760.78,2065.02 2755.72,2061.57L2751.96,2067.07C2747.9,2072.79 2740.67,2074.65 2735.43,2071.81L2731.99,2069.96C2726.65,2067.31 2724.1,2060.27 2726.54,2053.65L2728.95,2047.46C2723.22,2045.23 2717.42,2043.43 2711.59,2042.05L2710.06,2048.54C2708.32,2055.34 2702.24,2059.65 2696.36,2058.9C2695.07,2058.71 2693.78,2058.55 2692.48,2058.45C2686.58,2057.82 2681.67,2052.22 2681.53,2045.21L2681.53,2038.55C2675.45,2038.53 2669.39,2038.97 2663.4,2039.8L2664.32,2046.38C2665.18,2053.38 2661.08,2059.63 2655.3,2061.03L2651.52,2062C2645.79,2063.62 2639.17,2060.14 2636.51,2053.59L2634.11,2047.41C2628.46,2049.59 2622.95,2052.18 2617.65,2055.11L2620.88,2060.93C2624.18,2067.13 2622.63,2074.46 2617.73,2077.81C2616.65,2078.56 2615.63,2079.36 2614.56,2080.12C2609.79,2083.64 2602.37,2082.79 2597.55,2077.68L2593.06,2072.77C2588.62,2076.8 2584.41,2081.19 2580.5,2085.89L2585.64,2090.16C2590.95,2094.73 2592.13,2102.1 2588.83,2107.05C2588.13,2108.13 2587.34,2109.17 2586.7,2110.31C2583.54,2115.33 2576.31,2117.25 2569.95,2114.21L2564,2111.26C2563.11,2113.06 2562.24,2114.9 2561.41,2116.74C2559.76,2120.48 2558.31,2124.25 2557.03,2128.06L2563.33,2130.18C2569.96,2132.53 2573.68,2138.99 2572.39,2144.79C2572.05,2146.04 2571.83,2147.32 2571.58,2148.62C2570.42,2154.42 2564.38,2158.79 2557.38,2158.26L2550.74,2157.65C2550.18,2163.73 2550.03,2169.81 2550.32,2175.81L2556.97,2175.52C2564,2175.3 2569.84,2179.95 2570.71,2185.85L2571.31,2189.7C2572.41,2195.54 2568.31,2201.83 2561.59,2203.86L2555.19,2205.68C2556.86,2211.53 2558.92,2217.25 2561.36,2222.78L2567.44,2220.11C2573.93,2217.38 2581.1,2219.59 2583.97,2224.81L2585.97,2228.17C2589.05,2233.25 2587.53,2240.56 2581.98,2244.88L2576.67,2248.88C2580.29,2253.71 2584.27,2258.3 2588.57,2262.62L2593.31,2257.9C2598.35,2253.04 2605.79,2252.56 2610.4,2256.29C2611.4,2257.14 2612.41,2257.95 2613.46,2258.72C2618.15,2262.34 2619.4,2269.7 2615.81,2275.74L2612.3,2281.4C2617.4,2284.54 2622.75,2287.39 2628.38,2289.88L2631.07,2283.81C2634.04,2277.38 2640.83,2274.26 2646.47,2276.12C2647.71,2276.55 2648.96,2276.88 2650.21,2277.27C2655.89,2278.97 2659.68,2285.41 2658.51,2292.31L2657.27,2298.87C2663.29,2300.01 2669.32,2300.7 2675.34,2300.98L2675.65,2294.32C2676.1,2287.33 2681.27,2281.95 2687.2,2281.6C2688.49,2281.51 2689.8,2281.49 2691.09,2281.34C2697.01,2280.82 2702.89,2285.49 2704.29,2292.34L2705.52,2298.88C2711.49,2297.76 2717.38,2296.24 2723.12,2294.32L2721.01,2288.01C2718.89,2281.28 2721.76,2274.39 2727.2,2271.97L2730.74,2270.3C2736.08,2267.69 2743.22,2269.89 2747.03,2275.82L2750.52,2281.48C2755.66,2278.3 2760.6,2274.75 2765.29,2270.88L2761.04,2265.73C2756.65,2260.25 2756.88,2252.83 2761.02,2248.57C2761.97,2247.68 2762.82,2246.7 2763.71,2245.74C2767.76,2241.42 2775.21,2240.86 2780.87,2244.98L2786.2,2249.01C2789.81,2244.21 2793.12,2239.14 2796.11,2233.76L2790.3,2230.53C2784.21,2227.01 2781.67,2219.97 2784.07,2214.5L2785.56,2210.89C2787.76,2205.35 2794.52,2202.18 2801.31,2203.99L2807.71,2205.81C2809.4,2199.93 2810.66,2194 2811.5,2188.04L2804.89,2187.11C2797.96,2186 2793.1,2180.36 2793.29,2174.43Z" style="fill:rgb(208,16,140);fill-rule:nonzero;"/>
            <path d="M2474.29,1781.48C2468.65,1813.03 2438.51,1834.03 2406.96,1828.39C2375.42,1822.74 2354.41,1792.61 2360.05,1761.06C2365.69,1729.51 2395.84,1708.51 2427.38,1714.16C2458.92,1719.79 2479.92,1749.93 2474.29,1781.48ZM2497.12,1779.88C2492.61,1779.3 2489.35,1775.75 2489.35,1771.91C2489.35,1771.07 2489.4,1770.23 2489.34,1769.38C2489.27,1765.54 2492.46,1761.92 2496.97,1761.29L2501.24,1760.75C2500.76,1756.85 2500,1752.99 2498.98,1749.2L2494.83,1750.32C2490.4,1751.42 2486.05,1749.29 2484.7,1745.69L2483.77,1743.33C2482.28,1739.78 2483.99,1735.25 2487.97,1733.03L2491.76,1730.99C2489.91,1727.54 2487.81,1724.21 2485.49,1721.04L2482.01,1723.57C2478.3,1726.19 2473.47,1725.75 2470.9,1722.9C2470.37,1722.25 2469.75,1721.67 2469.18,1721.05C2466.55,1718.25 2466.5,1713.42 2469.38,1709.93L2472.19,1706.64C2469.23,1704.12 2466.08,1701.77 2462.74,1699.64L2460.41,1703.28C2457.9,1707.06 2453.26,1708.42 2449.82,1706.68L2447.55,1705.56C2444.04,1703.95 2442.25,1699.44 2443.69,1695.11L2445.13,1691.06C2441.37,1689.73 2437.58,1688.68 2433.78,1687.91L2432.92,1692.14C2431.94,1696.58 2428.09,1699.5 2424.27,1699.13C2423.43,1699.03 2422.59,1698.95 2421.75,1698.91C2417.92,1698.63 2414.62,1695.1 2414.39,1690.57L2414.26,1686.26C2410.32,1686.37 2406.41,1686.78 2402.55,1687.44L2403.28,1691.68C2403.98,1696.19 2401.46,1700.32 2397.74,1701.34L2395.31,1702.04C2391.64,1703.21 2387.28,1701.1 2385.43,1696.91L2383.75,1692.96C2380.14,1694.49 2376.63,1696.27 2373.26,1698.28L2375.46,1701.98C2377.72,1705.92 2376.87,1710.7 2373.77,1712.97C2373.09,1713.47 2372.44,1714.01 2371.77,1714.53C2368.75,1716.9 2363.93,1716.5 2360.71,1713.29L2357.71,1710.21C2354.91,1712.91 2352.28,1715.84 2349.85,1718.96L2353.25,1721.62C2356.79,1724.47 2357.7,1729.21 2355.67,1732.48C2355.24,1733.19 2354.74,1733.88 2354.35,1734.64C2352.41,1737.95 2347.77,1739.33 2343.59,1737.5L2339.68,1735.71C2339.14,1736.89 2338.62,1738.1 2338.12,1739.31C2337.13,1741.76 2336.26,1744.23 2335.52,1746.72L2339.64,1747.97C2343.97,1749.35 2346.51,1753.46 2345.8,1757.24C2345.6,1758.05 2345.49,1758.88 2345.35,1759.73C2344.71,1763.51 2340.89,1766.46 2336.36,1766.26L2332.04,1766C2331.81,1769.95 2331.84,1773.88 2332.15,1777.76L2336.45,1777.44C2340.99,1777.15 2344.86,1780.04 2345.54,1783.84L2346.02,1786.32C2346.85,1790.08 2344.32,1794.23 2340.01,1795.68L2335.91,1796.99C2337.1,1800.74 2338.56,1804.4 2340.25,1807.93L2344.13,1806.08C2348.28,1804.18 2352.96,1805.47 2354.93,1808.78L2356.29,1810.92C2358.38,1814.14 2357.55,1818.91 2354.04,1821.82L2350.69,1824.51C2353.13,1827.56 2355.8,1830.45 2358.67,1833.16L2361.64,1830.01C2364.8,1826.76 2369.61,1826.3 2372.67,1828.62C2373.33,1829.14 2374,1829.65 2374.7,1830.13C2377.8,1832.38 2378.77,1837.11 2376.57,1841.09L2374.41,1844.82C2377.78,1846.76 2381.3,1848.49 2384.99,1849.99L2386.61,1846C2388.4,1841.78 2392.73,1839.62 2396.42,1840.71C2397.22,1840.97 2398.04,1841.16 2398.86,1841.38C2402.57,1842.37 2405.16,1846.45 2404.54,1850.95L2403.87,1855.21C2407.79,1855.83 2411.7,1856.15 2415.6,1856.21L2415.67,1851.9C2415.82,1847.36 2419.05,1843.77 2422.88,1843.43C2423.72,1843.34 2424.57,1843.3 2425.39,1843.18C2429.21,1842.73 2433.11,1845.63 2434.17,1850.03L2435.09,1854.24C2438.93,1853.39 2442.71,1852.29 2446.39,1850.93L2444.9,1846.89C2443.38,1842.57 2445.1,1838.06 2448.57,1836.38L2450.83,1835.23C2454.23,1833.43 2458.9,1834.7 2461.48,1838.47L2463.86,1842.05C2467.12,1839.89 2470.24,1837.5 2473.2,1834.9L2470.35,1831.65C2467.39,1828.19 2467.39,1823.38 2469.98,1820.55C2470.58,1819.95 2471.11,1819.3 2471.66,1818.66C2474.2,1815.78 2479,1815.27 2482.75,1817.82L2486.29,1820.32C2488.52,1817.14 2490.56,1813.79 2492.39,1810.25L2488.56,1808.27C2484.55,1806.12 2482.76,1801.62 2484.2,1798.03L2485.09,1795.66C2486.4,1792.03 2490.71,1789.84 2495.14,1790.87L2499.32,1791.92C2500.3,1788.08 2500.99,1784.22 2501.41,1780.35L2497.12,1779.88Z" style="fill:rgb(0,163,198);fill-rule:nonzero;"/>
            <path d="M2692.89,1920.96C2685.19,1919.14 2677.4,1917.94 2669.7,1917.4L2667.41,1917.24L2666.42,1915.17C2659.82,1901.37 2650.8,1889.16 2639.62,1878.86L2637.93,1877.3L2638.45,1875.06C2640.21,1867.53 2641.34,1859.73 2641.84,1851.85C2625.46,1840 2606.35,1831.68 2586.34,1827.69C2580.87,1833.47 2575.93,1839.61 2571.63,1845.96L2570.34,1847.87L2568.05,1847.69C2552.89,1846.5 2537.8,1848.21 2523.23,1852.79L2521.04,1853.48L2519.35,1851.91C2513.71,1846.64 2507.53,1841.76 2500.95,1837.37C2482.33,1845.71 2465.56,1858.09 2452.24,1873.33C2454.49,1880.91 2457.34,1888.27 2460.73,1895.19L2461.74,1897.25L2460.44,1899.15C2454.21,1908.25 2449.26,1918.19 2445.74,1928.71C2444.44,1932.62 2443.32,1936.6 2442.42,1940.55L2441.92,1942.78L2439.72,1943.45C2432.29,1945.71 2424.96,1948.61 2417.92,1952.1C2415.81,1972.28 2418.16,1992.99 2424.75,2012.29C2432.47,2014.11 2440.26,2015.31 2447.95,2015.85L2450.24,2016L2451.23,2018.08C2457.81,2031.85 2466.83,2044.07 2478.03,2054.39L2479.71,2055.95L2479.2,2058.18C2477.46,2065.65 2476.32,2073.46 2475.81,2081.4C2492.19,2093.25 2511.3,2101.56 2531.32,2105.55C2536.75,2099.82 2541.69,2093.68 2546.01,2087.29L2547.3,2085.38L2549.59,2085.56C2564.76,2086.75 2579.84,2085.04 2594.42,2080.46L2596.62,2079.77L2598.3,2081.34C2603.92,2086.59 2610.11,2091.48 2616.7,2095.88C2635.32,2087.54 2652.08,2075.16 2665.42,2059.92C2663.17,2052.35 2660.31,2044.99 2656.92,2038.06L2655.91,2035.99L2657.21,2034.09C2663.43,2025.02 2668.37,2015.07 2671.91,2004.54C2673.21,2000.64 2674.33,1996.66 2675.21,1992.72L2675.71,1990.47L2677.92,1989.8C2685.32,1987.55 2692.65,1984.65 2699.73,1981.15C2701.83,1960.98 2699.48,1940.26 2692.89,1920.96Z" style="fill:rgb(0,141,169);fill-rule:nonzero;"/>
            <path d="M2488.97,2080.25L2486.39,2078.65L2486.52,2075.62C2487.34,2055.57 2484.34,2035.77 2477.59,2016.78L2476.57,2013.92L2478.56,2011.63C2485.22,2003.93 2491.35,1995.54 2496.81,1986.65C2484.96,1962.61 2467.9,1941.21 2447.27,1924.42C2446.74,1925.84 2446.22,1927.27 2445.74,1928.71C2444.44,1932.62 2443.32,1936.6 2442.42,1940.55L2441.92,1942.78L2439.72,1943.45C2432.29,1945.71 2424.96,1948.61 2417.92,1952.1C2415.81,1972.28 2418.16,1992.99 2424.75,2012.29C2432.47,2014.11 2440.26,2015.31 2447.95,2015.85L2450.24,2016L2451.23,2018.08C2457.81,2031.85 2466.83,2044.07 2478.03,2054.39L2479.71,2055.95L2479.2,2058.18C2477.46,2065.65 2476.32,2073.46 2475.81,2081.4C2487.23,2089.66 2499.98,2096.2 2513.43,2100.76C2513.55,2100.09 2513.68,2099.42 2513.79,2098.75C2505.89,2091.81 2497.56,2085.61 2488.97,2080.25Z" style="fill:rgb(0,154,185);fill-rule:nonzero;"/>
            <path d="M2867.78,2087.49C2860.25,2129.62 2820,2157.67 2777.86,2150.14C2735.74,2142.59 2707.7,2102.35 2715.22,2060.22C2722.76,2018.09 2763.01,1990.04 2805.14,1997.59C2847.26,2005.11 2875.3,2045.36 2867.78,2087.49ZM2898.26,2085.35C2892.24,2084.59 2887.89,2079.85 2887.89,2074.71C2887.89,2073.59 2887.96,2072.47 2887.88,2071.33C2887.79,2066.21 2892.05,2061.38 2898.07,2060.53L2903.78,2059.81C2903.13,2054.6 2902.11,2049.44 2900.76,2044.39L2895.21,2045.89C2889.29,2047.36 2883.49,2044.51 2881.68,2039.71L2880.44,2036.55C2878.45,2031.81 2880.73,2025.76 2886.05,2022.79L2891.11,2020.07C2888.64,2015.46 2885.84,2011.01 2882.74,2006.78L2878.09,2010.16C2873.13,2013.65 2866.69,2013.08 2863.26,2009.27C2862.55,2008.4 2861.72,2007.62 2860.96,2006.79C2857.44,2003.06 2857.37,1996.61 2861.23,1991.94L2864.98,1987.55C2861.03,1984.19 2856.82,1981.05 2852.35,1978.21L2849.25,1983.06C2845.9,1988.11 2839.7,1989.92 2835.1,1987.61L2832.07,1986.1C2827.39,1983.96 2824.99,1977.94 2826.92,1972.16L2828.83,1966.74C2823.82,1964.97 2818.76,1963.57 2813.68,1962.54L2812.53,1968.19C2811.22,1974.11 2806.08,1978.01 2800.98,1977.52C2799.86,1977.39 2798.74,1977.29 2797.61,1977.23C2792.5,1976.85 2788.1,1972.14 2787.79,1966.09L2787.61,1960.33C2782.35,1960.48 2777.13,1961.03 2771.98,1961.91L2772.95,1967.57C2773.88,1973.6 2770.51,1979.11 2765.55,1980.48L2762.31,1981.41C2757.41,1982.98 2751.59,1980.15 2749.11,1974.56L2746.87,1969.28C2742.05,1971.32 2737.36,1973.71 2732.86,1976.39L2735.8,1981.33C2738.83,1986.6 2737.68,1992.98 2733.54,1996C2732.63,1996.68 2731.77,1997.39 2730.87,1998.08C2726.84,2001.25 2720.41,2000.72 2716.1,1996.44L2712.09,1992.32C2708.36,1995.92 2704.84,1999.83 2701.59,2004L2706.15,2007.55C2710.86,2011.36 2712.08,2017.69 2709.37,2022.06C2708.79,2023.01 2708.14,2023.93 2707.61,2024.94C2705.02,2029.36 2698.82,2031.21 2693.24,2028.76L2688.02,2026.37C2687.3,2027.95 2686.6,2029.57 2685.93,2031.18C2684.61,2034.45 2683.46,2037.75 2682.46,2041.08L2687.96,2042.74C2693.75,2044.59 2697.14,2050.07 2696.19,2055.12C2695.92,2056.21 2695.78,2057.32 2695.59,2058.45C2694.74,2063.49 2689.64,2067.43 2683.58,2067.17L2677.82,2066.82C2677.5,2072.1 2677.55,2077.35 2677.96,2082.53L2683.7,2082.09C2689.77,2081.72 2694.94,2085.57 2695.85,2090.65L2696.48,2093.96C2697.59,2098.97 2694.22,2104.52 2688.46,2106.46L2682.99,2108.21C2684.58,2113.22 2686.52,2118.1 2688.78,2122.82L2693.96,2120.34C2699.5,2117.8 2705.75,2119.53 2708.38,2123.95L2710.2,2126.8C2713,2131.11 2711.88,2137.47 2707.2,2141.36L2702.72,2144.96C2705.98,2149.03 2709.54,2152.89 2713.38,2156.5L2717.35,2152.3C2721.57,2147.96 2727.99,2147.34 2732.08,2150.44C2732.96,2151.14 2733.85,2151.82 2734.78,2152.46C2738.93,2155.46 2740.22,2161.79 2737.28,2167.1L2734.4,2172.08C2738.89,2174.67 2743.59,2176.98 2748.53,2178.98L2750.69,2173.66C2753.08,2168.03 2758.86,2165.14 2763.79,2166.59C2764.87,2166.93 2765.96,2167.19 2767.05,2167.48C2772,2168.8 2775.46,2174.26 2774.63,2180.26L2773.74,2185.96C2778.97,2186.78 2784.2,2187.21 2789.41,2187.29L2789.5,2181.53C2789.7,2175.48 2794.02,2170.68 2799.13,2170.22C2800.24,2170.1 2801.38,2170.05 2802.48,2169.89C2807.58,2169.28 2812.79,2173.15 2814.2,2179.03L2815.44,2184.65C2820.56,2183.52 2825.61,2182.05 2830.52,2180.23L2828.53,2174.84C2826.51,2169.08 2828.8,2163.05 2833.44,2160.81L2836.45,2159.27C2841,2156.86 2847.22,2158.57 2850.68,2163.6L2853.85,2168.38C2858.21,2165.5 2862.38,2162.31 2866.32,2158.83L2862.51,2154.49C2858.57,2149.88 2858.56,2143.45 2862.02,2139.67C2862.82,2138.87 2863.53,2138 2864.27,2137.14C2867.66,2133.3 2874.08,2132.62 2879.08,2136.02L2883.8,2139.36C2886.79,2135.11 2889.51,2130.64 2891.95,2125.91L2886.84,2123.27C2881.48,2120.4 2879.09,2114.38 2881.02,2109.59L2882.21,2106.43C2883.96,2101.58 2889.71,2098.66 2895.63,2100.04L2901.21,2101.44C2902.51,2096.31 2903.44,2091.15 2904,2085.98L2898.26,2085.35Z" style="fill:rgb(0,140,141);fill-rule:nonzero;"/>
            <path d="M2793.39,2170.52C2793.48,2164.6 2798.58,2159.17 2805.57,2158.41L2812.19,2157.78C2811.92,2154.79 2811.53,2151.8 2811.05,2148.84C2800.53,2151.59 2789.27,2152.18 2777.86,2150.14C2735.74,2142.59 2707.7,2102.35 2715.22,2060.22C2716.22,2054.65 2717.8,2049.34 2719.87,2044.31C2717.12,2043.46 2714.36,2042.71 2711.59,2042.05L2710.06,2048.54C2708.32,2055.34 2702.24,2059.65 2696.36,2058.9C2696.08,2058.86 2695.8,2058.83 2695.52,2058.79C2694.5,2063.67 2689.5,2067.43 2683.58,2067.17L2677.82,2066.82C2677.5,2072.1 2677.55,2077.35 2677.96,2082.53L2683.7,2082.09C2689.77,2081.72 2694.94,2085.57 2695.85,2090.65L2696.48,2093.96C2697.59,2098.97 2694.22,2104.52 2688.46,2106.46L2682.99,2108.21C2684.58,2113.22 2686.52,2118.1 2688.78,2122.82L2693.96,2120.34C2699.5,2117.8 2705.75,2119.53 2708.38,2123.95L2710.2,2126.8C2713,2131.11 2711.88,2137.47 2707.2,2141.36L2702.72,2144.96C2705.98,2149.03 2709.54,2152.89 2713.38,2156.5L2717.35,2152.3C2721.57,2147.96 2727.99,2147.34 2732.08,2150.44C2732.96,2151.14 2733.85,2151.82 2734.78,2152.46C2738.93,2155.46 2740.22,2161.79 2737.28,2167.1L2734.4,2172.08C2738.89,2174.67 2743.59,2176.98 2748.53,2178.98L2750.69,2173.66C2753.08,2168.03 2758.86,2165.14 2763.79,2166.59C2764.87,2166.93 2765.96,2167.19 2767.05,2167.48C2772,2168.8 2775.46,2174.26 2774.63,2180.26L2773.74,2185.96C2778.97,2186.78 2784.2,2187.21 2789.41,2187.29L2789.5,2181.53C2789.61,2178.02 2791.12,2174.94 2793.36,2172.88C2793.4,2172.09 2793.43,2171.31 2793.39,2170.52Z" style="fill:rgb(53,91,138);fill-rule:nonzero;"/>
            <path d="M2371.51,2375.37C2364.03,2398.28 2339.61,2411.8 2315.92,2406.14C2314.59,2405.82 2313.25,2405.44 2311.95,2405.01C2299.92,2401.04 2290.13,2392.67 2284.37,2381.46C2278.61,2370.24 2277.58,2357.52 2281.46,2345.63C2288.94,2322.71 2313.36,2309.2 2337.05,2314.86C2338.38,2315.17 2339.71,2315.55 2341.01,2315.98C2365.84,2324.19 2379.52,2350.83 2371.51,2375.37ZM2401.88,2341.92C2397.74,2340.56 2393.51,2339.55 2389.31,2338.9L2388.06,2338.71L2387.6,2337.53C2385.41,2331.92 2382.42,2326.6 2378.74,2321.74C2377.37,2319.94 2375.91,2318.2 2374.39,2316.57L2373.53,2315.65L2373.9,2314.45C2375.17,2310.44 2376.13,2306.25 2376.73,2302C2368.22,2294.76 2358.08,2289.35 2347.28,2286.28C2344.06,2289.15 2341.1,2292.26 2338.47,2295.54L2337.69,2296.52L2336.44,2296.31C2328.13,2294.96 2319.79,2295.18 2311.65,2296.97L2310.42,2297.24L2309.56,2296.31C2306.68,2293.18 2303.5,2290.24 2300.07,2287.55C2289.61,2291.19 2279.92,2297.14 2271.91,2304.85C2272.83,2309.1 2274.09,2313.22 2275.65,2317.13L2276.11,2318.3L2275.32,2319.27C2270.08,2325.68 2266.19,2332.96 2263.75,2340.91L2263.38,2342.1L2262.15,2342.37C2258.01,2343.25 2253.88,2344.49 2249.84,2346.07C2247.86,2357 2248.29,2368.36 2251.08,2379.07C2255.22,2380.43 2259.45,2381.45 2263.64,2382.1L2264.89,2382.29L2265.35,2383.46C2267.56,2389.09 2270.54,2394.4 2274.22,2399.26C2275.59,2401.06 2277.05,2402.8 2278.57,2404.43L2279.43,2405.36L2279.05,2406.55C2277.78,2410.58 2276.83,2414.76 2276.23,2419C2284.74,2426.24 2294.88,2431.65 2305.68,2434.72C2308.91,2431.84 2311.86,2428.73 2314.48,2425.46L2315.27,2424.48L2316.52,2424.68C2324.81,2426.04 2333.15,2425.81 2341.31,2424.02L2342.54,2423.75L2343.4,2424.69C2346.25,2427.79 2349.44,2430.73 2352.89,2433.45C2363.35,2429.81 2373.04,2423.86 2381.06,2416.14C2380.14,2411.93 2378.88,2407.8 2377.31,2403.87L2376.85,2402.7L2377.64,2401.73C2382.88,2395.32 2386.77,2388.04 2389.21,2380.09L2389.58,2378.89L2390.81,2378.63C2394.94,2377.75 2399.07,2376.51 2403.12,2374.93C2405.1,2364 2404.67,2352.64 2401.88,2341.92Z" style="fill:rgb(216,217,218);fill-rule:nonzero;"/>
            <path d="M1676.84,1849.88C1671.98,1849.01 1667.33,1852.25 1666.46,1857.11C1665.59,1861.97 1668.83,1866.61 1673.69,1867.48C1678.55,1868.35 1683.2,1865.12 1684.07,1860.25C1684.93,1855.39 1681.7,1850.75 1676.84,1849.88Z" style="fill:rgb(216,217,218);fill-rule:nonzero;"/>
            <path d="M1704.6,1863.92C1701.71,1880.13 1686.22,1890.92 1670.02,1888.02C1653.82,1885.12 1643.03,1869.64 1645.92,1853.43C1648.82,1837.23 1664.31,1826.44 1680.51,1829.34C1696.71,1832.24 1707.5,1847.72 1704.6,1863.92ZM1716.33,1863.1C1714.01,1862.81 1712.34,1860.98 1712.34,1859.01C1712.34,1858.58 1712.37,1858.15 1712.34,1857.71C1712.3,1855.74 1713.94,1853.88 1716.26,1853.55L1718.45,1853.28C1718.2,1851.27 1717.81,1849.29 1717.29,1847.35L1715.16,1847.92C1712.88,1848.49 1710.65,1847.39 1709.95,1845.54L1709.47,1844.33C1708.71,1842.51 1709.59,1840.18 1711.63,1839.04L1713.58,1837.99C1712.63,1836.22 1711.55,1834.51 1710.36,1832.88L1708.57,1834.18C1706.66,1835.52 1704.18,1835.3 1702.87,1833.84C1702.59,1833.5 1702.27,1833.2 1701.98,1832.88C1700.63,1831.45 1700.6,1828.97 1702.08,1827.17L1703.53,1825.48C1702.01,1824.19 1700.39,1822.98 1698.67,1821.89L1697.48,1823.75C1696.19,1825.7 1693.8,1826.4 1692.03,1825.51L1690.87,1824.93C1689.07,1824.1 1688.15,1821.79 1688.89,1819.56L1689.63,1817.48C1687.7,1816.8 1685.75,1816.26 1683.8,1815.87L1683.35,1818.04C1682.85,1820.31 1680.87,1821.81 1678.91,1821.62C1678.48,1821.58 1678.05,1821.54 1677.62,1821.51C1675.65,1821.37 1673.96,1819.56 1673.84,1817.23L1673.77,1815.01C1671.75,1815.07 1669.74,1815.28 1667.76,1815.62L1668.13,1817.8C1668.49,1820.12 1667.19,1822.24 1665.29,1822.76L1664.04,1823.12C1662.15,1823.72 1659.91,1822.64 1658.96,1820.49L1658.1,1818.46C1656.24,1819.24 1654.44,1820.16 1652.71,1821.19L1653.84,1823.09C1655,1825.12 1654.57,1827.57 1652.97,1828.73C1652.62,1828.99 1652.29,1829.27 1651.94,1829.53C1650.39,1830.75 1647.92,1830.55 1646.26,1828.9L1644.72,1827.32C1643.29,1828.7 1641.93,1830.21 1640.68,1831.81L1642.43,1833.18C1644.25,1834.64 1644.72,1837.08 1643.67,1838.76C1643.45,1839.12 1643.2,1839.48 1643,1839.86C1642,1841.56 1639.62,1842.28 1637.47,1841.33L1635.46,1840.42C1635.19,1841.02 1634.92,1841.64 1634.66,1842.26C1634.15,1843.52 1633.71,1844.79 1633.32,1846.07L1635.44,1846.71C1637.67,1847.42 1638.97,1849.53 1638.61,1851.47C1638.5,1851.89 1638.45,1852.32 1638.38,1852.75C1638.05,1854.69 1636.09,1856.21 1633.76,1856.11L1631.54,1855.97C1631.42,1858 1631.44,1860.02 1631.59,1862.02L1633.8,1861.85C1636.13,1861.7 1638.12,1863.19 1638.47,1865.14L1638.72,1866.41C1639.14,1868.34 1637.85,1870.48 1635.63,1871.22L1633.53,1871.89C1634.14,1873.82 1634.89,1875.7 1635.75,1877.51L1637.75,1876.56C1639.88,1875.58 1642.28,1876.25 1643.29,1877.95L1643.99,1879.04C1645.07,1880.7 1644.64,1883.15 1642.84,1884.64L1641.12,1886.03C1642.37,1887.59 1643.74,1889.08 1645.22,1890.47L1646.74,1888.85C1648.37,1887.18 1650.84,1886.94 1652.41,1888.14C1652.75,1888.41 1653.09,1888.67 1653.45,1888.91C1655.04,1890.07 1655.54,1892.5 1654.41,1894.54L1653.3,1896.46C1655.03,1897.46 1656.84,1898.34 1658.74,1899.11L1659.57,1897.07C1660.49,1894.9 1662.71,1893.79 1664.6,1894.35C1665.02,1894.48 1665.44,1894.58 1665.86,1894.69C1667.77,1895.2 1669.09,1897.3 1668.78,1899.61L1668.43,1901.8C1670.45,1902.11 1672.46,1902.28 1674.46,1902.31L1674.5,1900.09C1674.57,1897.77 1676.23,1895.92 1678.2,1895.75C1678.63,1895.7 1679.06,1895.68 1679.49,1895.62C1681.45,1895.38 1683.46,1896.87 1684,1899.13L1684.47,1901.3C1686.44,1900.86 1688.38,1900.29 1690.27,1899.6L1689.51,1897.52C1688.73,1895.31 1689.61,1892.99 1691.39,1892.12L1692.55,1891.53C1694.3,1890.61 1696.7,1891.26 1698.03,1893.2L1699.25,1895.04C1700.92,1893.93 1702.53,1892.7 1704.04,1891.36L1702.58,1889.7C1701.06,1887.92 1701.06,1885.45 1702.39,1883.99C1702.7,1883.68 1702.97,1883.35 1703.26,1883.02C1704.56,1881.54 1707.03,1881.28 1708.95,1882.59L1710.77,1883.87C1711.92,1882.24 1712.96,1880.52 1713.9,1878.7L1711.94,1877.69C1709.87,1876.58 1708.96,1874.27 1709.7,1872.42L1710.15,1871.21C1710.83,1869.34 1713.04,1868.22 1715.32,1868.75L1717.46,1869.29C1717.96,1867.32 1718.32,1865.33 1718.54,1863.34L1716.33,1863.1Z" style="fill:rgb(216,217,218);fill-rule:nonzero;"/>
            <path d="M2690.43,2306.63C2683.03,2305.69 2677.67,2299.86 2677.68,2293.54C2677.68,2292.17 2677.76,2290.79 2677.66,2289.39C2677.55,2283.09 2682.79,2277.15 2690.19,2276.11L2697.21,2275.22C2696.41,2268.81 2695.16,2262.47 2693.5,2256.26L2686.68,2258.1C2679.4,2259.91 2672.26,2256.41 2670.04,2250.5L2668.51,2246.62C2666.07,2240.79 2668.87,2233.35 2675.41,2229.7L2681.63,2226.36C2678.59,2220.69 2675.15,2215.22 2671.34,2210.01L2665.63,2214.17C2659.53,2218.47 2651.6,2217.76 2647.39,2213.08C2646.51,2212.01 2645.49,2211.05 2644.56,2210.03C2640.23,2205.44 2640.15,2197.51 2644.89,2191.77L2649.5,2186.38C2644.65,2182.23 2639.47,2178.38 2633.97,2174.88L2630.16,2180.85C2626.04,2187.06 2618.41,2189.29 2612.76,2186.44L2609.04,2184.59C2603.28,2181.96 2600.33,2174.56 2602.71,2167.45L2605.06,2160.78C2598.89,2158.61 2592.67,2156.89 2586.43,2155.63L2585.02,2162.56C2583.4,2169.85 2577.08,2174.64 2570.8,2174.04C2569.43,2173.88 2568.05,2173.75 2566.67,2173.68C2560.39,2173.22 2554.98,2167.43 2554.6,2159.98L2554.37,2152.9C2547.91,2153.08 2541.48,2153.76 2535.15,2154.85L2536.35,2161.8C2537.5,2169.22 2533.35,2175.99 2527.25,2177.67L2523.27,2178.83C2517.23,2180.74 2510.08,2177.27 2507.04,2170.4L2504.28,2163.9C2498.34,2166.42 2492.58,2169.35 2487.05,2172.65L2490.67,2178.72C2494.39,2185.2 2492.98,2193.04 2487.89,2196.76C2486.77,2197.59 2485.71,2198.48 2484.6,2199.32C2479.64,2203.22 2471.74,2202.56 2466.44,2197.3L2461.51,2192.23C2456.92,2196.67 2452.6,2201.47 2448.61,2206.6L2454.2,2210.96C2460,2215.64 2461.5,2223.43 2458.16,2228.8C2457.46,2229.97 2456.65,2231.1 2456,2232.34C2452.82,2237.78 2445.2,2240.05 2438.34,2237.05L2431.92,2234.1C2431.03,2236.05 2430.17,2238.04 2429.35,2240.01C2427.72,2244.04 2426.31,2248.1 2425.08,2252.18L2431.84,2254.23C2438.96,2256.51 2443.13,2263.24 2441.96,2269.46C2441.64,2270.79 2441.45,2272.16 2441.23,2273.54C2440.18,2279.75 2433.91,2284.59 2426.46,2284.27L2419.38,2283.84C2418.99,2290.33 2419.04,2296.79 2419.54,2303.16L2426.61,2302.62C2434.06,2302.16 2440.42,2306.9 2441.55,2313.14L2442.32,2317.21C2443.68,2323.38 2439.54,2330.2 2432.46,2332.58L2425.73,2334.73C2427.69,2340.89 2430.07,2346.89 2432.85,2352.7L2439.22,2349.66C2446.03,2346.53 2453.72,2348.65 2456.95,2354.09L2459.18,2357.59C2462.62,2362.89 2461.25,2370.71 2455.5,2375.49L2450,2379.92C2454.01,2384.92 2458.38,2389.67 2463.1,2394.12L2467.97,2388.95C2473.17,2383.61 2481.06,2382.85 2486.09,2386.66C2487.17,2387.52 2488.27,2388.36 2489.42,2389.14C2494.52,2392.83 2496.1,2400.61 2492.48,2407.14L2488.95,2413.27C2494.47,2416.45 2500.25,2419.29 2506.32,2421.75L2508.97,2415.21C2511.91,2408.28 2519.02,2404.73 2525.07,2406.52C2526.4,2406.93 2527.75,2407.25 2529.09,2407.61C2535.18,2409.24 2539.43,2415.95 2538.41,2423.32L2537.32,2430.33C2543.75,2431.34 2550.18,2431.87 2556.58,2431.97L2556.69,2424.89C2556.94,2417.44 2562.25,2411.55 2568.53,2410.98C2569.91,2410.84 2571.3,2410.77 2572.66,2410.58C2578.93,2409.83 2585.34,2414.59 2587.06,2421.81L2588.59,2428.73C2594.89,2427.34 2601.09,2425.53 2607.13,2423.29L2604.68,2416.66C2602.2,2409.58 2605.02,2402.16 2610.72,2399.41L2614.42,2397.52C2620.01,2394.56 2627.67,2396.66 2631.92,2402.83L2635.82,2408.72C2641.18,2405.18 2646.3,2401.25 2651.16,2396.97L2646.47,2391.64C2641.62,2385.96 2641.62,2378.07 2645.87,2373.41C2646.85,2372.43 2647.73,2371.36 2648.64,2370.31C2652.8,2365.58 2660.69,2364.74 2666.85,2368.93L2672.64,2373.03C2676.32,2367.81 2679.67,2362.31 2682.67,2356.5L2676.38,2353.25C2669.79,2349.72 2666.85,2342.32 2669.22,2336.43L2670.68,2332.54C2672.84,2326.58 2679.91,2322.99 2687.19,2324.69L2694.05,2326.41C2695.65,2320.1 2696.79,2313.76 2697.48,2307.4L2690.43,2306.63Z" style="fill:rgb(135,40,144);fill-rule:nonzero;"/>
            <path d="M2690.19,2276.11L2697.21,2275.22C2696.41,2268.81 2695.16,2262.47 2693.5,2256.26L2686.68,2258.1C2679.4,2259.91 2672.26,2256.41 2670.04,2250.5L2668.51,2246.62C2666.07,2240.79 2668.87,2233.35 2675.41,2229.7L2681.63,2226.36C2678.59,2220.69 2675.15,2215.22 2671.34,2210.01L2665.63,2214.17C2659.53,2218.47 2651.6,2217.76 2647.39,2213.08C2646.51,2212.01 2645.49,2211.05 2644.56,2210.03C2640.23,2205.44 2640.15,2197.51 2644.89,2191.77L2649.5,2186.38C2644.65,2182.23 2639.47,2178.38 2633.97,2174.88L2630.16,2180.85C2626.04,2187.06 2618.41,2189.29 2612.76,2186.44L2609.04,2184.59C2603.28,2181.96 2600.33,2174.56 2602.71,2167.45L2605.06,2160.78C2598.89,2158.61 2592.67,2156.89 2586.43,2155.63L2585.02,2162.56C2583.4,2169.85 2577.08,2174.64 2570.8,2174.04C2569.43,2173.88 2568.05,2173.75 2566.67,2173.68C2560.39,2173.22 2554.98,2167.43 2554.6,2159.98L2554.54,2158L2550.74,2157.65C2550.18,2163.73 2550.03,2169.81 2550.32,2175.81L2556.97,2175.52C2564,2175.3 2569.84,2179.95 2570.71,2185.85L2571.31,2189.7C2572.41,2195.54 2568.31,2201.83 2561.59,2203.86L2555.19,2205.68C2556.86,2211.53 2558.92,2217.25 2561.36,2222.78L2567.44,2220.11C2573.93,2217.38 2581.1,2219.59 2583.97,2224.81L2585.97,2228.17C2589.05,2233.25 2587.53,2240.56 2581.98,2244.88L2576.67,2248.88C2580.29,2253.71 2584.27,2258.3 2588.57,2262.62L2593.31,2257.9C2598.35,2253.04 2605.79,2252.56 2610.4,2256.29C2611.4,2257.14 2612.41,2257.95 2613.46,2258.72C2618.15,2262.34 2619.4,2269.7 2615.81,2275.74L2612.3,2281.4C2617.4,2284.54 2622.75,2287.39 2628.38,2289.88L2631.07,2283.81C2634.04,2277.38 2640.83,2274.26 2646.47,2276.12C2647.71,2276.55 2648.96,2276.88 2650.21,2277.27C2655.89,2278.97 2659.68,2285.41 2658.51,2292.31L2657.27,2298.87C2663.29,2300.01 2669.32,2300.7 2675.34,2300.98L2675.65,2294.32C2675.81,2291.81 2676.59,2289.51 2677.79,2287.57C2678.6,2281.98 2683.51,2277.05 2690.19,2276.11Z" style="fill:rgb(168,33,142);fill-rule:nonzero;"/>
            <path d="M2017.51,1799.88C2016.14,1811.19 2005.86,1819.25 1994.55,1817.88C1983.25,1816.51 1975.19,1806.24 1976.56,1794.93C1977.92,1783.62 1988.2,1775.56 1999.51,1776.93C2010.81,1778.3 2018.88,1788.57 2017.51,1799.88ZM2001.99,1756.45C1979.37,1753.72 1958.81,1769.83 1956.08,1792.46C1953.35,1815.07 1969.46,1835.63 1992.08,1838.35C2014.69,1841.09 2035.24,1824.98 2037.98,1802.36C2040.71,1779.74 2024.6,1759.2 2001.99,1756.45Z" style="fill:rgb(255,216,0);fill-rule:nonzero;"/>
            <path d="M2078.94,1807.32C2073.46,1852.55 2032.35,1884.79 1987.12,1879.3C1941.89,1873.84 1909.67,1832.74 1915.13,1787.51C1920.59,1742.27 1961.7,1710.04 2006.94,1715.51C2052.16,1720.99 2084.4,1762.08 2078.94,1807.32ZM2099.47,1811.59C2099.69,1810.42 2099.78,1809.23 2099.9,1808.02C2100.51,1802.61 2105.69,1798.11 2112.14,1798.03L2118.29,1798.05C2118.31,1792.43 2117.95,1786.84 2117.2,1781.36L2111.12,1782.17C2104.7,1782.94 2098.97,1779.14 2097.69,1773.81L2096.82,1770.33C2095.34,1765.06 2098.6,1758.96 2104.6,1756.55L2110.31,1754.37C2108.32,1749.14 2105.96,1744.06 2103.28,1739.18L2097.92,1742.13C2092.18,1745.16 2085.43,1743.7 2082.38,1739.16L2080.27,1736.24C2077.04,1731.83 2077.84,1725 2082.58,1720.59L2087.12,1716.49C2083.41,1712.36 2079.39,1708.47 2075.1,1704.86L2071.14,1709.57C2066.91,1714.44 2060.12,1715.48 2055.59,1712.43C2054.61,1711.73 2053.62,1711.07 2052.59,1710.45C2048,1707.51 2046.25,1700.86 2049.06,1695.03L2051.82,1689.56C2046.89,1687.09 2041.75,1684.91 2036.39,1683.08L2034.41,1688.87C2032.21,1695 2026.24,1698.42 2020.91,1697.16C2019.75,1696.87 2018.57,1696.67 2017.39,1696.42C2012.04,1695.31 2008.05,1689.72 2008.56,1683.29L2009.17,1677.18C2003.56,1676.63 1997.97,1676.48 1992.43,1676.71L1992.68,1682.83C1992.84,1689.28 1988.53,1694.64 1983.13,1695.43C1981.95,1695.63 1980.75,1695.75 1979.58,1695.99C1974.2,1696.94 1968.42,1693.14 1966.58,1686.98L1964.92,1681.08C1959.54,1682.59 1954.27,1684.46 1949.16,1686.68L1951.6,1692.29C1954.09,1698.29 1952.01,1704.84 1947.22,1707.51L1944.12,1709.32C1939.43,1712.15 1932.7,1710.71 1928.73,1705.58L1925.07,1700.68C1920.61,1704.01 1916.37,1707.65 1912.39,1711.59L1916.7,1715.96C1921.17,1720.64 1921.56,1727.46 1918.11,1731.69C1917.3,1732.59 1916.6,1733.56 1915.87,1734.51C1912.5,1738.8 1905.72,1739.92 1900.19,1736.6L1894.98,1733.33C1892.06,1738.02 1889.43,1742.95 1887.13,1748.12L1892.72,1750.62C1898.59,1753.35 1901.49,1759.6 1899.73,1764.81L1898.65,1768.24C1897.08,1773.5 1891.14,1776.95 1884.77,1775.84L1878.75,1774.69C1877.68,1780.22 1877,1785.76 1876.72,1791.29L1882.85,1791.61C1889.3,1792.06 1894.21,1796.84 1894.52,1802.29C1894.58,1803.49 1894.58,1804.69 1894.74,1805.89C1895.14,1811.33 1890.9,1816.72 1884.55,1817.98L1878.53,1819.09C1879.53,1824.59 1880.92,1830.01 1882.66,1835.3L1888.47,1833.38C1894.67,1831.46 1901.01,1834.14 1903.22,1839.13L1904.74,1842.41C1907.13,1847.33 1905.07,1853.9 1899.6,1857.38L1894.38,1860.57C1897.29,1865.32 1900.54,1869.88 1904.08,1874.2L1908.81,1870.33C1913.88,1866.31 1920.77,1866.54 1924.64,1870.38C1925.44,1871.26 1926.37,1872.04 1927.23,1872.87C1931.2,1876.63 1931.66,1883.48 1927.84,1888.67L1924.12,1893.57C1928.52,1896.91 1933.18,1899.99 1938.1,1902.74L1941.11,1897.4C1944.37,1891.83 1950.85,1889.53 1955.88,1891.71L1959.19,1893.13C1964.29,1895.13 1967.2,1901.38 1965.5,1907.64L1963.79,1913.52C1969.23,1915.09 1974.69,1916.28 1980.15,1917.07L1981.03,1911C1982.07,1904.62 1987.3,1900.17 1992.75,1900.38C1993.95,1900.46 1995.15,1900.5 1996.34,1900.49C2001.8,1900.58 2006.76,1905.32 2007.45,1911.74L2007.99,1917.85C2013.57,1917.37 2019.09,1916.48 2024.52,1915.23L2023.14,1909.28C2021.79,1902.92 2025.04,1896.86 2030.23,1895.11L2033.61,1893.92C2038.74,1891.96 2045.09,1894.62 2048.06,1900.41L2050.76,1905.89C2055.77,1903.43 2060.6,1900.61 2065.23,1897.49L2061.8,1892.42C2058.27,1887 2059.1,1880.15 2063.32,1876.68C2064.24,1875.91 2065.12,1875.09 2066.04,1874.31C2070.13,1870.69 2077,1870.88 2081.84,1875.17L2086.34,1879.31C2090.1,1875.25 2093.6,1870.88 2096.8,1866.26L2091.75,1862.76C2086.51,1859 2084.83,1852.34 2087.45,1847.53C2088,1846.48 2088.65,1845.47 2089.14,1844.36C2091.64,1839.51 2098.11,1837.17 2104.19,1839.43L2109.88,1841.66C2110.55,1839.94 2111.2,1838.18 2111.81,1836.43C2113.02,1832.87 2114.05,1829.29 2114.91,1825.7L2108.96,1824.26C2102.7,1822.64 2098.76,1817.02 2099.47,1811.59Z" style="fill:rgb(255,216,0);fill-rule:nonzero;"/>
            <path d="M1756.6,1826.89C1761.06,1801.92 1784.92,1785.3 1809.89,1789.76C1834.85,1794.23 1851.47,1818.08 1847.01,1843.05C1842.54,1868.01 1818.69,1884.63 1793.72,1880.16C1768.76,1875.71 1752.14,1851.85 1756.6,1826.89ZM1738.54,1828.15C1742.1,1828.61 1744.68,1831.42 1744.68,1834.46C1744.68,1835.12 1744.64,1835.79 1744.69,1836.46C1744.75,1839.5 1742.22,1842.36 1738.65,1842.86L1735.27,1843.29C1735.65,1846.38 1736.25,1849.43 1737.06,1852.43L1740.34,1851.54C1743.85,1850.67 1747.29,1852.36 1748.36,1855.21L1749.1,1857.07C1750.28,1859.88 1748.92,1863.47 1745.77,1865.23L1742.77,1866.84C1744.24,1869.57 1745.9,1872.21 1747.73,1874.72L1750.49,1872.71C1753.43,1870.64 1757.25,1870.99 1759.28,1873.24C1759.7,1873.76 1760.19,1874.22 1760.64,1874.71C1762.73,1876.92 1762.77,1880.74 1760.48,1883.51L1758.26,1886.11C1760.6,1888.11 1763.1,1889.96 1765.74,1891.65L1767.58,1888.77C1769.57,1885.78 1773.24,1884.71 1775.97,1886.08L1777.76,1886.97C1780.54,1888.24 1781.96,1891.81 1780.81,1895.24L1779.68,1898.45C1782.65,1899.49 1785.65,1900.32 1788.66,1900.93L1789.34,1897.59C1790.12,1894.08 1793.17,1891.77 1796.19,1892.06C1796.85,1892.13 1797.52,1892.19 1798.18,1892.23C1801.21,1892.45 1803.82,1895.24 1804,1898.83L1804.11,1902.24C1807.23,1902.16 1810.32,1901.83 1813.37,1901.31L1812.79,1897.96C1812.24,1894.38 1814.24,1891.12 1817.18,1890.3L1819.1,1889.75C1822.01,1888.83 1825.46,1890.5 1826.92,1893.81L1828.25,1896.94C1831.11,1895.73 1833.89,1894.32 1836.56,1892.73L1834.81,1889.8C1833.02,1886.68 1833.7,1882.9 1836.15,1881.1C1836.69,1880.7 1837.2,1880.28 1837.73,1879.87C1840.12,1877.99 1843.93,1878.31 1846.49,1880.85L1848.86,1883.29C1851.08,1881.15 1853.16,1878.83 1855.08,1876.37L1852.39,1874.26C1849.59,1872 1848.87,1868.25 1850.48,1865.66C1850.82,1865.1 1851.21,1864.55 1851.52,1863.96C1853.06,1861.34 1856.73,1860.24 1860.03,1861.69L1863.13,1863.11C1863.55,1862.17 1863.97,1861.21 1864.36,1860.26C1865.15,1858.32 1865.83,1856.36 1866.42,1854.39L1863.16,1853.41C1859.73,1852.31 1857.73,1849.06 1858.29,1846.07C1858.44,1845.42 1858.53,1844.77 1858.64,1844.1C1859.14,1841.11 1862.17,1838.77 1865.76,1838.93L1869.17,1839.14C1869.36,1836.01 1869.33,1832.9 1869.09,1829.83L1865.69,1830.08C1862.09,1830.31 1859.03,1828.02 1858.49,1825.02L1858.11,1823.05C1857.46,1820.08 1859.46,1816.79 1862.87,1815.64L1866.11,1814.61C1865.17,1811.64 1864.02,1808.75 1862.68,1805.95L1859.61,1807.42C1856.33,1808.92 1852.62,1807.9 1851.06,1805.28L1849.99,1803.59C1848.33,1801.04 1848.99,1797.27 1851.76,1794.96L1854.42,1792.83C1852.48,1790.42 1850.37,1788.13 1848.1,1785.99L1845.75,1788.48C1843.25,1791.05 1839.44,1791.42 1837.02,1789.58C1836.5,1789.16 1835.97,1788.76 1835.42,1788.39C1832.96,1786.61 1832.2,1782.86 1833.94,1779.71L1835.64,1776.75C1832.98,1775.22 1830.19,1773.85 1827.27,1772.67L1825.99,1775.82C1824.58,1779.16 1821.15,1780.87 1818.23,1780.01C1817.59,1779.81 1816.94,1779.66 1816.3,1779.48C1813.36,1778.7 1811.31,1775.47 1811.8,1771.91L1812.33,1768.53C1809.23,1768.05 1806.13,1767.79 1803.04,1767.75L1802.99,1771.16C1802.87,1774.75 1800.31,1777.59 1797.28,1777.86C1796.62,1777.93 1795.95,1777.96 1795.3,1778.06C1792.27,1778.42 1789.19,1776.12 1788.35,1772.64L1787.62,1769.31C1784.58,1769.98 1781.59,1770.85 1778.68,1771.93L1779.86,1775.12C1781.06,1778.54 1779.7,1782.11 1776.95,1783.44L1775.17,1784.35C1772.47,1785.77 1768.78,1784.76 1766.74,1781.79L1764.86,1778.95C1762.27,1780.66 1759.8,1782.55 1757.46,1784.61L1759.72,1787.18C1762.06,1789.92 1762.06,1793.72 1760.01,1795.97C1759.54,1796.44 1759.12,1796.96 1758.68,1797.46C1756.67,1799.74 1752.87,1800.14 1749.9,1798.13L1747.11,1796.15C1745.34,1798.66 1743.72,1801.32 1742.28,1804.12L1745.3,1805.68C1748.48,1807.38 1749.9,1810.95 1748.75,1813.79L1748.05,1815.66C1747.01,1818.54 1743.6,1820.27 1740.1,1819.45L1736.79,1818.62C1736.02,1821.66 1735.47,1824.72 1735.14,1827.78L1738.54,1828.15Z" style="fill:rgb(216,217,218);fill-rule:nonzero;"/>
        </g>
    </g>
    <g transform="matrix(4.16667,0,0,4.16667,-6764,-7188.21)">
        <path d="M2412.32,2053.9C2410.58,2055 2408.29,2054.48 2407.19,2052.75C2406.1,2051 2406.62,2048.71 2408.36,2047.62C2410.09,2046.53 2412.39,2047.04 2413.48,2048.78C2414.58,2050.52 2414.05,2052.81 2412.32,2053.9ZM2382.25,2037.71C2380.18,2039.02 2377.45,2038.4 2376.13,2036.35C2376.12,2036.33 2376.11,2036.33 2376.1,2036.32C2374.79,2034.23 2375.42,2031.48 2377.5,2030.17C2379.58,2028.85 2382.34,2029.47 2383.65,2031.56C2384.96,2033.65 2384.34,2036.39 2382.25,2037.71ZM2363.62,2066.86C2362.53,2065.13 2363.05,2062.83 2364.79,2061.74C2366.52,2060.64 2368.82,2061.16 2369.91,2062.9C2371,2064.64 2370.48,2066.93 2368.75,2068.03C2367.01,2069.12 2364.72,2068.6 2363.62,2066.86ZM2330.81,2090.63C2329.89,2092.47 2327.66,2093.2 2325.82,2092.28C2323.99,2091.35 2323.25,2089.12 2324.17,2087.29C2325.09,2085.46 2327.33,2084.72 2329.17,2085.64C2331,2086.57 2331.73,2088.8 2330.81,2090.63ZM2334.19,2118.24C2334.2,2118.25 2334.21,2118.25 2334.23,2118.25C2336.43,2119.36 2337.31,2122.04 2336.2,2124.24C2335.09,2126.44 2332.41,2127.33 2330.21,2126.22C2328.01,2125.11 2327.13,2122.43 2328.24,2120.23C2329.34,2118.03 2331.99,2117.16 2334.19,2118.24ZM2300.76,2125.2C2299.84,2127.03 2297.6,2127.77 2295.77,2126.85C2293.94,2125.92 2293.21,2123.69 2294.12,2121.86C2295.05,2120.02 2297.29,2119.29 2299.12,2120.21C2300.95,2121.14 2301.69,2123.37 2300.76,2125.2ZM2416.88,2046.64C2414.61,2043.02 2409.83,2041.93 2406.21,2044.21C2405.74,2044.51 2405.31,2044.85 2404.93,2045.23L2390.73,2037.8C2390.88,2037.38 2391.01,2036.94 2391.11,2036.49C2391.79,2033.5 2391.26,2030.4 2389.63,2027.8L2389.57,2027.71C2386.16,2022.42 2379.06,2020.84 2373.74,2024.19C2371.13,2025.83 2369.32,2028.39 2368.64,2031.39C2367.96,2034.39 2368.48,2037.48 2370.19,2040.18C2370.94,2041.36 2371.89,2042.35 2372.95,2043.14L2368.78,2053.68C2363.84,2052.7 2358.61,2055.07 2356.24,2059.78C2354.73,2062.79 2354.66,2066.15 2355.77,2069.07L2332.62,2083.16C2332.13,2082.73 2331.58,2082.35 2330.98,2082.04C2327.15,2080.12 2322.5,2081.66 2320.58,2085.47C2318.65,2089.29 2320.19,2093.95 2324.01,2095.87C2324.82,2096.28 2325.67,2096.53 2326.52,2096.64L2328.95,2111.2C2326.01,2112.07 2323.41,2114.1 2321.93,2117.04C2321.45,2118.01 2321.1,2119.02 2320.91,2120.05L2304.77,2121.02C2304.14,2119.17 2302.81,2117.56 2300.93,2116.61C2297.11,2114.69 2292.45,2116.23 2290.53,2120.04C2288.6,2123.86 2290.14,2128.51 2293.96,2130.44C2297.78,2132.36 2302.43,2130.83 2304.36,2127.01C2304.61,2126.51 2304.8,2126 2304.93,2125.49L2320.93,2124.52C2321.01,2124.96 2321.13,2125.4 2321.28,2125.84C2322.24,2128.76 2324.28,2131.13 2327.03,2132.52L2327.14,2132.57C2332.78,2135.34 2339.67,2133.04 2342.51,2127.42C2343.89,2124.67 2344.13,2121.55 2343.16,2118.62C2342.2,2115.7 2340.15,2113.33 2337.3,2111.88C2336.05,2111.27 2334.73,2110.91 2333.41,2110.78L2330.92,2095.9C2332.37,2095.18 2333.62,2094 2334.4,2092.44C2335.29,2090.67 2335.45,2088.72 2334.97,2086.95L2358.13,2072.86C2359.03,2073.82 2360.11,2074.64 2361.34,2075.26L2361.45,2075.31C2367.1,2078.09 2373.99,2075.78 2376.82,2070.16C2378.2,2067.41 2378.44,2064.28 2377.48,2061.36C2376.67,2058.91 2375.08,2056.85 2372.91,2055.4L2376.98,2045.08C2379.95,2045.85 2383.23,2045.45 2386.01,2043.69C2386.93,2043.12 2387.74,2042.43 2388.44,2041.65L2402.77,2049.13C2402.36,2051.04 2402.66,2053.11 2403.78,2054.89C2406.06,2058.51 2410.85,2059.59 2414.46,2057.32C2418.08,2055.04 2419.17,2050.26 2416.88,2046.64Z" style="fill:rgb(241,242,242);fill-rule:nonzero;"/>
    </g>
    <g transform="matrix(4.16667,0,0,4.16667,-6764,-7188.21)">
        <path d="M2269.32,2006.39C2271.89,2002.31 2274.21,1998.02 2276.25,1993.56C2280.67,1983.87 2283.59,1973.76 2285,1963.5L2313.94,1952.69C2307.51,1975.5 2291.73,1995.4 2269.32,2006.39ZM2184.53,2001.02L2213.28,1990.28C2221.07,1997.11 2229.9,2002.83 2239.59,2007.25C2244.05,2009.28 2248.59,2010.99 2253.2,2012.39C2229.15,2018.69 2204.28,2013.99 2184.53,2001.02ZM2192.48,1853.46C2190.25,1857.12 2188.23,1860.93 2186.42,1864.88C2181.87,1874.87 2178.91,1885.31 2177.54,1895.9L2149.22,1906.48C2155.53,1884.13 2170.8,1864.58 2192.48,1853.46ZM2278.63,1858.15L2250.12,1868.8C2242.15,1861.69 2233.07,1855.75 2223.08,1851.19C2219.11,1849.38 2215.08,1847.83 2210.98,1846.52C2234.72,1840.62 2259.16,1845.36 2278.63,1858.15ZM2278.44,1909.53C2272.87,1895.39 2264.54,1882.83 2254.01,1872.44L2283.36,1861.48C2295.25,1870.49 2304.91,1882.69 2310.88,1897.42L2278.44,1909.53ZM2280.1,1914.01L2312.55,1901.89C2317.7,1916.92 2318.4,1932.48 2315.32,1947.08L2285.6,1958.18C2286.88,1943.39 2285.06,1928.4 2280.1,1914.01ZM2250.05,1971.45L2234.9,1930.89L2275.63,1915.68C2280.67,1930.38 2282.16,1945.49 2280.55,1960.06L2250.05,1971.45ZM2251.72,1975.92L2279.82,1965.43C2277.38,1980.28 2271.7,1994.43 2263.26,2006.83L2251.72,1975.92ZM2246.75,1977.78L2258.34,2008.82C2243.76,2005 2230.11,1998.01 2218.46,1988.34L2246.75,1977.78ZM2189.02,1948.03L2229.93,1932.75L2245.08,1973.31L2214.39,1984.77C2203.62,1974.83 2194.84,1962.43 2189.02,1948.03ZM2184.54,1949.7C2190.23,1963.82 2198.68,1976.33 2209.34,1986.66L2179.81,1997.69C2167.92,1988.68 2158.25,1976.47 2152.28,1961.75L2184.54,1949.7ZM2182.86,1945.23L2150.61,1957.27C2145.46,1942.24 2144.77,1926.68 2147.84,1912.09L2177,1901.2C2175.85,1915.95 2177.79,1930.9 2182.86,1945.23ZM2213.11,1887.71L2228.26,1928.27L2187.33,1943.56C2182.17,1928.93 2180.55,1913.87 2182.02,1899.32L2213.11,1887.71ZM2211.44,1883.24L2182.71,1893.97C2185.07,1878.69 2190.86,1864.12 2199.56,1851.41L2211.44,1883.24ZM2216.41,1881.38L2204.58,1849.69C2219.38,1853.6 2233.22,1860.78 2244.96,1870.72L2216.41,1881.38ZM2218.08,1885.86L2248.98,1874.32C2259.63,1884.33 2268.28,1896.77 2273.97,1911.2L2233.23,1926.42L2218.08,1885.86ZM2269.08,1847.38C2247.12,1837.37 2222.58,1836.5 2199.97,1844.94C2177.37,1853.39 2159.4,1870.13 2149.38,1892.08C2139.37,1914.04 2138.5,1938.58 2146.94,1961.19C2155.39,1983.8 2172.13,2001.77 2194.08,2011.78C2216.04,2021.8 2240.58,2022.67 2263.19,2014.22C2285.8,2005.78 2303.77,1989.04 2313.78,1967.08C2323.8,1945.12 2324.66,1920.58 2316.22,1897.97C2307.78,1875.37 2291.04,1857.4 2269.08,1847.38Z" style="fill:rgb(241,242,242);fill-rule:nonzero;"/>
    </g>
    <g transform="matrix(4.16667,0,0,4.16667,-6764,-7188.21)">
        <path d="M2824.64,1870.32L2798.88,1875.47L2796.71,1864.63C2795.52,1858.64 2798.61,1852.78 2803.87,1850.24L2805.95,1852.61L2808.73,1866.49L2810.81,1868.15L2812.09,1865.82L2809.32,1851.94L2810.33,1848.94C2816.17,1849.27 2821.27,1853.49 2822.47,1859.48L2824.64,1870.32ZM2803.15,1829.86C2807.55,1828.98 2811.83,1831.84 2812.71,1836.24C2813.59,1840.64 2810.74,1844.92 2806.34,1845.8C2801.94,1846.68 2797.66,1843.83 2796.78,1839.42C2795.9,1835.03 2798.75,1830.74 2803.15,1829.86ZM2800.96,1818.88C2783.01,1822.47 2771.37,1839.93 2774.96,1857.88C2778.55,1875.83 2796.01,1887.46 2813.96,1883.88C2831.9,1880.29 2843.54,1862.83 2839.95,1844.88C2836.36,1826.93 2818.9,1815.29 2800.96,1818.88Z" style="fill:rgb(241,242,242);fill-rule:nonzero;"/>
    </g>
    <g transform="matrix(4.16667,0,0,4.16667,-6764,-7188.21)">
        <path d="M2523.45,2019.36L2588.03,2039.21L2596.29,2012.33C2601.76,1994.52 2591.73,1975.59 2573.93,1970.11C2571.02,1969.22 2568.02,1968.72 2565.01,1968.63C2549.86,1968.17 2536.17,1977.98 2531.72,1992.48L2523.45,2019.36ZM2590.48,2043.83L2518.83,2021.81L2528.18,1991.39C2533.13,1975.3 2548.32,1964.42 2565.12,1964.93C2568.46,1965.03 2571.79,1965.59 2575.02,1966.58C2594.77,1972.65 2605.9,1993.66 2599.83,2013.41L2590.48,2043.83Z" style="fill:rgb(241,242,242);fill-rule:nonzero;"/>
    </g>
    <g transform="matrix(4.16667,0,0,4.16667,-6764,-7188.21)">
        <path d="M2583.82,1919.96C2574.9,1919.69 2566.83,1925.47 2564.2,1934.01C2562.64,1939.09 2563.15,1944.48 2565.64,1949.17C2568.13,1953.87 2572.3,1957.32 2577.38,1958.88C2579.09,1959.41 2580.86,1959.7 2582.64,1959.75C2591.56,1960.03 2599.63,1954.25 2602.25,1945.71C2605.47,1935.22 2599.56,1924.06 2589.07,1920.84C2587.36,1920.31 2585.59,1920.01 2583.82,1919.96ZM2582.52,1963.45C2580.42,1963.39 2578.32,1963.04 2576.29,1962.42C2570.27,1960.56 2565.33,1956.48 2562.38,1950.91C2559.42,1945.34 2558.82,1938.95 2560.67,1932.92C2563.78,1922.79 2573.35,1915.94 2583.93,1916.26C2586.03,1916.33 2588.13,1916.68 2590.16,1917.3C2602.6,1921.12 2609.61,1934.35 2605.79,1946.79C2602.67,1956.92 2593.11,1963.77 2582.52,1963.45Z" style="fill:rgb(241,242,242);fill-rule:nonzero;"/>
    </g>
    <g transform="matrix(4.16667,0,0,4.16667,-6764,-7188.21)">
        <path d="M2616.52,1937.06L2616.81,1936.1C2621.84,1919.75 2612.62,1902.35 2596.26,1897.33C2593.6,1896.51 2590.86,1896.05 2588.1,1895.97C2574.17,1895.54 2561.58,1904.55 2557.49,1917.87L2557.19,1918.84C2556.59,1918.72 2555.98,1918.65 2555.38,1918.63C2550.23,1918.48 2545.58,1921.81 2544.06,1926.74L2542.55,1931.66C2541.65,1934.59 2541.94,1937.7 2543.38,1940.41C2544.82,1943.12 2547.22,1945.11 2550.15,1946.01L2552.72,1946.8L2561.25,1919.03C2564.83,1907.38 2575.83,1899.5 2587.99,1899.87C2590.39,1899.95 2592.79,1900.35 2595.12,1901.06C2602.03,1903.19 2607.71,1907.88 2611.1,1914.29C2614.5,1920.7 2615.2,1928.04 2613.08,1934.96L2604.7,1962.22L2604.54,1962.72L2607.14,1963.52C2608.13,1963.82 2609.15,1963.99 2610.17,1964.02C2615.32,1964.18 2619.97,1960.85 2621.49,1955.92L2623,1951C2624.73,1945.36 2621.89,1939.34 2616.52,1937.06Z" style="fill:rgb(241,242,242);fill-rule:nonzero;"/>
    </g>
    <g transform="matrix(4.16667,0,0,4.16667,-6764,-7188.21)">
        <path d="M2696.14,2186.68C2695.72,2186.67 2695.29,2186.71 2694.88,2186.78L2512.35,2219.04C2510.64,2219.35 2509.14,2220.3 2508.14,2221.73C2507.15,2223.16 2506.76,2224.89 2507.07,2226.6L2529.13,2351.44C2529.67,2354.51 2532.32,2356.77 2535.43,2356.83C2535.85,2356.84 2536.27,2356.8 2536.68,2356.73L2719.22,2324.46C2720.93,2324.16 2722.42,2323.21 2723.42,2321.78C2724.42,2320.35 2724.8,2318.62 2724.5,2316.91L2702.43,2192.07C2701.89,2189 2699.24,2186.74 2696.14,2186.68ZM2535.35,2360.96C2530.28,2360.86 2525.95,2357.16 2525.07,2352.16L2503,2227.32C2501.98,2221.54 2505.85,2216 2511.63,2214.98L2694.16,2182.72C2694.84,2182.6 2695.53,2182.54 2696.21,2182.55C2701.29,2182.65 2705.61,2186.35 2706.5,2191.35L2728.57,2316.19C2729.06,2318.99 2728.43,2321.81 2726.8,2324.15C2725.17,2326.48 2722.73,2328.04 2719.94,2328.53L2537.41,2360.8C2536.73,2360.92 2536.03,2360.97 2535.35,2360.96Z" style="fill:rgb(241,242,242);fill-rule:nonzero;"/>
    </g>
    <g transform="matrix(4.16667,0,0,4.16667,-6764,-7188.21)">
        <path d="M2527.67,2246.8L2680.96,2219.7L2679.27,2210.09L2525.97,2237.18L2527.67,2246.8Z" style="fill:rgb(241,242,242);fill-rule:nonzero;"/>
    </g>
    <g transform="matrix(4.16667,0,0,4.16667,-6764,-7188.21)">
        <path d="M2532.76,2275.64L2603.4,2263.16L2602.41,2257.56L2531.77,2270.04L2532.76,2275.64Z" style="fill:rgb(241,242,242);fill-rule:nonzero;"/>
    </g>
    <g transform="matrix(4.16667,0,0,4.16667,-6764,-7188.21)">
        <path d="M2535.25,2289.71L2605.89,2277.22L2604.9,2271.63L2534.26,2284.11L2535.25,2289.71Z" style="fill:rgb(241,242,242);fill-rule:nonzero;"/>
    </g>
    <g transform="matrix(4.16667,0,0,4.16667,-6764,-7188.21)">
        <path d="M2537.74,2303.78L2608.37,2291.29L2607.39,2285.7L2536.75,2298.18L2537.74,2303.78Z" style="fill:rgb(241,242,242);fill-rule:nonzero;"/>
    </g>
    <g transform="matrix(4.16667,0,0,4.16667,-6764,-7188.21)">
        <path d="M2540.22,2317.85L2610.86,2305.36L2609.87,2299.76L2539.24,2312.25L2540.22,2317.85Z" style="fill:rgb(241,242,242);fill-rule:nonzero;"/>
    </g>
    <g transform="matrix(4.16667,0,0,4.16667,-6764,-7188.21)">
        <path d="M2542.71,2331.92L2595.41,2322.6L2594.42,2317L2541.72,2326.32L2542.71,2331.92Z" style="fill:rgb(241,242,242);fill-rule:nonzero;"/>
    </g>
    <g transform="matrix(4.16667,0,0,4.16667,-6764,-7188.21)">
        <path d="M2646.94,2295.64C2647.73,2295.83 2648.57,2295.87 2649.42,2295.72C2652.7,2295.14 2654.89,2292.01 2654.31,2288.72C2654.3,2288.63 2654.27,2288.55 2654.25,2288.46L2664.98,2282.81C2666.33,2284.22 2668.33,2284.96 2670.4,2284.6C2673.69,2284.01 2675.88,2280.88 2675.3,2277.59C2675.07,2276.26 2674.41,2275.11 2673.49,2274.25L2678.58,2264.45C2679.33,2264.61 2680.11,2264.64 2680.91,2264.5C2684.19,2263.92 2686.39,2260.78 2685.81,2257.5C2685.23,2254.21 2682.09,2252.01 2678.8,2252.6C2675.52,2253.18 2673.33,2256.31 2673.91,2259.6C2674.14,2260.91 2674.78,2262.04 2675.67,2262.9L2670.57,2272.73C2669.84,2272.58 2669.08,2272.56 2668.3,2272.69C2665.01,2273.27 2662.82,2276.41 2663.4,2279.7C2663.41,2279.76 2663.43,2279.83 2663.45,2279.89L2652.69,2285.56C2651.34,2284.18 2649.36,2283.46 2647.31,2283.82C2644.03,2284.4 2641.83,2287.54 2642.41,2290.83C2642.63,2292.08 2643.24,2293.18 2644.07,2294.02L2636.79,2307.21L2627.25,2253.23L2622.38,2254.09L2633.31,2315.92L2696.01,2304.83L2695.15,2299.97L2639.08,2309.88L2646.94,2295.64Z" style="fill:rgb(241,242,242);fill-rule:nonzero;"/>
    </g>
    <g transform="matrix(4.16667,0,0,4.16667,-6764,-7188.21)">
        <path d="M1861.51,2122.64L1846.24,2098.97L1821.68,2114.79L1822.09,2110.29C1822.28,2108.26 1821.9,2106.39 1820.97,2104.73C1819.17,2101.53 1815.47,2099.62 1811.08,2099.62C1808.25,2099.62 1805.37,2100.4 1802.73,2101.88C1798.83,2104.06 1795.99,2107.48 1794.92,2111.27C1794.15,2114.03 1794.4,2116.67 1795.66,2118.91C1796.88,2121.07 1798.91,2122.64 1801.55,2123.45L1806.09,2124.83L1780.77,2141.15L1795.5,2163.97L1791.25,2163.91C1789.21,2163.91 1787.37,2164.46 1785.8,2165.54C1783.36,2167.22 1781.87,2170 1781.59,2173.39C1781.3,2176.94 1782.38,2180.69 1784.62,2183.94C1787.64,2188.32 1792.31,2191.04 1796.81,2191.04C1798.85,2191.04 1800.68,2190.49 1802.26,2189.41C1803.63,2188.46 1804.7,2187.18 1805.44,2185.59L1807.12,2181.97L1821.39,2204.08L1839.33,2192.53C1837.19,2191.31 1835.45,2189.6 1834.24,2187.51C1832.08,2183.78 1831.81,2179.28 1833.5,2174.85C1835.12,2170.57 1838.38,2166.85 1842.68,2164.36C1846.03,2162.42 1849.74,2161.4 1853.4,2161.4C1859.29,2161.4 1864.37,2164.08 1866.97,2168.58C1867.87,2170.13 1868.45,2171.83 1868.68,2173.62L1886.86,2161.91L1874.13,2142.18L1877.8,2141.89C1879.42,2141.76 1880.89,2141.27 1882.18,2140.43C1884.66,2138.81 1886.23,2136.07 1886.59,2132.69C1886.97,2129.15 1885.99,2125.38 1883.83,2122.07C1880.85,2117.49 1876.14,2114.65 1871.55,2114.65C1869.62,2114.65 1867.87,2115.16 1866.34,2116.15C1865.08,2116.97 1864.06,2118.08 1863.3,2119.44L1861.51,2122.64ZM1847.55,2092.88L1861.5,2114.5C1862.22,2113.72 1863.04,2113.05 1863.94,2112.46C1866.16,2111.01 1868.79,2110.25 1871.55,2110.25C1877.61,2110.25 1883.73,2113.85 1887.52,2119.66C1890.23,2123.82 1891.45,2128.61 1890.97,2133.16C1890.46,2137.88 1888.2,2141.77 1884.58,2144.12C1883.63,2144.74 1882.63,2145.23 1881.57,2145.59L1892.95,2163.23L1863.4,2182.26L1864.24,2177.33C1864.64,2174.96 1864.27,2172.69 1863.16,2170.78C1861.35,2167.66 1857.71,2165.8 1853.4,2165.8C1850.51,2165.8 1847.57,2166.62 1844.89,2168.17C1841.46,2170.16 1838.88,2173.08 1837.61,2176.41C1836.41,2179.58 1836.56,2182.74 1838.05,2185.31C1839.38,2187.6 1841.71,2189.24 1844.62,2189.92L1849.67,2191.11L1820.08,2210.17L1807.45,2190.59C1806.66,2191.52 1805.77,2192.34 1804.75,2193.04C1802.46,2194.61 1799.71,2195.44 1796.81,2195.44C1790.88,2195.44 1784.82,2191.99 1781,2186.44C1778.18,2182.35 1776.83,2177.59 1777.2,2173.03C1777.59,2168.3 1779.76,2164.36 1783.31,2161.91C1784.63,2161.01 1786.1,2160.34 1787.67,2159.95L1774.68,2139.83L1796.37,2125.86C1794.47,2124.63 1792.91,2123 1791.82,2121.06C1790.01,2117.83 1789.6,2113.93 1790.69,2110.08C1792.06,2105.17 1795.67,2100.79 1800.57,2098.03C1803.87,2096.19 1807.5,2095.21 1811.08,2095.21C1817.09,2095.21 1822.22,2097.96 1824.81,2102.57C1825.51,2103.82 1826,2105.17 1826.28,2106.59L1847.55,2092.88Z" style="fill:rgb(241,242,242);fill-rule:nonzero;"/>
    </g>
    <g transform="matrix(4.16667,0,0,4.16667,-6764,-7188.21)">
        <path d="M1955.29,2303.75C1960.41,2306.33 1962.46,2312.58 1959.88,2317.69C1958.19,2321.04 1954.81,2323.22 1951.05,2323.39L1949.46,2323.46L1945.2,2331.88C1944.29,2333.68 1942.08,2334.41 1940.27,2333.5C1938.46,2332.59 1937.73,2330.37 1938.65,2328.56L1942.9,2320.14L1942.01,2318.82C1939.91,2315.7 1939.66,2311.68 1941.35,2308.33C1943.93,2303.22 1950.18,2301.17 1955.29,2303.75ZM1936.62,2320.45L1933.77,2326.1C1931.5,2330.6 1933.31,2336.1 1937.8,2338.38C1942.3,2340.65 1947.81,2338.84 1950.08,2334.34L1952.94,2328.69C1957.99,2327.94 1962.43,2324.77 1964.76,2320.16C1968.7,2312.36 1965.56,2302.81 1957.76,2298.87C1949.96,2294.93 1940.41,2298.07 1936.47,2305.87C1934.14,2310.49 1934.23,2315.93 1936.62,2320.45Z" style="fill:rgb(241,242,242);fill-rule:nonzero;"/>
    </g>
    <g transform="matrix(4.16667,0,0,4.16667,-6764,-7188.21)">
        <path d="M1971.01,2348.98C1968.41,2354.14 1962.08,2356.22 1956.92,2353.61L1914.2,2332.04C1909.04,2329.43 1906.96,2323.11 1909.56,2317.94L1929.44,2278.6L1990.89,2309.63L1971.01,2348.98ZM1945.8,2280.74L1952.54,2267.39C1958.72,2255.16 1953.79,2240.17 1941.55,2233.99C1929.32,2227.81 1914.34,2232.74 1908.16,2244.98L1898.95,2263.2L1903.83,2265.66L1913.03,2247.44C1917.85,2237.89 1929.54,2234.05 1939.09,2238.87C1948.64,2243.69 1952.48,2255.38 1947.66,2264.93L1940.92,2278.27L1927.02,2271.26L1924.56,2276.13L1904.69,2315.48C1900.72,2323.33 1903.88,2332.95 1911.74,2336.92L1954.45,2358.49C1962.31,2362.46 1971.92,2359.3 1975.89,2351.44L1998.23,2307.22L1945.8,2280.74Z" style="fill:rgb(241,242,242);fill-rule:nonzero;"/>
    </g>
    <g transform="matrix(4.16667,0,0,4.16667,-6764,-7188.21)">
        <path d="M2012.46,2020.73C2012.41,2020.68 2012.36,2020.64 2012.32,2020.6C2008.46,2016.81 2003.38,2014.98 1998.35,2015.13L1998.35,2019.69C2002.21,2019.55 2006.11,2020.92 2009.08,2023.83C2009.13,2023.87 2009.18,2023.91 2009.23,2023.96C2012.22,2026.95 2013.64,2030.91 2013.5,2034.84L2018.06,2034.83C2018.2,2029.74 2016.33,2024.6 2012.46,2020.73Z" style="fill:rgb(241,242,242);fill-rule:nonzero;"/>
    </g>
    <g transform="matrix(4.16667,0,0,4.16667,-6764,-7188.21)">
        <path d="M2022.15,2011.03C2022.11,2010.99 2022.06,2010.94 2022.01,2010.9C2015.48,2004.44 2006.9,2001.29 1998.35,2001.43L1998.35,2006C2005.73,2005.85 2013.14,2008.57 2018.78,2014.13C2018.83,2014.18 2018.88,2014.22 2018.92,2014.26C2024.58,2019.92 2027.33,2027.4 2027.19,2034.83L2031.75,2034.83C2031.89,2026.24 2028.7,2017.58 2022.15,2011.03Z" style="fill:rgb(241,242,242);fill-rule:nonzero;"/>
    </g>
    <g transform="matrix(4.16667,0,0,4.16667,-6764,-7188.21)">
        <path d="M2004.32,2028.87C2004.27,2028.82 2004.22,2028.78 2004.17,2028.74C2001.17,2025.88 1996.41,2025.92 1993.47,2028.86C1990.52,2031.81 1990.48,2036.57 1993.33,2039.59C1993.37,2039.63 1993.42,2039.68 1993.46,2039.72C1996.46,2042.72 2001.32,2042.72 2004.32,2039.72C2007.31,2036.73 2007.31,2031.86 2004.32,2028.87Z" style="fill:rgb(241,242,242);fill-rule:nonzero;"/>
    </g>
    <g transform="matrix(4.16667,0,0,4.16667,-6764,-7188.21)">
        <path d="M2031.84,2001.34C2031.8,2001.3 2031.75,2001.25 2031.7,2001.21C2022.5,1992.08 2010.41,1987.58 1998.35,1987.73L1998.35,1992.29C2009.24,1992.15 2020.16,1996.2 2028.47,2004.44C2028.52,2004.49 2028.56,2004.53 2028.61,2004.58C2036.94,2012.91 2041.04,2023.89 2040.89,2034.84L2045.46,2034.83C2045.6,2022.72 2041.07,2010.57 2031.84,2001.34Z" style="fill:rgb(241,242,242);fill-rule:nonzero;"/>
    </g>
</svg>
