<svg id="Layer_1" enable-background="new 0 0 68 68" height="512" viewBox="0 0 68 68" width="512" xmlns="http://www.w3.org/2000/svg"><g><g><g><path d="m45.8 38.9c6.4 0 11.6-5.2 11.6-11.6s-5.2-11.6-11.6-11.6-11.6 5.3-11.6 11.6 5.2 11.6 11.6 11.6zm0-21.1c5.3 0 9.6 4.3 9.6 9.6s-4.3 9.6-9.6 9.6-9.6-4.3-9.6-9.6 4.3-9.6 9.6-9.6z" fill="rgb(0,0,0)"/></g></g><g><g><path d="m37.9 39.9c-5.1 0-9.3 4.2-9.3 9.3v11.5c0 .6.4 1 1 1h32.4c.6 0 1-.4 1-1v-11.5c0-5.1-4.2-9.3-9.3-9.3zm23 9.3v10.5h-4.5v-8.8c0-.6-.4-1-1-1s-1 .4-1 1v8.8h-18.2v-8.8c0-.6-.4-1-1-1s-1 .4-1 1v8.8h-3.6v-10.5c0-4 3.3-7.3 7.3-7.3h15.7c4.1 0 7.3 3.2 7.3 7.3z" fill="rgb(0,0,0)"/></g></g><g><g><path d="m66 65h-40.5c-.6 0-1 .4-1 1s.4 1 1 1h40.5c.6 0 1-.4 1-1s-.4-1-1-1z" fill="rgb(0,0,0)"/></g></g><g><g><path d="m27.2 30.2c.4 0 .8-.2 1.1-.5l1.6-1.6c.6-.6.6-1.5.1-2.1l-1.7-2c.7-1.2 1.2-2.4 1.6-3.7l2.6-.2c.8-.1 1.5-.8 1.5-1.6v-2.3c0-.8-.6-1.5-1.5-1.6l-2.6-.2c-.3-1.3-.8-2.6-1.6-3.7l1.7-2c.5-.6.5-1.6-.1-2.1l-1.6-1.6c-.6-.6-1.5-.6-2.1-.1l-2 1.7c-1.2-.7-2.4-1.2-3.8-1.5l-.2-2.6c-.1-.9-.8-1.5-1.6-1.5h-2.3c-.8 0-1.5.6-1.6 1.4l-.2 2.6c-1.3.3-2.6.8-3.8 1.5l-2-1.7c-.5-.4-1.5-.4-2.1.2l-1.6 1.6c-.6.6-.6 1.5-.1 2.1l1.7 2c-.7 1.2-1.2 2.4-1.6 3.7l-2.6.2c-.8.1-1.4.8-1.4 1.6v2.3c0 .8.6 1.5 1.5 1.6l2.6.2c.3 1.3.8 2.6 1.6 3.7l-1.7 2c-.5.6-.5 1.6.1 2.1l1.6 1.6c.6.6 1.5.6 2.1.1l2-1.7c1.2.7 2.4 1.2 3.8 1.5l.2 2.6c.1.8.8 1.5 1.6 1.5h2.3c.8 0 1.5-.6 1.6-1.4l.2-2.6c1.3-.3 2.6-.8 3.8-1.5l2 1.7c.1.2.5.3.9.3zm-3.9-3.9c-1.1.7-2.3 1.2-3.7 1.5-.7.1-1.2.7-1.3 1.4l-.2 2.5h-1.5l-.2-2.5c-.1-.7-.6-1.3-1.3-1.4-1.3-.3-2.5-.8-3.7-1.5-.6-.4-1.4-.3-1.9.1l-2 1.7-.8-1.1 1.7-1.9c.5-.5.5-1.3.1-1.9-.7-1.1-1.2-2.3-1.5-3.6-.1-.7-.7-1.2-1.4-1.2l-2.6-.3v-1.5l2.6-.2c.7-.1 1.3-.6 1.4-1.2.3-1.3.8-2.5 1.5-3.6.4-.6.3-1.4-.1-1.9l-1.7-2 1.1-1.1 2 1.7c.5.4 1.3.5 1.9.1 1.1-.7 2.3-1.2 3.7-1.5.7-.1 1.2-.7 1.3-1.4v-2.5h1.5l.2 2.5c.1.7.6 1.3 1.3 1.4 1.3.3 2.5.8 3.7 1.5.6.4 1.4.3 1.9-.1l2-1.7 1.1 1.1-1.7 1.9c-.5.5-.5 1.3-.1 1.9.7 1.1 1.2 2.3 1.5 3.6.1.7.7 1.2 1.4 1.2l2.6.2v1.5l-2.6.2c-.7.1-1.3.6-1.4 1.2-.3 1.3-.8 2.5-1.5 3.6-.4.6-.3 1.4.1 1.9l1.7 1.9-1.3 1.2-2-1.7c-.4-.3-1.2-.4-1.8 0z" fill="rgb(0,0,0)"/></g></g><g><g><path d="m17.5 9.3c-4.5 0-8.1 3.6-8.1 8.1s3.7 8.1 8.1 8.1c4.5 0 8.1-3.6 8.1-8.1s-3.7-8.1-8.1-8.1zm0 14.2c-3.4 0-6.1-2.7-6.1-6.1s2.8-6.1 6.1-6.1 6.1 2.7 6.1 6.1c0 3.3-2.8 6.1-6.1 6.1z" fill="rgb(0,0,0)"/></g></g></g></svg>