<svg id="Layer_3" enable-background="new 0 0 64 64" height="512" viewBox="0 0 64 64" width="512" xmlns="http://www.w3.org/2000/svg"><g><path d="m45 29v-5.5-7c0-1.93-1.57-3.5-3.5-3.5-.612 0-1.178.172-1.679.448-.45-1.414-1.76-2.448-3.321-2.448-.612 0-1.178.172-1.679.448-.45-1.414-1.76-2.448-3.321-2.448s-2.871 1.034-3.321 2.448c-.501-.276-1.067-.448-1.679-.448-1.93 0-3.5 1.57-3.5 3.5v1.601c-2.279.465-4 2.484-4 4.899v8c0 3.457 1.941 6.552 5 8.064v4.936h-1c-.553 0-1 .448-1 1v19c0 .552.447 1 1 1h18c.553 0 1-.448 1-1v-19c0-.552-.447-1-1-1h-1v-4.935c3.059-1.513 5-4.608 5-8.065zm-3.5-14c.827 0 1.5.673 1.5 1.5v7c0 .827-.673 1.5-1.5 1.5s-1.5-.673-1.5-1.5v-7c0-.827.673-1.5 1.5-1.5zm-5-2c.827 0 1.5.673 1.5 1.5v2 7c0 .827-.673 1.5-1.5 1.5s-1.5-.673-1.5-1.5v-9c0-.827.673-1.5 1.5-1.5zm-6.5-.5c0-.827.673-1.5 1.5-1.5s1.5.673 1.5 1.5v2 9c0 .827-.673 1.5-1.5 1.5s-1.5-.673-1.5-1.5v-.851c1.178-.564 2-1.758 2-3.149s-.822-2.585-2-3.149v-1.851zm-2 11c0 .827-.673 1.5-1.5 1.5-.173 0-.341-.033-.5-.09v-1.91h2zm-1.5-10.5c.827 0 1.5.673 1.5 1.5v1.5h-3v-1.5c0-.827.673-1.5 1.5-1.5zm13.5 31v2h-16v-2zm-16 17v-13h16v13zm2-19v-5.582c0-.407-.247-.774-.625-.927-2.657-1.075-4.375-3.624-4.375-6.491v-8c0-1.654 1.346-3 3-3h4.5c.827 0 1.5.673 1.5 1.5s-.673 1.5-1.5 1.5h-3.5c-.553 0-1 .448-1 1v6c0 .552.447 1 1 1 2.757 0 5 2.243 5 5h2c0-3.521-2.612-6.442-6-6.929v-.111c.165.023.331.04.5.04.98 0 1.864-.407 2.5-1.058.636.651 1.52 1.058 2.5 1.058s1.864-.407 2.5-1.058c.636.651 1.52 1.058 2.5 1.058s1.864-.407 2.5-1.058c.636.651 1.52 1.058 2.5 1.058.539 0 1.044-.133 1.5-.351v2.351c0 2.868-1.718 5.416-4.375 6.491-.378.153-.625.52-.625.927v5.582z"/><path d="m11 32h2c0-7.526-2.693-14.606-7.584-19.936l-.68-.74-1.473 1.353.679.74c4.486 4.888 7.058 11.661 7.058 18.583z"/><path d="m60.057 13.417.68-.74-1.473-1.353-.681.74c-4.89 5.33-7.583 12.41-7.583 19.936h2c0-6.922 2.572-13.695 7.057-18.583z"/><path d="m17 20.168c0-5.776 2.094-11.426 5.745-15.5l-1.49-1.335c-4.033 4.502-6.255 10.481-6.255 16.835v.832h2z"/><path d="m47 21h2v-.832c0-6.354-2.222-12.333-6.255-16.835l-1.49 1.335c3.651 4.074 5.745 9.724 5.745 15.5z"/><path d="m11 18h2v-.397c0-5.837-1.793-11.434-5.187-16.184l-1.626 1.162c3.148 4.409 4.813 9.604 4.813 15.022z"/><path d="m53 17.603c0-5.418 1.665-10.612 4.813-15.021l-1.627-1.162c-3.393 4.749-5.186 10.345-5.186 16.183v.397h2z"/><path d="m4 23h2v2h-2z"/><path d="m6 25h2v2h-2z"/><path d="m4 27h2v2h-2z"/><path d="m2 25h2v2h-2z"/><path d="m58 23h2v2h-2z"/><path d="m60 25h2v2h-2z"/><path d="m58 27h2v2h-2z"/><path d="m56 25h2v2h-2z"/><path d="m47 33h2v2h-2z"/><path d="m49 35h2v2h-2z"/><path d="m47 37h2v2h-2z"/><path d="m45 35h2v2h-2z"/><path d="m15 33h2v2h-2z"/><path d="m17 35h2v2h-2z"/><path d="m15 37h2v2h-2z"/><path d="m13 35h2v2h-2z"/><path d="m35 4h2v2h-2z"/><path d="m24 6h2v2h-2z"/><path d="m10.828 40.757c-2.469 2.469-3.828 5.751-3.828 9.243h2c0-2.958 1.151-5.738 3.242-7.828l.465-.464-1.414-1.415z"/><path d="m52.707 40.292-1.414 1.415.465.464c2.091 2.091 3.242 4.871 3.242 7.829h2c0-3.492-1.359-6.774-3.828-9.243z"/></g></svg>